<svg width="326" height="102" viewBox="0 0 326 102" fill="none" xmlns="http://www.w3.org/2000/svg">
<path d="M122.045 80.1648H124.67V87.0455H131.636V80.1648H134.239V95.5796H131.636V89.3921H124.67V95.5796H122.045V80.1648Z" fill="white"/>
<path d="M137.085 90.3012C137.085 87.1762 139.301 84.8296 142.642 84.8296C145.898 84.8296 148.199 87.0455 148.199 90.3012C148.199 93.5114 145.898 95.75 142.642 95.75C139.301 95.75 137.085 93.4034 137.085 90.3012ZM145.727 90.3012C145.727 88.3466 144.381 87.0228 142.642 87.0228C140.795 87.0228 139.557 88.4546 139.557 90.3012C139.557 92.1023 140.818 93.5341 142.642 93.5341C144.358 93.5341 145.727 92.2103 145.727 90.3012ZM144.273 99.3069C144.273 100.176 143.557 100.915 142.642 100.915C141.727 100.915 140.994 100.176 140.994 99.3069C140.994 98.4148 141.733 97.6762 142.642 97.6762C143.551 97.6762 144.273 98.4205 144.273 99.3069Z" fill="white"/>
<path d="M150.108 90.3012C150.108 87.0455 152.386 84.8296 155.602 84.8296C157.25 84.8296 158.989 85.5 160.051 86.8069L158.403 88.2387C157.795 87.5228 156.886 87.0228 155.733 87.0228C153.847 87.0228 152.585 88.3466 152.585 90.2785C152.585 92.233 153.864 93.5341 155.733 93.5341C156.903 93.5341 157.858 93.0114 158.426 92.4035L160.097 93.8807C159.187 94.9205 157.557 95.75 155.517 95.75C152.386 95.75 150.108 93.5341 150.108 90.3012Z" fill="white"/>
<path d="M167.21 94.2104L168.426 92.3865C169.273 93.2104 170.182 93.6252 171.489 93.6252C172.42 93.6252 172.966 93.2104 172.966 92.5854C172.966 92.0399 172.273 91.7842 170.881 91.307C169.142 90.699 167.648 89.9149 167.648 87.8354C167.648 86.0967 169.21 84.8411 171.381 84.8411C172.727 84.8411 173.943 85.2104 175.114 86.1649L173.898 88.074C173.051 87.2729 172.074 86.9433 171.25 86.9433C170.773 86.9433 170.097 87.2047 170.097 87.8524C170.097 88.3751 170.75 88.7445 171.767 89.1308C174.023 90.0229 175.438 90.432 175.438 92.5399C175.438 94.3183 174.176 95.7502 171.489 95.7502C169.773 95.7502 168.318 95.1877 167.21 94.2104Z" fill="white"/>
<path d="M187.744 84.9832V95.5798H185.42V94.1707H185.375C184.614 95.1934 183.466 95.7559 182.011 95.7559C179.08 95.7559 176.886 93.6082 176.886 90.3297C176.886 87.1366 179.08 84.8354 181.989 84.8354C183.335 84.8354 184.483 85.3354 185.267 86.2673H185.312V84.9888H187.744V84.9832ZM185.426 90.3468C185.426 88.4604 184.148 87.0229 182.409 87.0229C180.716 87.0229 179.369 88.3013 179.369 90.3468C179.369 92.2161 180.608 93.54 182.409 93.54C184.057 93.5343 185.426 92.2559 185.426 90.3468ZM183.494 83.5059H181.017L183.511 80.3809L186.182 80.3582L183.494 83.5059Z" fill="white"/>
<path d="M200.705 89.3465V95.5794H198.273V89.9771C198.273 87.7385 197.426 87.0226 195.972 87.0226C194.324 87.0226 193.239 88.1703 193.239 90.2556V95.5737H190.807V84.9771H193.239V86.4544H193.261C194.153 85.3919 195.455 84.8237 196.824 84.8237C199.142 84.8294 200.705 86.1533 200.705 89.3465Z" fill="white"/>
<path d="M213.812 84.983V94.4944C213.812 97.7046 212.335 100.028 208.409 100.028C206.824 100.028 205.284 99.6364 204.091 98.9205L204.676 96.7955C205.824 97.4035 206.761 97.8353 208.278 97.8353C210.364 97.8353 211.426 96.6421 211.426 95.233V94.1023H211.403C210.602 94.9262 209.494 95.4035 208.17 95.4035C205.216 95.4035 203.006 93.3182 203.006 90.1705C203.006 87.0682 205.114 84.8296 208.04 84.8296C209.256 84.8296 210.449 85.2614 211.341 86.108H211.386V84.9773H213.812V84.983ZM211.489 90.0625C211.489 88.2614 210.187 87.0455 208.494 87.0455C206.693 87.0455 205.477 88.3069 205.477 90.108C205.477 91.9944 206.778 93.1705 208.494 93.1705C210.256 93.1648 211.489 91.8637 211.489 90.0625Z" fill="white"/>
<path d="M222.864 92.233V87.0455H221.562V84.983H222.864V81.466L225.295 81.2046V84.983H228.398V87.0455H225.295V91.9944C225.295 93.0796 225.619 93.4716 226.318 93.4716C226.733 93.4716 227.318 93.3182 227.881 93.0171L228.511 95.125C227.881 95.4716 227.21 95.7557 225.818 95.7557C223.994 95.75 222.864 94.5966 222.864 92.233Z" fill="white"/>
<path d="M240.335 84.9829V95.5795H238.011V94.1704H237.966C237.205 95.1932 236.057 95.7557 234.602 95.7557C231.67 95.7557 229.477 93.6079 229.477 90.3295C229.477 87.1363 231.67 84.8352 234.579 84.8352C235.926 84.8352 237.074 85.3352 237.858 86.267H237.903V84.9886H240.335V84.9829ZM238.017 90.3466C238.017 88.4602 236.739 87.0227 235 87.0227C233.307 87.0227 231.96 88.3011 231.96 90.3466C231.96 92.2159 233.199 93.5398 235 93.5398C236.648 93.5341 238.017 92.2557 238.017 90.3466ZM236.562 99.3068C236.562 100.176 235.847 100.915 234.932 100.915C234.023 100.915 233.284 100.176 233.284 99.3068C233.284 98.4148 234.023 97.6761 234.932 97.6761C235.841 97.6818 236.562 98.4204 236.562 99.3068Z" fill="white"/>
<path d="M242.767 90.3012C242.767 87.1762 244.983 84.8296 248.324 84.8296C251.58 84.8296 253.881 87.0455 253.881 90.3012C253.881 93.5114 251.58 95.75 248.324 95.75C244.983 95.75 242.767 93.4034 242.767 90.3012ZM251.409 90.3012C251.409 88.3466 250.063 87.0228 248.324 87.0228C246.477 87.0228 245.239 88.4546 245.239 90.3012C245.239 92.1023 246.5 93.5341 248.324 93.5341C250.04 93.5341 251.409 92.2103 251.409 90.3012Z" fill="white"/>
<path d="M155.869 51.9828C155.869 59.0851 151.199 64.3123 141.733 64.3123H122.301V20.0964H138.994C148.835 20.0964 153.568 24.0851 153.568 30.8692C153.568 34.6703 151.949 38.6533 147.153 40.6476V40.7726C153.131 42.3919 155.869 46.5055 155.869 51.9828ZM132.511 37.7214H137.432C140.545 37.7214 143.04 36.2896 143.04 33.4885C143.04 30.9998 141.233 29.2555 137.063 29.2555H132.517V37.7214H132.511ZM145.034 50.551C145.034 47.8123 142.977 45.8805 138.494 45.8805H132.517V55.2214H138.494C142.352 55.2214 145.034 53.6646 145.034 50.551Z" fill="white"/>
<path d="M192.244 51.676H171.568C172.256 55.1022 175.182 56.9715 178.733 56.9715C181.534 56.9715 184.028 55.7272 186.085 53.2953L191.256 59.0851C188.704 62.3238 184.028 64.8749 177.676 64.8749C168.648 64.8749 161.858 58.5226 161.858 49.0567C161.858 39.8408 168.398 33.2385 177.307 33.2385C186.216 33.2385 192.506 39.7158 192.506 48.8124C192.494 49.6817 192.369 51.051 192.244 51.676ZM171.568 45.9431L182.966 45.8806C182.341 42.8919 180.352 41.0226 177.42 41.0226C174.489 41.0226 172.187 42.7669 171.568 45.9431Z" fill="white"/>
<path d="M209.898 42.2046C209.898 28.8751 219.176 19.4717 232.693 19.4717C245.898 19.4717 255.364 28.6251 255.364 42.2046C255.364 55.7217 245.898 64.9376 232.693 64.9376C219.176 64.9376 209.898 55.4717 209.898 42.2046ZM244.528 42.2046C244.528 34.7955 239.545 29.1876 232.693 29.1876C225.653 29.1876 220.733 34.9149 220.733 42.2046C220.733 49.4319 225.653 55.2217 232.693 55.2217C239.545 55.2217 244.528 49.5569 244.528 42.2046Z" fill="white"/>
<path d="M290.739 46.068V64.318H280.96V48.4373C280.96 43.4544 279.403 41.9601 276.102 41.9601C272.801 41.9601 270.557 44.2669 270.557 48.9998V64.3237H260.778V33.8635H270.557V37.5396C272.983 34.7385 276.284 33.2441 279.773 33.2441C286.131 33.2385 290.739 36.4146 290.739 46.068Z" fill="white"/>
<path d="M325.744 51.6763H305.068C305.756 55.1024 308.682 56.9717 312.233 56.9717C315.034 56.9717 317.528 55.7274 319.58 53.2956L324.75 59.0854C322.199 62.324 317.523 64.8751 311.17 64.8751C302.136 64.8751 295.352 58.5229 295.352 49.0569C295.352 39.841 301.892 33.2388 310.801 33.2388C319.71 33.2388 326 39.716 326 48.8126C325.994 49.682 325.869 51.0513 325.744 51.6763ZM305.063 45.9433L316.46 45.8808C315.835 42.8922 313.847 41.0229 310.915 41.0229C307.983 41.0229 305.688 42.7672 305.063 45.9433Z" fill="white"/>
<path d="M1.11932 40.3069C0.386364 43.7387 0 47.2955 0 50.9489C0 64.9489 5.64773 77.6251 14.7841 86.8353C18.3636 83.341 20.5909 78.4603 20.5909 73.0739V40.4205C20.5909 40.358 20.642 40.3069 20.7045 40.3069H20.5909H1.11932Z" fill="white"/>
<path d="M40.6306 40.3069C40.6931 40.3069 40.7443 40.358 40.7443 40.4205V73.0682C40.7443 82.3296 37.5625 91.0967 31.7329 98.1421C37.6647 100.557 44.1477 101.892 50.9431 101.892C54.4943 101.892 57.9659 101.528 61.3125 100.835V40.3069H40.7443H40.6306Z" fill="white"/>
<path d="M91.5284 20.142C82.2216 7.90341 67.5057 0 50.9489 0C33.9432 0 18.8864 8.33523 9.63068 21.1364C11.6023 20.4943 13.6989 20.142 15.8864 20.142H91.5284Z" fill="white"/>
<path d="M100.778 40.3069H81.3239V91.8523C93.8068 82.5682 101.892 67.7046 101.892 50.9489C101.898 47.2955 101.511 43.7387 100.778 40.3069Z" fill="white"/>
</svg>
