<svg width="616" height="191" viewBox="0 0 616 191" fill="none" xmlns="http://www.w3.org/2000/svg">
<path d="M304.154 106.747C304.154 120.054 295.228 129.849 277.137 129.849H240V47H271.903C290.711 47 299.756 54.4737 299.756 67.1852C299.756 74.3076 296.662 81.7706 287.497 85.5074V85.7416C298.92 88.7758 304.154 96.4836 304.154 106.747ZM259.513 80.0246H268.917C274.868 80.0246 279.635 77.3417 279.635 72.0931C279.635 67.4301 276.182 64.1617 268.211 64.1617H259.524V80.0246H259.513ZM283.446 104.064C283.446 98.9323 279.515 95.3125 270.948 95.3125H259.524V112.815H270.948C278.321 112.815 283.446 109.898 283.446 104.064Z" fill="#007BC3"/>
<path d="M373.673 106.172H334.157C335.471 112.591 341.063 116.094 347.85 116.094C353.204 116.094 357.971 113.763 361.902 109.206L371.783 120.054C366.907 126.123 357.971 130.903 345.83 130.903C328.576 130.903 315.599 119 315.599 101.264C315.599 83.9957 328.098 71.6248 345.125 71.6248C362.151 71.6248 374.172 83.7615 374.172 100.806C374.15 102.435 373.911 105.001 373.673 106.172ZM334.157 95.4297L355.94 95.3126C354.746 89.7127 350.945 86.2101 345.342 86.2101C339.739 86.2101 335.341 89.4785 334.157 95.4297Z" fill="#007BC3"/>
<path d="M394 89.5955C394 64.6195 411.733 47 437.566 47C462.802 47 480.893 64.1511 480.893 89.5955C480.893 114.923 462.802 132.191 437.566 132.191C411.733 132.191 394 114.454 394 89.5955ZM460.185 89.5955C460.185 75.7129 450.662 65.205 437.566 65.205C424.112 65.205 414.708 75.9364 414.708 89.5955C414.708 103.138 424.112 113.986 437.566 113.986C450.662 113.986 460.185 103.372 460.185 89.5955Z" fill="#007BC3"/>
<path d="M548.5 96.8349V131.031H529.812V101.274C529.812 91.9377 526.836 89.1377 520.527 89.1377C514.218 89.1377 509.929 93.4601 509.929 102.328V131.041H491.241V73.9668H509.929V80.855C514.566 75.6064 520.875 72.8064 527.542 72.8064C539.693 72.7958 548.5 78.747 548.5 96.8349Z" fill="#007BC3"/>
<path d="M615.401 107.343H575.886C577.2 113.763 582.792 117.265 589.579 117.265C594.932 117.265 599.699 114.934 603.619 110.377L613.501 121.226C608.625 127.294 599.688 132.074 587.548 132.074C570.283 132.074 557.317 120.172 557.317 102.435C557.317 85.1668 569.816 72.7959 586.842 72.7959C603.869 72.7959 615.89 84.9326 615.89 101.977C615.879 103.606 615.64 106.172 615.401 107.343ZM575.875 96.6009L597.658 96.4837C596.463 90.8838 592.663 87.3812 587.06 87.3812C581.456 87.3812 577.069 90.6496 575.875 96.6009Z" fill="#007BC3"/>
<path d="M2.1392 75.5244C0.738402 81.9547 0 88.6193 0 95.4648C0 121.697 10.7937 145.449 28.2548 162.706C35.0958 156.159 39.3525 147.014 39.3525 136.921V75.7373C39.3525 75.6202 39.4502 75.5244 39.5697 75.5244H39.3525H2.1392Z" fill="url(#paint0_radial_1055_389)"/>
<path d="M77.6517 75.5244C77.7712 75.5244 77.8689 75.6202 77.8689 75.7373V136.911C77.8689 154.264 71.7879 170.691 60.6467 183.892C71.9834 188.417 84.3733 190.919 97.3605 190.919C104.147 190.919 110.782 190.237 117.178 188.939V75.5244H77.8689H77.6517Z" fill="url(#paint1_radial_1055_389)"/>
<path d="M174.925 37.7409C157.139 14.8089 129.014 0 97.3714 0C64.8708 0 36.0948 15.618 18.4058 39.6039C22.1738 38.4009 26.1807 37.7409 30.3614 37.7409H174.925Z" fill="url(#paint2_radial_1055_389)"/>
<path d="M192.604 75.5244H155.423V172.107C179.28 154.711 194.732 126.86 194.732 95.4648C194.743 88.6193 194.004 81.9547 192.604 75.5244Z" fill="url(#paint3_radial_1055_389)"/>
<defs>
<radialGradient id="paint0_radial_1055_389" cx="0" cy="0" r="1" gradientUnits="userSpaceOnUse" gradientTransform="translate(31.0733 169.974) scale(176.689 173.229)">
<stop offset="0.1792" stop-color="#0F4D92"/>
<stop offset="0.3437" stop-color="#0065A9"/>
<stop offset="0.4879" stop-color="#007BC3"/>
<stop offset="0.6391" stop-color="#B7A16A"/>
<stop offset="0.7065" stop-color="#FDB913"/>
<stop offset="1" stop-color="#ED1A38"/>
</radialGradient>
<radialGradient id="paint1_radial_1055_389" cx="0" cy="0" r="1" gradientUnits="userSpaceOnUse" gradientTransform="translate(31.0733 169.974) scale(176.689 173.229)">
<stop offset="0.1792" stop-color="#0F4D92"/>
<stop offset="0.3437" stop-color="#0065A9"/>
<stop offset="0.4879" stop-color="#007BC3"/>
<stop offset="0.6391" stop-color="#B7A16A"/>
<stop offset="0.7065" stop-color="#FDB913"/>
<stop offset="1" stop-color="#ED1A38"/>
</radialGradient>
<radialGradient id="paint2_radial_1055_389" cx="0" cy="0" r="1" gradientUnits="userSpaceOnUse" gradientTransform="translate(31.0733 169.974) scale(176.689 173.229)">
<stop offset="0.1792" stop-color="#0F4D92"/>
<stop offset="0.3437" stop-color="#0065A9"/>
<stop offset="0.4879" stop-color="#007BC3"/>
<stop offset="0.6391" stop-color="#B7A16A"/>
<stop offset="0.7065" stop-color="#FDB913"/>
<stop offset="1" stop-color="#ED1A38"/>
</radialGradient>
<radialGradient id="paint3_radial_1055_389" cx="0" cy="0" r="1" gradientUnits="userSpaceOnUse" gradientTransform="translate(31.0733 169.974) scale(176.689 173.229)">
<stop offset="0.1792" stop-color="#0F4D92"/>
<stop offset="0.3437" stop-color="#0065A9"/>
<stop offset="0.4879" stop-color="#007BC3"/>
<stop offset="0.6391" stop-color="#B7A16A"/>
<stop offset="0.7065" stop-color="#FDB913"/>
<stop offset="1" stop-color="#ED1A38"/>
</radialGradient>
</defs>
</svg>
