<svg width="301" height="94" viewBox="0 0 301 94" fill="none" xmlns="http://www.w3.org/2000/svg">
<path d="M47 94C72.9574 94 94 72.9574 94 47C94 21.0426 72.9574 0 47 0C21.0426 0 0 21.0426 0 47C0 72.9574 21.0426 94 47 94Z" />
<path d="M112.586 73.9521H115.008V80.2995H121.434V73.9521H123.834V88.1722H121.434V82.4643H115.008V88.1722H112.586V73.9521Z" fill="#007BC3"/>
<path d="M126.46 83.3024C126.46 80.4196 128.504 78.2549 131.586 78.2549C134.59 78.2549 136.712 80.299 136.712 83.3024C136.712 86.2638 134.59 88.3289 131.586 88.3289C128.504 88.3289 126.46 86.1642 126.46 83.3024ZM134.432 83.3024C134.432 81.4993 133.19 80.2781 131.586 80.2781C129.883 80.2781 128.74 81.5989 128.74 83.3024C128.74 84.9639 129.904 86.2848 131.586 86.2848C133.169 86.2848 134.432 85.0635 134.432 83.3024ZM133.091 91.6101C133.091 92.412 132.43 93.0934 131.586 93.0934C130.742 93.0934 130.066 92.412 130.066 91.6101C130.066 90.7872 130.748 90.1058 131.586 90.1058C132.425 90.1058 133.091 90.7924 133.091 91.6101Z" fill="#007BC3"/>
<path d="M138.474 83.3024C138.474 80.299 140.575 78.2549 143.542 78.2549C145.062 78.2549 146.666 78.8734 147.646 80.0789L146.126 81.3997C145.565 80.7393 144.727 80.2781 143.663 80.2781C141.922 80.2781 140.759 81.4993 140.759 83.2814C140.759 85.0845 141.938 86.2848 143.663 86.2848C144.742 86.2848 145.623 85.8026 146.147 85.2417L147.688 86.6045C146.849 87.5637 145.345 88.3289 143.463 88.3289C140.575 88.3289 138.474 86.2848 138.474 83.3024Z" fill="#007BC3"/>
<path d="M154.25 86.9088L155.372 85.2263C156.153 85.9863 156.992 86.3689 158.197 86.3689C159.057 86.3689 159.56 85.9863 159.56 85.4097C159.56 84.9065 158.921 84.6707 157.636 84.2304C156.033 83.6695 154.654 82.9462 154.654 81.0279C154.654 79.424 156.095 78.2656 158.098 78.2656C159.34 78.2656 160.462 78.6063 161.541 79.4869L160.42 81.248C159.639 80.509 158.737 80.205 157.977 80.205C157.537 80.205 156.913 80.4461 156.913 81.0436C156.913 81.5258 157.516 81.8665 158.454 82.2229C160.535 83.0458 161.84 83.4232 161.84 85.3678C161.84 87.0083 160.676 88.3292 158.197 88.3292C156.614 88.3292 155.273 87.8103 154.25 86.9088Z" fill="#007BC3"/>
<path d="M173.193 78.3964V88.1717H171.049V86.8718H171.007C170.305 87.8153 169.246 88.3342 167.904 88.3342C165.2 88.3342 163.177 86.3529 163.177 83.3286C163.177 80.3829 165.2 78.2601 167.883 78.2601C169.126 78.2601 170.184 78.7214 170.908 79.581H170.95V78.4017H173.193V78.3964ZM171.054 83.3443C171.054 81.6042 169.875 80.2781 168.271 80.2781C166.709 80.2781 165.467 81.4574 165.467 83.3443C165.467 85.0688 166.61 86.29 168.271 86.29C169.791 86.2848 171.054 85.1055 171.054 83.3443ZM169.272 77.0336H166.987L169.288 74.1509L171.752 74.1299L169.272 77.0336Z" fill="#007BC3"/>
<path d="M185.149 82.4222V88.1721H182.905V83.004C182.905 80.9389 182.124 80.2784 180.783 80.2784C179.263 80.2784 178.261 81.3372 178.261 83.2608V88.1668H176.018V78.3915H178.261V79.7543H178.282C179.105 78.7741 180.306 78.25 181.569 78.25C183.707 78.2552 185.149 79.4765 185.149 82.4222Z" fill="#007BC3"/>
<path d="M197.241 78.3964V87.1706C197.241 90.132 195.878 92.2757 192.256 92.2757C190.794 92.2757 189.373 91.9141 188.273 91.2537L188.812 89.2934C189.871 89.8542 190.736 90.2525 192.136 90.2525C194.059 90.2525 195.039 89.1518 195.039 87.852V86.8089H195.018C194.279 87.5689 193.257 88.0092 192.036 88.0092C189.31 88.0092 187.271 86.0856 187.271 83.1818C187.271 80.32 189.216 78.2549 191.915 78.2549C193.037 78.2549 194.138 78.6532 194.961 79.4342H195.003V78.3912H197.241V78.3964ZM195.097 83.0822C195.097 81.4207 193.897 80.299 192.335 80.299C190.673 80.299 189.552 81.4626 189.552 83.1242C189.552 84.8643 190.752 85.9493 192.335 85.9493C193.96 85.9441 195.097 84.7438 195.097 83.0822Z" fill="#007BC3"/>
<path d="M205.59 85.0848V80.2993H204.39V78.3967H205.59V75.1522L207.834 74.9111V78.3967H210.696V80.2993H207.834V84.8646C207.834 85.8657 208.133 86.2274 208.777 86.2274C209.16 86.2274 209.7 86.0859 210.219 85.8081L210.8 87.7527C210.219 88.0724 209.6 88.3345 208.316 88.3345C206.633 88.3292 205.59 87.2652 205.59 85.0848Z" fill="#007BC3"/>
<path d="M221.708 78.397V88.1723H219.564V86.8724H219.522C218.82 87.8159 217.761 88.3348 216.419 88.3348C213.715 88.3348 211.691 86.3535 211.691 83.3292C211.691 80.3835 213.715 78.2607 216.398 78.2607C217.64 78.2607 218.699 78.722 219.423 79.5816H219.464V78.4023H221.708V78.397ZM219.569 83.3449C219.569 81.6048 218.39 80.2787 216.786 80.2787C215.224 80.2787 213.982 81.458 213.982 83.3449C213.982 85.0694 215.125 86.2906 216.786 86.2906C218.306 86.2854 219.569 85.1061 219.569 83.3449ZM218.227 91.6107C218.227 92.4126 217.567 93.094 216.723 93.094C215.885 93.094 215.203 92.4126 215.203 91.6107C215.203 90.7878 215.885 90.1064 216.723 90.1064C217.562 90.1116 218.227 90.793 218.227 91.6107Z" fill="#007BC3"/>
<path d="M223.951 83.3024C223.951 80.4196 225.995 78.2549 229.077 78.2549C232.081 78.2549 234.203 80.299 234.203 83.3024C234.203 86.2638 232.081 88.3289 229.077 88.3289C225.995 88.3289 223.951 86.1642 223.951 83.3024ZM231.923 83.3024C231.923 81.4993 230.681 80.2781 229.077 80.2781C227.374 80.2781 226.231 81.5989 226.231 83.3024C226.231 84.9639 227.395 86.2848 229.077 86.2848C230.66 86.2848 231.923 85.0635 231.923 83.3024Z" fill="#007BC3"/>
<path d="M143.788 47.954C143.788 54.5058 139.48 59.328 130.748 59.328H112.822V18.5391H128.221C137.3 18.5391 141.666 22.2186 141.666 28.4768C141.666 31.9834 140.172 35.6576 135.748 37.4974V37.6127C141.262 39.1065 143.788 42.9013 143.788 47.954ZM122.241 34.798H126.78C129.652 34.798 131.953 33.4772 131.953 30.8931C131.953 28.5974 130.287 26.9883 126.439 26.9883H122.246V34.798H122.241ZM133.793 46.6332C133.793 44.1068 131.896 42.3247 127.76 42.3247H122.246V50.9417H127.76C131.319 50.9417 133.793 49.5055 133.793 46.6332Z" fill="#007BC3"/>
<path d="M177.344 47.6716H158.271C158.905 50.8321 161.604 52.5566 164.88 52.5566C167.464 52.5566 169.765 51.4087 171.663 49.1654L176.432 54.5064C174.079 57.494 169.765 59.8474 163.905 59.8474C155.577 59.8474 149.313 53.9875 149.313 45.2553C149.313 36.7536 155.346 30.6631 163.564 30.6631C171.783 30.6631 177.585 36.6383 177.585 45.0299C177.575 45.8318 177.46 47.095 177.344 47.6716ZM158.271 42.3829L168.785 42.3253C168.208 39.5683 166.374 37.8439 163.669 37.8439C160.965 37.8439 158.842 39.453 158.271 42.3829Z" fill="#007BC3"/>
<path d="M193.629 38.9329C193.629 26.6365 202.188 17.9619 214.658 17.9619C226.839 17.9619 235.571 26.4059 235.571 38.9329C235.571 51.4023 226.839 59.9039 214.658 59.9039C202.188 59.9039 193.629 51.1717 193.629 38.9329ZM225.576 38.9329C225.576 32.0981 220.979 26.9248 214.658 26.9248C208.164 26.9248 203.625 32.2081 203.625 38.9329C203.625 45.6 208.164 50.9411 214.658 50.9411C220.979 50.9411 225.576 45.7153 225.576 38.9329Z" fill="#007BC3"/>
<path d="M268.204 42.4969V59.3324H259.184V44.6826C259.184 40.0859 257.747 38.7074 254.702 38.7074C251.657 38.7074 249.586 40.8354 249.586 45.2015V59.3377H240.566V31.2383H249.586V34.6295C251.825 32.0455 254.87 30.667 258.088 30.667C263.953 30.6618 268.204 33.5917 268.204 42.4969Z" fill="#007BC3"/>
<path d="M300.497 47.6696H281.423C282.057 50.8302 284.757 52.5546 288.033 52.5546C290.617 52.5546 292.918 51.4068 294.81 49.1634L299.579 54.5044C297.226 57.4921 292.912 59.8455 287.052 59.8455C278.718 59.8455 272.46 53.9855 272.46 45.2533C272.46 36.7517 278.493 30.6611 286.712 30.6611C294.93 30.6611 300.733 36.6364 300.733 45.0279C300.727 45.8299 300.612 47.0931 300.497 47.6696ZM281.418 42.381L291.932 42.3233C291.356 39.5663 289.521 37.8419 286.817 37.8419C284.112 37.8419 281.994 39.451 281.418 42.381Z" fill="#007BC3"/>
<path d="M1.03256 37.1826C0.356418 40.3484 0 43.6296 0 46.9998C0 59.9147 5.20999 71.6084 13.6382 80.1048C16.9403 76.8813 18.995 72.3789 18.995 67.41V37.2874C18.995 37.2298 19.0422 37.1826 19.0998 37.1826H18.995H1.03256Z" fill="url(#paint0_radial_1217_62)"/>
<path d="M37.4818 37.1826C37.5394 37.1826 37.5866 37.2298 37.5866 37.2874V67.4048C37.5866 75.9483 34.6514 84.0359 29.2737 90.5352C34.7457 92.7628 40.7262 93.9946 46.995 93.9946C50.2709 93.9946 53.4734 93.6591 56.5606 93.0197V37.1826H37.5866H37.4818Z" fill="url(#paint1_radial_1217_62)"/>
<path d="M84.4344 18.5809C75.8489 7.29084 62.2736 0 47 0C31.3124 0 17.4226 7.68919 8.88428 19.4982C10.7031 18.9059 12.6371 18.5809 14.6551 18.5809H84.4344Z" fill="url(#paint2_radial_1217_62)"/>
<path d="M92.9677 37.1826H75.021V84.733C86.5364 76.1685 93.995 62.4568 93.995 46.9998C94.0003 43.6296 93.6438 40.3484 92.9677 37.1826Z" fill="url(#paint3_radial_1217_62)"/>
<defs>
<radialGradient id="paint0_radial_1217_62" cx="0" cy="0" r="1" gradientUnits="userSpaceOnUse" gradientTransform="translate(14.9987 83.6829) scale(85.2856 85.2856)">
<stop offset="0.1792" stop-color="#0F4D92"/>
<stop offset="0.3437" stop-color="#0065A9"/>
<stop offset="0.4879" stop-color="#007BC3"/>
<stop offset="0.6391" stop-color="#B7A16A"/>
<stop offset="0.7065" stop-color="#FDB913"/>
<stop offset="1" stop-color="#ED1A38"/>
</radialGradient>
<radialGradient id="paint1_radial_1217_62" cx="0" cy="0" r="1" gradientUnits="userSpaceOnUse" gradientTransform="translate(14.9989 83.6829) scale(85.2856 85.2856)">
<stop offset="0.1792" stop-color="#0F4D92"/>
<stop offset="0.3437" stop-color="#0065A9"/>
<stop offset="0.4879" stop-color="#007BC3"/>
<stop offset="0.6391" stop-color="#B7A16A"/>
<stop offset="0.7065" stop-color="#FDB913"/>
<stop offset="1" stop-color="#ED1A38"/>
</radialGradient>
<radialGradient id="paint2_radial_1217_62" cx="0" cy="0" r="1" gradientUnits="userSpaceOnUse" gradientTransform="translate(14.9987 83.6831) scale(85.2856)">
<stop offset="0.1792" stop-color="#0F4D92"/>
<stop offset="0.3437" stop-color="#0065A9"/>
<stop offset="0.4879" stop-color="#007BC3"/>
<stop offset="0.6391" stop-color="#B7A16A"/>
<stop offset="0.7065" stop-color="#FDB913"/>
<stop offset="1" stop-color="#ED1A38"/>
</radialGradient>
<radialGradient id="paint3_radial_1217_62" cx="0" cy="0" r="1" gradientUnits="userSpaceOnUse" gradientTransform="translate(14.999 83.6829) scale(85.2856 85.2856)">
<stop offset="0.1792" stop-color="#0F4D92"/>
<stop offset="0.3437" stop-color="#0065A9"/>
<stop offset="0.4879" stop-color="#007BC3"/>
<stop offset="0.6391" stop-color="#B7A16A"/>
<stop offset="0.7065" stop-color="#FDB913"/>
<stop offset="1" stop-color="#ED1A38"/>
</radialGradient>
</defs>
</svg>
