<svg width="346" height="344" viewBox="0 0 346 344" fill="none" xmlns="http://www.w3.org/2000/svg">
<path d="M5.43778 281.232C15.5452 305.791 39.1677 317.404 54.2668 324.83C113.778 354.092 204.19 350.658 269.276 297.278C284.508 284.786 359.581 219.343 342.108 130.725C326.666 52.3883 248.95 6.94278 183.5 0.905149C129.274 -4.09935 58.4602 15.6748 33.4316 63.4676C17.6916 93.5194 36.5995 103.061 23.7254 171.157C12.58 230.091 -6.92351 251.192 5.43778 281.232Z" fill="#CADDFF"/>
<path d="M125.255 66.6453H200.961C203.165 66.6453 204.952 64.8601 204.952 62.6574V13.3522C204.952 11.1495 203.165 9.36426 200.961 9.36426H125.255C123.05 9.36426 121.264 11.1495 121.264 13.3522V62.6574C121.264 64.856 123.05 66.6453 125.255 66.6453Z" fill="#99B9FF"/>
<path d="M200.96 67.3231H174.579C174.236 67.3231 173.959 67.0462 173.959 66.7032C173.959 66.3602 174.236 66.0833 174.579 66.0833H200.96C202.817 66.0833 204.331 64.5708 204.331 62.7153V13.348C204.331 11.4925 202.817 9.98 200.96 9.98H186.027C185.683 9.98 185.406 9.70312 185.406 9.36011C185.406 9.01711 185.683 8.74023 186.027 8.74023H200.96C203.504 8.74023 205.571 10.8065 205.571 13.348V62.7153C205.571 65.2568 203.504 67.3231 200.96 67.3231Z" fill="black"/>
<path d="M128.968 67.3231H125.254C122.711 67.3231 120.643 65.2568 120.643 62.7153V13.348C120.643 10.8065 122.711 8.74023 125.254 8.74023H175.961C176.304 8.74023 176.581 9.01711 176.581 9.36011C176.581 9.70312 176.304 9.98 175.961 9.98H125.254C123.397 9.98 121.884 11.4925 121.884 13.348V62.7153C121.884 64.5708 123.397 66.0833 125.254 66.0833H128.968C129.311 66.0833 129.588 66.3602 129.588 66.7032C129.588 67.0462 129.307 67.3231 128.968 67.3231Z" fill="black"/>
<path d="M163.108 59.9179C162.764 59.9179 162.487 59.641 162.487 59.298V17.1834C162.487 16.8404 162.764 16.5635 163.108 16.5635C163.451 16.5635 163.728 16.8404 163.728 17.1834V59.3022C163.728 59.641 163.451 59.9179 163.108 59.9179Z" fill="white"/>
<path d="M161.002 19.6502L163.107 17.5467L165.212 19.6502V17.865L163.107 15.7656L161.002 17.865V19.6502Z" fill="white"/>
<path d="M196.262 43.0816H131.371C131.028 43.0816 130.75 42.8047 130.75 42.4617C130.75 42.1187 131.028 41.8418 131.371 41.8418H196.262C196.606 41.8418 196.883 42.1187 196.883 42.4617C196.883 42.8047 196.606 43.0816 196.262 43.0816Z" fill="white"/>
<path d="M133.84 40.3584L131.735 42.4619L133.84 44.5612H132.053L129.952 42.4619L132.053 40.3584H133.84Z" fill="white"/>
<path d="M162.959 57.0373C155.287 57.0373 149.051 50.8013 149.051 43.1396V35.263C149.051 28.2831 143.368 22.605 136.383 22.605H132.442C132.099 22.605 131.822 22.3281 131.822 21.9851C131.822 21.6421 132.099 21.3652 132.442 21.3652H136.383C144.055 21.3652 150.291 27.6012 150.291 35.263V43.1396C150.291 50.1194 155.974 55.7975 162.959 55.7975C169.944 55.7975 175.626 50.1194 175.626 43.1396V35.263C175.626 27.5971 181.867 21.3652 189.534 21.3652H196.258C196.602 21.3652 196.879 21.6421 196.879 21.9851C196.879 22.3281 196.602 22.605 196.258 22.605H189.534C182.549 22.605 176.867 28.2831 176.867 35.263V43.1396C176.871 50.8013 170.63 57.0373 162.959 57.0373Z" fill="#0F4F90"/>
<path d="M241.556 98.6928C244.653 99.6557 246.233 95.2215 251.969 94.5313C257.556 93.8577 258.871 97.7299 264.885 97.8622C271.733 98.0109 279.425 93.1924 279.88 88.2871C280.277 84.014 275.009 81.5717 276.162 78.6665C277.225 75.9928 281.882 77.6127 286.559 74.1497C290.575 71.1742 293.35 65.3804 291.96 61.2272C290.902 58.07 288.288 58.4088 286.96 54.7763C285.554 50.9248 287.957 49.3214 286.849 45.3913C285.703 41.3456 281.543 37.4527 277.523 37.4114C273.623 37.3742 272.986 40.9861 268.636 41.2464C263.648 41.5481 261.634 36.9734 258.64 38.1263C255.406 39.3661 256.766 45.0607 252.474 47.4948C250.687 48.5073 250.178 47.7056 246.56 48.7387C244.715 49.2635 241.175 50.276 239 52.6026C234.831 57.0575 238.706 63.1117 235.104 66.0168C232.42 68.1782 229.492 65.4465 225.522 67.8889C223.07 69.3973 220.51 72.7074 221.06 75.5961C221.924 80.1418 229.554 78.7616 234.893 85.1629C239.786 91.0311 237.834 97.5357 241.556 98.6928Z" fill="black"/>
<path d="M293.433 148.932C293.119 148.932 292.846 148.692 292.817 148.374L291.919 139.27C291.886 138.931 292.135 138.625 292.478 138.592C292.821 138.563 293.123 138.807 293.156 139.15L294.053 148.254C294.087 148.593 293.838 148.899 293.495 148.932C293.474 148.932 293.454 148.932 293.433 148.932Z" fill="black"/>
<path d="M133.782 65.7816C135.176 64.4633 136.805 64.4219 138.712 64.6575L139.386 64.236C140.858 63.3144 142.641 63.0293 144.328 63.4467L157.616 66.7072C158.174 66.8436 158.679 66.3477 158.55 65.7898C158.298 64.6782 157.918 63.0045 157.624 61.6821C157.322 60.3307 157.86 59.5373 158.306 59.1282C158.563 58.8926 158.96 58.9215 159.191 59.1819C160.664 60.868 166.094 67.3106 165.92 70.5009C165.721 74.1871 163.19 84.9193 163.19 84.9193H151.9L154.113 77.6915C154.27 77.1832 153.997 76.646 153.497 76.4683L137.368 70.7736C137.078 70.6703 136.983 70.3108 137.182 70.0753C137.541 69.6579 138.108 69.0587 138.724 68.6413L134.142 66.8312C133.724 66.6659 133.555 66.17 133.782 65.7816Z" fill="white"/>
<path d="M163.186 85.5389H151.896C151.698 85.5389 151.516 85.4439 151.396 85.2869C151.28 85.1298 151.243 84.9232 151.301 84.7372L153.513 77.5094C153.571 77.3193 153.472 77.121 153.282 77.0548L137.157 71.3561C136.826 71.2404 136.578 70.9676 136.487 70.6329C136.396 70.2981 136.479 69.9386 136.706 69.67C136.917 69.422 137.194 69.1204 137.508 68.827L133.91 67.4054C133.542 67.2607 133.257 66.9632 133.129 66.5871C133.001 66.2111 133.042 65.8019 133.245 65.4631C133.274 65.4135 133.311 65.368 133.352 65.3308C134.973 63.7977 136.876 63.8225 138.563 64.0167L139.051 63.7109C140.656 62.7067 142.632 62.3926 144.469 62.8431L157.756 66.1036C157.822 66.1202 157.872 66.0912 157.897 66.0664C157.922 66.0416 157.951 65.9962 157.938 65.9301C157.686 64.8143 157.306 63.1406 157.012 61.8223C156.631 60.1156 157.396 59.1196 157.884 58.6733C158.133 58.4502 158.451 58.3386 158.786 58.3551C159.121 58.3758 159.431 58.5246 159.65 58.7808C161.78 61.219 166.71 67.2442 166.532 70.5378C166.334 74.2365 163.889 84.6256 163.786 85.0637C163.724 85.3406 163.472 85.5389 163.186 85.5389ZM152.732 84.2992H162.69C163.178 82.1833 165.122 73.6166 165.291 70.4676C165.415 68.1451 161.975 63.3266 158.716 59.5907C158.203 60.0577 158.038 60.7148 158.224 61.5496C158.517 62.8678 158.898 64.5415 159.15 65.6532C159.257 66.1243 159.117 66.6119 158.77 66.9508C158.422 67.2938 157.934 67.426 157.463 67.3103L144.175 64.0498C142.661 63.6778 141.032 63.9382 139.709 64.7647L139.039 65.1862C138.919 65.2606 138.774 65.2936 138.633 65.2771C136.818 65.054 135.453 65.1201 134.299 66.1532C134.299 66.1697 134.303 66.1821 134.303 66.1945C134.312 66.2152 134.328 66.2441 134.365 66.2607L138.948 68.0707C139.163 68.1534 139.312 68.3517 139.336 68.579C139.361 68.8063 139.258 69.0295 139.068 69.1617C138.6 69.4758 138.158 69.918 137.827 70.2857L153.695 75.8936C154.51 76.1829 154.952 77.0548 154.696 77.8814L152.732 84.2992Z" fill="black"/>
<path d="M152.516 72.6209C152.467 72.6209 152.417 72.6168 152.363 72.6044L140.908 69.7406C140.577 69.6579 140.374 69.3191 140.457 68.9885C140.54 68.6579 140.879 68.4554 141.21 68.538L152.665 71.4019C152.996 71.4845 153.199 71.8234 153.116 72.154C153.046 72.435 152.793 72.6209 152.516 72.6209Z" fill="black"/>
<path d="M153.683 69.2696C153.633 69.2696 153.584 69.2655 153.53 69.2531L142.074 66.3851C141.743 66.3025 141.541 65.9636 141.623 65.633C141.706 65.3024 142.045 65.0999 142.376 65.1825L153.832 68.0505C154.163 68.1332 154.365 68.472 154.283 68.8026C154.212 69.0837 153.96 69.2696 153.683 69.2696Z" fill="black"/>
<path d="M304.665 115.747C301.455 115.942 296.079 116.206 292.812 116.363C291.298 116.438 290.161 117.768 290.327 119.277L292.535 139.212C292.535 139.212 287.49 136.943 281.964 130.368C276.439 123.793 271.464 110.276 259.227 109.797C251.444 109.491 231.907 110.739 218.731 111.681C211.961 112.169 205.398 114.239 199.616 117.793C195.419 120.376 189.182 122.682 181.296 121.248C166.817 118.615 160.279 106.23 166.304 86.2287C166.854 84.398 165.49 82.5508 163.575 82.5508H151.296C149.964 82.5508 148.79 83.431 148.414 84.708C145.614 94.2417 136.267 132.67 163.182 144.766C179.067 151.907 195.762 151.085 195.762 151.085L189.166 211.292C188.463 217.726 191.626 223.974 197.247 227.194C203.144 230.574 212.362 233.674 226.076 233.223C237.527 232.843 246.423 230.818 252.995 228.512C261.981 225.355 268.458 217.466 269.839 208.048C271.324 197.906 273.04 182.174 273.321 162.42C273.321 162.42 282.626 172.603 300.326 169.305C322.191 165.235 311.604 128.376 308.221 118.153C307.725 116.636 306.265 115.652 304.665 115.747Z" fill="#5479F7"/>
<path d="M223.392 233.889C212.966 233.889 204.079 231.822 196.941 227.735C191.114 224.396 187.818 217.916 188.554 211.23L195.072 151.73C191.676 151.783 176.904 151.622 162.93 145.341C151.255 140.093 144.899 129.488 144.038 113.818C143.352 101.362 146.454 89.1962 147.822 84.543C148.273 83.0098 149.7 81.9395 151.296 81.9395H163.575C164.683 81.9395 165.696 82.4478 166.358 83.3363C167.02 84.2289 167.218 85.3488 166.896 86.415C163.695 97.0356 163.984 105.879 167.727 111.991C170.547 116.595 175.146 119.504 181.403 120.645C189.311 122.079 195.493 119.603 199.29 117.269C205.088 113.706 211.792 111.557 218.686 111.066C232.978 110.041 251.618 108.879 259.252 109.177C268.83 109.553 274.152 117.719 278.433 124.277C279.814 126.393 281.117 128.393 282.44 129.968C286.377 134.654 290.074 137.117 291.791 138.109L289.71 119.339C289.611 118.45 289.888 117.554 290.467 116.872C291.055 116.186 291.878 115.781 292.779 115.735C296.489 115.558 301.555 115.306 304.623 115.12C306.501 115 308.221 116.173 308.809 117.955C311.906 127.311 318.333 150.395 311.112 162.619C308.776 166.574 305.186 169.029 300.442 169.909C297.965 170.372 295.649 170.57 293.49 170.57C283.027 170.57 276.369 165.896 273.921 163.813C273.573 183.182 271.853 198.56 270.455 208.135C269.037 217.826 262.428 225.855 253.206 229.095C245.17 231.913 236.055 233.513 226.101 233.839C225.191 233.876 224.285 233.889 223.392 233.889ZM195.766 150.469C195.936 150.469 196.101 150.54 196.217 150.664C196.341 150.796 196.403 150.973 196.383 151.155L189.786 211.362C189.108 217.561 192.16 223.566 197.557 226.661C205.1 230.984 214.687 232.984 226.06 232.608C235.882 232.281 244.877 230.711 252.792 227.93C261.58 224.847 267.875 217.193 269.227 207.961C270.658 198.196 272.42 182.368 272.705 162.412C272.709 162.16 272.866 161.933 273.106 161.842C273.346 161.751 273.611 161.817 273.784 162.003C273.875 162.102 283.085 171.888 300.219 168.698C304.595 167.884 307.903 165.627 310.049 161.995C317.212 149.878 310.012 125.525 307.638 118.351C307.225 117.103 306.025 116.281 304.702 116.368C301.625 116.554 296.555 116.806 292.841 116.983C292.283 117.012 291.774 117.26 291.41 117.686C291.046 118.112 290.881 118.653 290.943 119.211L293.151 139.146C293.176 139.369 293.081 139.584 292.899 139.716C292.717 139.849 292.481 139.869 292.279 139.783C292.068 139.688 287.039 137.382 281.489 130.774C280.12 129.141 278.797 127.112 277.391 124.963C273.052 118.314 268.135 110.772 259.202 110.425C251.626 110.127 233.036 111.289 218.773 112.309C212.077 112.789 205.568 114.872 199.939 118.335C195.961 120.781 189.476 123.381 181.18 121.872C174.654 120.686 169.638 117.496 166.668 112.648C162.735 106.226 162.4 97.0315 165.709 86.0637C165.916 85.3777 165.787 84.6545 165.361 84.0801C164.935 83.5098 164.286 83.1833 163.575 83.1833H151.296C150.246 83.1833 149.307 83.8859 149.009 84.8942C147.661 89.4855 144.601 101.49 145.275 113.756C146.11 128.926 152.223 139.175 163.438 144.213C179.005 151.209 195.568 150.482 195.733 150.478C195.746 150.469 195.754 150.469 195.766 150.469Z" fill="black"/>
<path d="M292.957 103.156L294.392 101.569V90.8659C294.392 89.8245 295.236 88.9814 296.278 88.9814C297.32 88.9814 298.164 89.8245 298.164 90.8659V102.387L308.205 104.574V110.454C308.205 113.016 306.716 115.347 304.388 116.421L303.887 116.653C300.876 118.046 297.357 117.785 294.582 115.967C293.242 115.087 292.357 113.665 292.159 112.078L291.584 107.495C291.394 105.917 291.89 104.334 292.957 103.156Z" fill="white"/>
<path d="M299.847 118.17C297.891 118.17 295.947 117.603 294.243 116.483C292.75 115.504 291.766 113.925 291.543 112.153L290.968 107.57C290.749 105.813 291.303 104.053 292.49 102.739L293.764 101.325V90.8617C293.764 89.4815 294.888 88.3574 296.27 88.3574C297.651 88.3574 298.776 89.4815 298.776 90.8617V101.883L308.329 103.962C308.614 104.024 308.817 104.276 308.817 104.569V110.45C308.817 113.244 307.179 115.806 304.64 116.979L304.14 117.211C302.771 117.855 301.307 118.17 299.847 118.17ZM293.416 103.569C292.473 104.615 292.031 106.016 292.204 107.417L292.779 112C292.957 113.409 293.739 114.665 294.93 115.446C297.544 117.161 300.794 117.401 303.635 116.091L304.136 115.859C306.236 114.888 307.593 112.768 307.593 110.454V105.074L298.04 102.995C297.754 102.933 297.552 102.681 297.552 102.387V90.8659C297.552 90.1675 296.985 89.6013 296.286 89.6013C295.587 89.6013 295.021 90.1675 295.021 90.8659V101.569C295.021 101.722 294.963 101.871 294.859 101.982L293.416 103.569Z" fill="black"/>
<path d="M299.719 105.416H300.947C301.72 105.416 302.349 104.788 302.349 104.015V99.7134C302.349 98.9406 301.72 98.3125 300.947 98.3125H300.091C299.111 98.3125 298.312 99.1059 298.312 100.089V104.015C298.317 104.788 298.945 105.416 299.719 105.416Z" fill="white"/>
<path d="M300.947 106.036H299.719C298.602 106.036 297.696 105.131 297.696 104.015V100.089C297.696 98.7668 298.772 97.6924 300.095 97.6924H300.951C302.068 97.6924 302.973 98.5974 302.973 99.7132V104.015C302.969 105.131 302.063 106.036 300.947 106.036ZM300.095 98.9321C299.458 98.9321 298.937 99.4487 298.937 100.089V104.015C298.937 104.445 299.288 104.796 299.719 104.796H300.947C301.377 104.796 301.728 104.445 301.728 104.015V99.7132C301.728 99.2834 301.377 98.9321 300.947 98.9321H300.095Z" fill="black"/>
<path d="M303.751 106.301H303.999C304.773 106.301 305.401 105.673 305.401 104.9V100.71C305.401 99.9367 304.773 99.3086 303.999 99.3086H303.751C302.978 99.3086 302.349 99.9367 302.349 100.71V104.9C302.349 105.673 302.978 106.301 303.751 106.301Z" fill="white"/>
<path d="M303.999 106.92H303.751C302.634 106.92 301.729 106.015 301.729 104.9V100.709C301.729 99.5935 302.634 98.6885 303.751 98.6885H303.999C305.116 98.6885 306.021 99.5935 306.021 100.709V104.9C306.021 106.011 305.116 106.92 303.999 106.92ZM303.751 99.9282C303.321 99.9282 302.969 100.28 302.969 100.709V104.9C302.969 105.329 303.321 105.681 303.751 105.681H303.999C304.429 105.681 304.781 105.329 304.781 104.9V100.709C304.781 100.28 304.429 99.9282 303.999 99.9282H303.751Z" fill="black"/>
<path d="M306.803 107.404C307.577 107.404 308.205 106.776 308.205 106.003V101.854C308.205 101.081 307.577 100.453 306.803 100.453C306.03 100.453 305.401 101.081 305.401 101.854V106.003C305.401 106.776 306.03 107.404 306.803 107.404Z" fill="white"/>
<path d="M306.803 108.024C305.686 108.024 304.781 107.119 304.781 106.003V101.854C304.781 100.738 305.686 99.833 306.803 99.833C307.92 99.833 308.825 100.738 308.825 101.854V106.003C308.825 107.119 307.92 108.024 306.803 108.024ZM306.803 101.073C306.373 101.073 306.021 101.424 306.021 101.854V106.003C306.021 106.433 306.373 106.784 306.803 106.784C307.233 106.784 307.585 106.433 307.585 106.003V101.854C307.585 101.424 307.237 101.073 306.803 101.073Z" fill="black"/>
<path d="M293.433 106.037C293.238 106.037 293.048 105.946 292.928 105.78C292.73 105.503 292.792 105.115 293.069 104.917L297.357 101.834C297.634 101.635 298.023 101.697 298.222 101.974C298.42 102.251 298.358 102.64 298.081 102.838L293.792 105.921C293.685 105.999 293.561 106.037 293.433 106.037Z" fill="black"/>
<path d="M301.055 113.285C301.046 113.285 301.034 113.285 301.026 113.285C300.682 113.268 300.418 112.979 300.434 112.64C300.6 108.892 297.589 108.011 297.556 108.003C297.345 107.945 297.18 107.776 297.122 107.561C297.068 107.346 297.126 107.119 297.283 106.966L299.28 104.978C299.524 104.734 299.917 104.739 300.157 104.978C300.397 105.222 300.397 105.615 300.157 105.854L298.797 107.21C299.963 107.863 301.82 109.421 301.671 112.694C301.658 113.028 301.385 113.285 301.055 113.285Z" fill="black"/>
<path d="M254.745 241.042C254.745 241.042 258.599 192.382 247.474 176.86L211.209 175.335C211.209 175.335 198.161 191.287 199.584 240.084L254.745 241.042Z" fill="black"/>
<path d="M257.288 109.715L261.953 175.505C262.164 178.476 260.092 181.129 257.152 181.637C247.822 183.245 227.164 185.716 206.23 180.972C203.869 180.439 202.355 178.129 202.843 175.761L215.932 111.979C215.932 111.979 239.538 108.644 257.288 109.715Z" fill="white"/>
<path d="M232.462 184.364C224.31 184.364 215.245 183.65 206.093 181.575C203.372 180.959 201.676 178.347 202.235 175.632L215.324 111.851C215.378 111.595 215.584 111.4 215.845 111.363C216.081 111.33 239.715 108.032 257.325 109.094C257.635 109.111 257.883 109.359 257.908 109.669L262.573 175.459C262.809 178.765 260.522 181.682 257.259 182.244C251.552 183.228 242.734 184.364 232.462 184.364ZM216.453 112.533L203.45 175.884C203.029 177.934 204.311 179.901 206.37 180.368C226.85 185.009 246.911 182.773 257.048 181.025C259.682 180.571 261.527 178.219 261.336 175.55L256.709 110.301C240.605 109.417 219.707 112.095 216.453 112.533Z" fill="black"/>
<path d="M244.004 174.425C243.942 174.425 243.88 174.417 243.822 174.397C225.166 168.632 216.345 147.316 216.258 147.101C216.13 146.783 216.283 146.423 216.601 146.295C216.92 146.167 217.28 146.32 217.408 146.638C217.495 146.849 226.101 167.627 244.186 173.215C244.513 173.314 244.695 173.661 244.595 173.992C244.513 174.256 244.269 174.425 244.004 174.425Z" fill="black"/>
<path d="M226.8 87.0593C227.879 85.7617 228.611 84.212 228.922 82.5548C229.476 79.6042 230.075 76.9883 230.075 76.9883C234.488 80.6456 239.463 78.1289 239.463 78.1289C243.615 81.3564 242.867 85.898 242.867 85.898C242.867 85.898 246.729 85.4765 246.461 87.9684C246.192 90.4397 242.466 91.0596 242.412 91.072L246.949 109.379C247.234 110.524 246.518 111.685 245.365 111.937C238.38 113.462 234 112.888 231.787 112.301C231.142 112.127 230.944 111.33 231.419 110.859C233.855 108.453 234.269 101.585 234.256 97.0724C232.003 97.5766 229.922 97.1261 228.893 95.0557C228.156 93.5763 227.958 92.0183 228.045 89.6793C228.057 89.2619 226.535 87.5345 226.8 87.0593Z" fill="white"/>
<path d="M237.11 113.532C234.72 113.532 232.917 113.239 231.622 112.892C231.105 112.755 230.717 112.367 230.58 111.855C230.444 111.334 230.593 110.792 230.977 110.412C232.64 108.772 233.574 104.309 233.628 97.8081C231.167 98.1428 229.302 97.275 228.33 95.3285C227.586 93.8326 227.33 92.2581 227.416 89.7248C227.354 89.5802 227.135 89.2454 226.986 89.0181C226.411 88.1297 225.915 87.3651 226.258 86.7576C226.275 86.7246 226.3 86.6957 226.32 86.6667C227.33 85.4559 228.016 83.993 228.306 82.4433C228.856 79.5133 229.459 76.8809 229.463 76.852C229.513 76.6412 229.666 76.4718 229.869 76.4056C230.071 76.3354 230.299 76.3767 230.464 76.5172C234.517 79.8728 239.128 77.6041 239.174 77.5834C239.389 77.476 239.645 77.5008 239.836 77.6454C243.247 80.2944 243.57 83.7492 243.529 85.2534C244.364 85.2575 245.683 85.4022 246.461 86.1832C246.936 86.6585 247.143 87.299 247.065 88.0429C246.821 90.2744 244.36 91.2125 243.152 91.539L247.536 109.235C247.714 109.954 247.598 110.697 247.205 111.33C246.816 111.958 246.204 112.388 245.485 112.549C242.135 113.268 239.364 113.532 237.11 113.532ZM234.252 96.4443C234.393 96.4443 234.53 96.4898 234.641 96.5807C234.79 96.6964 234.873 96.8741 234.873 97.0642C234.885 102.184 234.368 108.809 231.85 111.293C231.75 111.388 231.767 111.495 231.779 111.536C231.796 111.594 231.833 111.664 231.941 111.693C233.889 112.214 238.206 112.855 245.224 111.326C245.613 111.239 245.948 111.007 246.159 110.664C246.374 110.321 246.436 109.916 246.341 109.52L241.804 91.2125C241.763 91.0431 241.792 90.8654 241.891 90.7207C241.986 90.5761 242.139 90.4769 242.313 90.4521C242.346 90.448 245.63 89.857 245.84 87.8941C245.894 87.4106 245.725 87.1792 245.596 87.0469C244.989 86.4394 243.429 86.456 242.933 86.5056C242.743 86.5262 242.548 86.456 242.416 86.3155C242.284 86.175 242.222 85.9807 242.255 85.7906C242.28 85.6253 242.85 81.7697 239.372 78.8438C238.161 79.3439 234.257 80.6002 230.477 78.0545C230.253 79.0711 229.885 80.8068 229.538 82.6623C229.224 84.3484 228.492 85.9394 227.425 87.2783C227.524 87.5387 227.851 88.0429 228.037 88.3321C228.471 89.0016 228.678 89.3405 228.665 89.6876C228.578 92.0349 228.798 93.4565 229.447 94.7665C230.46 96.7956 232.549 96.808 234.12 96.4526C234.162 96.4526 234.207 96.4443 234.252 96.4443Z" fill="black"/>
<path d="M234.253 97.6879C233.959 97.6879 233.698 97.4813 233.645 97.1796C233.583 96.8449 233.806 96.5184 234.141 96.4564C235.733 96.163 238.099 94.5596 238.119 94.543C238.401 94.3488 238.789 94.4232 238.98 94.7042C239.174 94.9852 239.099 95.3737 238.818 95.5638C238.711 95.634 236.213 97.3284 234.364 97.6714C234.327 97.6838 234.29 97.6879 234.253 97.6879Z" fill="black"/>
<path d="M338.047 107.215H314.702C314.359 107.215 314.082 106.938 314.082 106.595C314.082 106.252 314.359 105.975 314.702 105.975H338.047C339.904 105.975 341.418 104.462 341.418 102.607V53.2396C341.418 51.3841 339.904 49.8716 338.047 49.8716H323.114C322.77 49.8716 322.493 49.5947 322.493 49.2517C322.493 48.9087 322.77 48.6318 323.114 48.6318H338.047C340.591 48.6318 342.658 50.6981 342.658 53.2396V102.607C342.658 105.148 340.591 107.215 338.047 107.215Z" fill="white"/>
<path d="M286.526 107.215H262.341C259.798 107.215 257.73 105.148 257.73 102.607V53.2396C257.73 50.6981 259.798 48.6318 262.341 48.6318H313.048C313.391 48.6318 313.668 48.9087 313.668 49.2517C313.668 49.5947 313.391 49.8716 313.048 49.8716H262.341C260.484 49.8716 258.971 51.3841 258.971 53.2396V102.607C258.971 104.462 260.484 105.975 262.341 105.975H286.526C286.869 105.975 287.146 106.252 287.146 106.595C287.146 106.938 286.869 107.215 286.526 107.215Z" fill="white"/>
<path d="M284.975 99.3755H275.079C274.736 99.3755 274.458 99.0986 274.458 98.7556C274.458 98.4126 274.736 98.1357 275.079 98.1357H284.975C285.319 98.1357 285.596 98.4126 285.596 98.7556C285.596 99.0986 285.314 99.3755 284.975 99.3755Z" fill="#5479F7"/>
<path d="M329.615 99.3755H309.574C309.231 99.3755 308.954 99.0986 308.954 98.7556C308.954 98.4126 309.231 98.1357 309.574 98.1357H329.611C329.954 98.1357 330.231 98.4126 330.231 98.7556C330.235 99.0986 329.958 99.3755 329.615 99.3755Z" fill="#5479F7"/>
<path d="M327.737 90.0721H297.295C297.047 90.0721 296.82 89.9233 296.724 89.696C296.625 89.4687 296.675 89.2001 296.848 89.0224L327.291 57.6441C327.468 57.4623 327.733 57.4085 327.969 57.4994C328.205 57.5945 328.358 57.8218 328.358 58.0739V89.4522C328.358 89.7952 328.08 90.0721 327.737 90.0721ZM298.759 88.8323H327.117V59.6029L298.759 88.8323Z" fill="black"/>
<path d="M324.863 89.4532C324.863 91.0401 326.149 92.3253 327.738 92.3253C329.326 92.3253 330.612 91.0401 330.612 89.4532C330.612 87.8663 329.326 86.5811 327.738 86.5811C326.149 86.5811 324.863 87.8663 324.863 89.4532Z" fill="#5479F7"/>
<path d="M327.737 92.9449C325.81 92.9449 324.243 91.3787 324.243 89.4529C324.243 87.5272 325.81 85.9609 327.737 85.9609C329.664 85.9609 331.232 87.5272 331.232 89.4529C331.228 91.3787 329.66 92.9449 327.737 92.9449ZM327.737 87.2007C326.497 87.2007 325.483 88.209 325.483 89.4529C325.483 90.6968 326.492 91.7052 327.737 91.7052C328.978 91.7052 329.991 90.6968 329.991 89.4529C329.991 88.209 328.978 87.2007 327.737 87.2007Z" fill="black"/>
<path d="M294.421 89.4532C294.421 91.0401 295.708 92.3253 297.296 92.3253C298.884 92.3253 300.17 91.0401 300.17 89.4532C300.17 87.8663 298.884 86.5811 297.296 86.5811C295.708 86.5811 294.421 87.8663 294.421 89.4532Z" fill="#5479F7"/>
<path d="M297.295 92.9449C295.368 92.9449 293.801 91.3787 293.801 89.4529C293.801 87.5272 295.368 85.9609 297.295 85.9609C299.223 85.9609 300.79 87.5272 300.79 89.4529C300.786 91.3787 299.223 92.9449 297.295 92.9449ZM297.295 87.2007C296.055 87.2007 295.041 88.209 295.041 89.4529C295.041 90.6968 296.051 91.7052 297.295 91.7052C298.536 91.7052 299.549 90.6968 299.549 89.4529C299.549 88.209 298.536 87.2007 297.295 87.2007Z" fill="black"/>
<path d="M327.738 60.9464C329.325 60.9464 330.612 59.6605 330.612 58.0743C330.612 56.488 329.325 55.2021 327.738 55.2021C326.15 55.2021 324.863 56.488 324.863 58.0743C324.863 59.6605 326.15 60.9464 327.738 60.9464Z" fill="#5479F7"/>
<path d="M327.737 61.5621C325.81 61.5621 324.243 59.9959 324.243 58.0701C324.243 56.1444 325.81 54.5781 327.737 54.5781C329.664 54.5781 331.232 56.1444 331.232 58.0701C331.228 60 329.66 61.5621 327.737 61.5621ZM327.737 55.822C326.497 55.822 325.483 56.8304 325.483 58.0742C325.483 59.3181 326.492 60.3265 327.737 60.3265C328.978 60.3265 329.991 59.3181 329.991 58.0742C329.991 56.8304 328.978 55.822 327.737 55.822Z" fill="black"/>
<path d="M117.574 122.951C117.417 122.951 117.256 122.889 117.136 122.769L90.6434 96.2963C90.3994 96.0525 90.3994 95.6599 90.6434 95.4202C90.8874 95.1763 91.2803 95.1763 91.5202 95.4202L118.013 121.893C118.257 122.137 118.257 122.53 118.013 122.769C117.893 122.889 117.736 122.951 117.574 122.951Z" fill="black"/>
<path d="M145.887 151.242C145.73 151.242 145.568 151.18 145.448 151.061L128.282 133.911C128.038 133.667 128.038 133.274 128.282 133.034C128.526 132.791 128.919 132.791 129.158 133.034L146.325 150.184C146.569 150.428 146.569 150.821 146.325 151.061C146.205 151.18 146.044 151.242 145.887 151.242Z" fill="black"/>
<path d="M102.107 93.763C101.95 93.763 101.789 93.701 101.669 93.5812L90.4244 82.3448C89.225 81.1464 88.5633 79.5512 88.5633 77.8528C88.5633 76.1584 89.225 74.5633 90.4244 73.3607C91.3921 72.3937 91.9215 71.1126 91.9215 69.7447C91.9215 68.381 91.388 67.0958 90.4244 66.1288L74.9779 50.6937C74.7339 50.4499 74.7339 50.0573 74.9779 49.8176C75.2219 49.5738 75.6148 49.5738 75.8547 49.8176L91.3011 65.2527C92.5004 66.4511 93.1621 68.0462 93.1621 69.7447C93.1621 71.4432 92.5004 73.0342 91.3011 74.2368C90.3334 75.2038 89.804 76.4849 89.804 77.8528C89.804 79.2165 90.3375 80.5017 91.3011 81.4687L102.546 92.7051C102.79 92.9489 102.79 93.3415 102.546 93.5812C102.426 93.7052 102.265 93.763 102.107 93.763Z" fill="black"/>
<path d="M203.07 103.549C202.913 103.549 202.751 103.487 202.632 103.367L176.027 76.7826C175.783 76.5388 175.783 76.1462 176.027 75.9065C176.271 75.6627 176.664 75.6627 176.904 75.9065L203.508 102.491C203.752 102.735 203.752 103.128 203.508 103.367C203.388 103.487 203.227 103.549 203.07 103.549Z" fill="black"/>
<path d="M245.029 39.9288C244.872 39.9288 244.711 39.8668 244.591 39.7469L223.04 18.2123C222.796 17.9685 222.796 17.5759 223.04 17.3362C223.284 17.0924 223.677 17.0924 223.917 17.3362L245.468 38.8708C245.712 39.1147 245.712 39.5072 245.468 39.7469C245.348 39.8668 245.187 39.9288 245.029 39.9288Z" fill="black"/>
<path d="M107.694 102.383C105.709 102.383 104.092 100.771 104.092 98.7877C104.092 98.4447 104.369 98.1678 104.713 98.1678C105.056 98.1678 105.333 98.4447 105.333 98.7877C105.333 100.085 106.392 101.143 107.694 101.143C108.997 101.143 110.056 100.085 110.056 98.7877C110.056 97.4901 108.997 96.4321 107.694 96.4321C107.351 96.4321 107.074 96.1553 107.074 95.8123C107.074 95.4693 107.351 95.1924 107.694 95.1924C109.679 95.1924 111.296 96.8041 111.296 98.7877C111.296 100.771 109.684 102.383 107.694 102.383Z" fill="black"/>
<path d="M180.725 98.2256C180.568 98.2256 180.407 98.1636 180.287 98.0438C180.043 97.8041 180.043 97.4074 180.287 97.1677L181.648 95.804C181.892 95.5601 182.284 95.5601 182.524 95.804C182.768 96.0436 182.768 96.4404 182.524 96.6801L181.164 98.0438C181.044 98.1636 180.887 98.2256 180.725 98.2256Z" fill="black"/>
<path d="M175.961 102.99C175.804 102.99 175.643 102.928 175.523 102.808C175.279 102.565 175.279 102.172 175.523 101.932L176.883 100.569C177.127 100.325 177.52 100.325 177.76 100.569C178.004 100.812 178.004 101.205 177.76 101.445L176.4 102.808C176.28 102.928 176.123 102.99 175.961 102.99Z" fill="black"/>
<path d="M182.086 102.991C181.929 102.991 181.768 102.929 181.648 102.809L180.287 101.445C180.047 101.201 180.047 100.809 180.287 100.569C180.531 100.329 180.924 100.325 181.164 100.569L182.525 101.933C182.769 102.177 182.769 102.569 182.525 102.809C182.405 102.929 182.248 102.991 182.086 102.991Z" fill="black"/>
<path d="M177.322 98.226C177.165 98.226 177.004 98.164 176.884 98.0442L175.523 96.6805C175.283 96.4366 175.283 96.0441 175.523 95.8044C175.763 95.5647 176.16 95.5605 176.4 95.8044L177.761 97.1681C178.005 97.4119 178.005 97.8045 177.761 98.0442C177.641 98.164 177.483 98.226 177.322 98.226Z" fill="black"/>
<path d="M228.913 30.8657C228.756 30.8657 228.595 30.8037 228.475 30.6839L212.288 14.5092C212.044 14.2653 212.044 13.8727 212.288 13.6331C212.532 13.3892 212.925 13.3892 213.165 13.6331L229.351 29.8078C229.595 30.0516 229.595 30.4442 229.351 30.6839C229.232 30.8079 229.07 30.8657 228.913 30.8657Z" fill="black"/>
<path d="M82.9016 150.044C82.7445 150.044 82.5832 149.982 82.4633 149.862C82.2193 149.618 82.2193 149.226 82.4633 148.986L83.8239 147.622C84.0679 147.378 84.4608 147.378 84.7006 147.622C84.9446 147.866 84.9446 148.259 84.7006 148.498L83.34 149.862C83.2201 149.986 83.0588 150.044 82.9016 150.044Z" fill="black"/>
<path d="M78.1375 154.813C77.9803 154.813 77.819 154.751 77.6991 154.631C77.4551 154.387 77.4551 153.994 77.6991 153.755L79.0597 152.391C79.3037 152.147 79.6966 152.147 79.9365 152.391C80.1805 152.635 80.1805 153.027 79.9365 153.267L78.5759 154.631C78.4559 154.751 78.2946 154.813 78.1375 154.813Z" fill="black"/>
<path d="M84.2622 154.813C84.105 154.813 83.9437 154.751 83.8238 154.631L82.4632 153.267C82.2192 153.023 82.2233 152.631 82.4632 152.391C82.7072 152.147 83.1001 152.147 83.3399 152.391L84.7005 153.755C84.9445 153.998 84.9404 154.391 84.7005 154.631C84.5806 154.751 84.4193 154.813 84.2622 154.813Z" fill="black"/>
<path d="M79.4985 150.044C79.3413 150.044 79.1801 149.982 79.0601 149.862L77.6995 148.498C77.4555 148.255 77.4597 147.862 77.6995 147.622C77.9435 147.378 78.3364 147.378 78.5763 147.622L79.9369 148.986C80.1809 149.23 80.1767 149.622 79.9369 149.862C79.8169 149.986 79.6557 150.044 79.4985 150.044Z" fill="black"/>
<path d="M344.727 237.468H1.47217V306.824H344.727V237.468Z" fill="#99B9FF"/>
<path d="M344.726 238.088H1.4719C1.12865 238.088 0.851562 237.811 0.851562 237.468C0.851562 237.125 1.12865 236.848 1.4719 236.848H344.726C345.07 236.848 345.347 237.125 345.347 237.468C345.347 237.811 345.07 238.088 344.726 238.088Z" fill="black"/>
<path d="M331.947 307.444H1.4719C1.12865 307.444 0.851562 307.167 0.851562 306.824C0.851562 306.481 1.12865 306.205 1.4719 306.205H331.947C332.291 306.205 332.568 306.481 332.568 306.824C332.568 307.163 332.286 307.444 331.947 307.444Z" fill="black"/>
<path d="M145.113 282.372C145.113 282.372 117.591 277.029 104.303 282.372C90.0064 275.409 52.8315 282.372 52.8315 282.372L103.013 250.928C103.013 250.928 129.729 246.498 139.865 250.928C157.214 247.531 195.299 250.928 195.299 250.928L145.113 282.372Z" fill="white"/>
<path d="M52.8277 282.992C52.5755 282.992 52.3439 282.839 52.2487 282.6C52.1412 282.323 52.2446 282.009 52.4969 281.847L102.678 250.407C102.748 250.362 102.827 250.333 102.906 250.32C103.997 250.138 129.617 245.96 139.927 250.287C157.252 246.973 194.968 250.279 195.349 250.316C195.613 250.341 195.832 250.531 195.899 250.787C195.961 251.048 195.849 251.316 195.626 251.457L145.444 282.897C145.312 282.98 145.151 283.009 144.998 282.98C144.725 282.926 117.504 277.731 104.535 282.947C104.374 283.013 104.188 283.005 104.031 282.93C90.0812 276.132 53.3116 282.914 52.9435 282.984C52.9063 282.988 52.8649 282.992 52.8277 282.992ZM120.854 279.36C131.962 279.36 143.108 281.364 144.989 281.719L193.384 251.395C185.543 250.775 154.865 248.622 139.977 251.539C139.853 251.564 139.725 251.552 139.609 251.498C130.097 247.341 105.197 251.209 103.228 251.523L55.8219 281.228C65.065 279.723 92.1531 276 104.324 281.699C108.844 279.946 114.845 279.36 120.854 279.36Z" fill="black"/>
<path d="M109.328 278.773C109.154 278.773 108.976 278.699 108.856 278.554C108.633 278.294 108.666 277.901 108.927 277.682L136.395 254.308C136.656 254.085 137.049 254.118 137.268 254.379C137.491 254.639 137.458 255.032 137.198 255.251L109.729 278.624C109.613 278.723 109.473 278.773 109.328 278.773Z" fill="black"/>
<path d="M188.93 297.519C190.34 296.895 191.366 295.878 192.16 294.126C193.194 291.853 193.566 289.485 194.352 287.146C195.692 283.162 198.239 281.348 202.313 280.447C205.572 279.728 208.922 279.406 212.259 279.493C213.864 279.534 215.538 279.695 216.895 280.555C217.263 280.786 217.635 281.162 217.544 281.588C217.499 281.803 217.342 281.972 217.193 282.133C215.022 284.526 213.835 287.613 213.802 290.812C213.773 293.481 212.685 296.039 211.217 298.254C208.314 302.635 203.458 306.412 198.173 307.259C196.072 307.598 193.934 307.466 191.829 307.726C189.761 307.982 187.76 308.611 185.77 309.21C181.457 310.512 177.173 311.925 172.859 313.227C164.613 315.706 156.358 318.165 148.099 320.616C143.827 321.884 139.559 323.149 135.287 324.413C123.612 327.591 111.135 324.037 102.893 315.177L86.541 297.601L89.4814 259.83C89.4814 259.83 120.883 299.234 121.044 299.436C122.657 301.461 126.867 302.205 129.216 302.664C133.133 303.424 137.157 303.627 141.143 303.647C150.25 303.689 159.361 302.713 168.364 301.416C174.675 300.507 180.994 299.461 187.214 298.06C187.851 297.924 188.417 297.746 188.93 297.519Z" fill="white"/>
<path d="M126.693 326.186C117.611 326.186 108.819 322.454 102.442 315.603L86.0899 298.027C85.97 297.899 85.9121 297.729 85.9245 297.556L88.8649 259.784C88.8856 259.532 89.0593 259.313 89.3033 259.239C89.5473 259.165 89.812 259.247 89.9691 259.446C89.9691 259.446 121.371 298.849 121.532 299.052C122.942 300.82 126.772 301.56 129.059 302.002L129.34 302.056C132.677 302.705 136.317 303.002 141.151 303.027C148.972 303.064 157.346 302.378 168.281 300.804C175.737 299.73 181.709 298.667 187.085 297.461C187.697 297.324 188.218 297.155 188.677 296.952C189.993 296.37 190.89 295.419 191.593 293.87C192.213 292.506 192.581 291.126 192.974 289.659C193.21 288.77 193.458 287.857 193.764 286.948C195.1 282.972 197.615 280.848 202.18 279.844C205.497 279.112 208.892 278.786 212.275 278.877C213.967 278.922 215.741 279.092 217.225 280.034C217.945 280.488 218.28 281.104 218.148 281.72C218.069 282.092 217.833 282.352 217.66 282.542C215.6 284.815 214.455 287.749 214.417 290.82C214.388 293.332 213.487 295.952 211.729 298.597C208.475 303.507 203.317 307.061 198.268 307.875C197.089 308.065 195.898 308.11 194.749 308.156C193.81 308.193 192.838 308.23 191.899 308.346C189.993 308.586 188.09 309.16 186.254 309.714L185.944 309.809C183.847 310.441 181.721 311.115 179.666 311.763C177.495 312.449 175.249 313.156 173.028 313.826C164.406 316.417 155.675 319.016 148.269 321.215C143.997 322.483 139.729 323.748 135.457 325.012C132.557 325.802 129.609 326.186 126.693 326.186ZM87.1859 297.382L103.352 314.76C111.462 323.475 123.637 326.946 135.126 323.818C139.385 322.558 143.653 321.293 147.925 320.024C155.328 317.826 164.062 315.227 172.681 312.635C174.894 311.97 177.135 311.263 179.302 310.577C181.362 309.929 183.491 309.255 185.592 308.619L185.902 308.524C187.792 307.953 189.744 307.362 191.754 307.11C192.743 306.986 193.739 306.949 194.707 306.912C195.824 306.866 196.973 306.825 198.078 306.647C202.796 305.891 207.631 302.544 210.7 297.911C212.321 295.465 213.156 293.076 213.181 290.803C213.218 287.431 214.479 284.204 216.733 281.716C216.812 281.629 216.924 281.505 216.936 281.455C216.936 281.418 216.841 281.253 216.56 281.075C215.327 280.294 213.756 280.15 212.242 280.112C208.958 280.026 205.667 280.34 202.449 281.05C198.313 281.964 196.138 283.786 194.943 287.34C194.649 288.212 194.409 289.109 194.178 289.977C193.789 291.423 193.388 292.923 192.726 294.378C191.899 296.2 190.774 297.374 189.182 298.081C188.649 298.316 188.053 298.51 187.358 298.663C181.953 299.878 175.948 300.949 168.459 302.027C157.458 303.61 149.038 304.288 141.147 304.263C136.234 304.238 132.52 303.932 129.104 303.271L128.827 303.217C126.371 302.742 122.26 301.949 120.564 299.82C120.419 299.639 95.2999 268.116 89.9815 261.446L87.1859 297.382Z" fill="black"/>
<path d="M70.5236 238.192C70.5236 238.192 95.1428 241.452 103.319 251.408C113.674 264.016 118.137 282.753 119.588 290.849C120.014 293.229 119.965 295.663 119.439 298.023L118.836 300.725C116.71 310.272 107.996 316.888 98.2238 316.379H98.7118C97.132 316.297 94.8285 315.776 94.1585 314.342L91.5738 309.627L91.3298 311.325C89.386 323.872 99.5348 341.059 99.5348 341.059L70.4161 337.133C55.4535 335.633 41.2188 329.74 29.7963 319.971C23.5929 314.664 18.7997 309.701 16.7319 303.672C13.2208 293.436 13.5392 290.518 12.555 278.1C11.885 269.645 14.3664 261.194 19.6765 254.573C27.4762 244.845 42.4925 234.638 70.5236 238.192Z" fill="#5479F7"/>
<path d="M93.2447 314.677C93.0131 314.677 92.7898 314.544 92.6823 314.321L85.7882 299.853C85.6394 299.543 85.7717 299.175 86.0819 299.027C86.392 298.882 86.7601 299.01 86.909 299.32L93.803 313.788C93.9519 314.098 93.8196 314.466 93.5094 314.615C93.4267 314.66 93.3357 314.677 93.2447 314.677Z" fill="#99B9FF"/>
<path d="M74.3822 188.919L76.1895 187.717C77.641 186.75 78.2531 184.915 77.6452 183.283C75.8297 178.377 69.2086 169.835 45.1187 176.323C20.5574 182.94 24.8998 222.323 45.8218 230.737C66.7438 239.15 73.8528 195.891 73.8528 195.891L74.3822 188.919Z" fill="black"/>
<path d="M71.3628 189.821C71.644 188.321 73.6456 187.991 74.4025 189.317C76.2387 192.541 77.1154 194.785 77.409 196.152C77.8019 197.991 76.0939 199.834 77.0162 201.806C77.9384 203.777 79.3858 206.013 79.5182 209.562C79.6464 213.03 83.1658 228.932 70.8045 228.427C70.3206 228.407 69.9112 228.791 69.9195 229.275C69.9484 231.696 70.0808 238.35 70.6184 241.953C70.912 243.916 69.6879 245.784 67.7731 246.326C62.8228 247.722 53.6087 249.689 46.7147 247.45C44.9239 246.867 43.981 244.904 44.622 243.131C45.4367 240.871 46.574 234.515 45.8296 230.733C45.8296 230.733 49.957 230.328 54.5557 228.221C61.6235 224.981 65.1015 217.092 63.1454 209.571C62.7235 207.955 61.8178 205.653 62.7649 203.219C65.2049 196.938 68.8566 203.252 68.8566 203.252L71.3628 189.821Z" fill="white"/>
<path d="M53.9853 249.081C51.4047 249.081 48.8406 248.792 46.5247 248.04C45.5032 247.709 44.6802 246.994 44.2087 246.027C43.729 245.048 43.6711 243.949 44.0392 242.924C44.8208 240.754 45.9457 234.531 45.2219 230.857C45.1889 230.688 45.2302 230.51 45.3336 230.369C45.437 230.229 45.5983 230.138 45.772 230.121C45.8133 230.117 49.8621 229.696 54.2996 227.662C60.9827 224.6 64.4525 217.058 62.5501 209.731C62.4963 209.517 62.4302 209.293 62.364 209.054C61.9132 207.467 61.297 205.297 62.1903 203C62.9719 200.991 63.9975 199.921 65.2465 199.826C66.5782 199.722 67.7609 200.78 68.5219 201.698L70.7592 189.709C70.9329 188.767 71.6567 188.056 72.6037 187.899C73.5508 187.738 74.473 188.176 74.9486 189.011C77.0288 192.664 77.7691 194.842 78.0255 196.024C78.2323 196.987 77.9676 197.896 77.7153 198.772C77.4217 199.78 77.1694 200.652 77.5871 201.545C77.7401 201.867 77.9055 202.198 78.0751 202.541C78.9477 204.281 80.0312 206.45 80.1429 209.541C80.1594 209.955 80.2298 210.595 80.3083 211.335C80.7426 215.286 81.5573 222.646 77.9056 226.551C76.243 228.332 73.8444 229.175 70.7799 229.051C70.6931 229.039 70.631 229.092 70.6062 229.117C70.5773 229.146 70.5401 229.196 70.5401 229.274C70.5731 231.886 70.7055 238.345 71.2307 241.87C71.5698 244.131 70.1554 246.304 67.9429 246.928C64.6013 247.866 59.2664 249.081 53.9853 249.081ZM46.5453 231.266C47.0912 235.237 46.0036 241.126 45.2054 243.341C44.949 244.048 44.9945 244.808 45.3212 245.478C45.6479 246.139 46.2103 246.631 46.9051 246.858C53.6586 249.053 62.7693 247.094 67.6038 245.73C69.2167 245.275 70.2464 243.693 70.0024 242.048C69.4648 238.448 69.3325 231.923 69.2994 229.282C69.2952 228.882 69.4524 228.506 69.7377 228.225C70.0272 227.944 70.4201 227.791 70.8295 227.807C73.5135 227.915 75.5896 227.208 76.9957 225.704C80.2546 222.212 79.4853 215.224 79.0718 211.471C78.9849 210.674 78.9146 210.045 78.8981 209.587C78.7947 206.76 77.8187 204.814 76.9585 203.095C76.7807 202.743 76.6111 202.4 76.454 202.066C75.8419 200.751 76.1975 199.516 76.516 198.425C76.7393 197.66 76.9461 196.941 76.8055 196.28C76.6111 195.383 75.9742 193.321 73.8651 189.622C73.6045 189.164 73.1455 189.06 72.8064 189.118C72.6409 189.147 72.0992 189.288 71.9751 189.932L69.4689 203.363C69.4193 203.619 69.2208 203.818 68.9644 203.859C68.708 203.905 68.4516 203.785 68.3234 203.557C67.9305 202.88 66.5327 200.975 65.3375 201.053C64.4276 201.123 63.7535 202.388 63.3441 203.438C62.5997 205.351 63.1291 207.211 63.555 208.707C63.6253 208.955 63.6915 209.186 63.7494 209.409C65.8048 217.315 62.0455 225.46 54.8165 228.778C51.202 230.44 47.9059 231.064 46.5453 231.266Z" fill="black"/>
<path d="M35.2348 184.279C35.2348 184.279 23.1506 178.514 14.3583 186.75C5.57015 194.986 -2.94503 213.099 10.2392 232.861C18.5228 245.279 21.7114 255.098 22.9355 260.681C23.3449 262.549 25.7973 263.02 26.8561 261.425C32.162 253.466 41.8435 235.911 37.1537 219.414C30.8386 197.181 35.2348 184.279 35.2348 184.279Z" fill="black"/>
<path d="M79.5517 208.231C79.3407 208.231 79.134 208.124 79.0182 207.929C78.8403 207.636 78.9355 207.256 79.2291 207.078C82.8891 204.884 80.7138 198.734 79.9156 196.813L68.9066 202.429C68.6006 202.586 68.2284 202.466 68.0712 202.16C67.9141 201.855 68.0382 201.483 68.3401 201.326L79.9363 195.408C80.0851 195.333 80.2588 195.321 80.416 195.371C80.5731 195.424 80.7055 195.54 80.7758 195.689C80.9578 196.065 85.1719 204.958 79.866 208.14C79.7708 208.202 79.6592 208.231 79.5517 208.231Z" fill="black"/>
<path d="M79.8704 212.826C79.7091 212.826 79.552 212.764 79.4279 212.644C79.1881 212.4 79.1881 212.008 79.4321 211.768L81.0119 210.202C81.4171 209.801 81.4709 209.173 81.1359 208.714L80.0483 207.197C79.8498 206.92 79.9118 206.532 80.193 206.334C80.4701 206.131 80.8588 206.197 81.0573 206.474L82.145 207.991C82.8357 208.95 82.724 210.251 81.8845 211.082L80.3047 212.648C80.1847 212.768 80.0276 212.826 79.8704 212.826Z" fill="black"/>
<path d="M67.1411 214.203C66.8681 214.203 66.5786 214.174 66.2726 214.095C64.8375 213.74 63.6134 212.529 62.6333 210.5C62.4844 210.19 62.6126 209.822 62.9228 209.673C63.2288 209.524 63.601 209.653 63.7499 209.963C64.5605 211.644 65.5116 212.628 66.5704 212.893C67.6663 213.165 68.5513 212.545 68.5596 212.537C68.8367 212.335 69.2254 212.392 69.4281 212.669C69.6307 212.946 69.5728 213.335 69.2957 213.537C69.2502 213.57 68.3735 214.203 67.1411 214.203Z" fill="black"/>
<path d="M32.1992 183.191C32.1992 183.191 43.4274 186.571 38.8327 197.332C38.8327 197.332 44.0187 193.592 43.8905 187.753C43.7582 181.914 39.4241 180.009 36.5333 180.075C33.6425 180.137 32.1992 183.191 32.1992 183.191Z" fill="white"/>
<path d="M38.8286 197.953C38.6921 197.953 38.5556 197.907 38.4398 197.816C38.2207 197.643 38.1462 197.345 38.2579 197.089C39.5399 194.089 39.6516 191.415 38.5929 189.15C36.7691 185.254 32.0628 183.799 32.0173 183.782C31.8436 183.729 31.703 183.605 31.6285 183.439C31.5541 183.274 31.5582 183.084 31.6326 182.923C31.6988 182.782 33.2786 179.526 36.5127 179.451C38.3489 179.418 40.214 180.055 41.6325 181.216C42.898 182.253 44.424 184.229 44.5026 187.733C44.6391 193.829 39.4117 197.672 39.1884 197.829C39.085 197.911 38.9568 197.953 38.8286 197.953ZM33.1132 182.861C34.6351 183.468 38.1049 185.175 39.7219 188.626C40.64 190.589 40.8054 192.791 40.2099 195.192C41.6118 193.626 43.3405 191.027 43.2702 187.762C43.2164 185.357 42.3811 183.427 40.855 182.175C39.6805 181.212 38.0718 180.658 36.5499 180.691C34.8088 180.733 33.6508 182.063 33.1132 182.861Z" fill="black"/>
<path d="M10.785 275.194C20.0528 280.79 38.9029 288.77 69.2375 286.923C71.4666 286.786 73.5302 288.109 74.316 290.2L76.2101 297.766C79.5392 311.073 85.7964 323.471 94.5266 334.054L99.0592 339.546C99.7582 340.393 99.1006 341.662 98.0047 341.579L78.0049 340.112C43.6712 335.575 17.0008 318.367 8.44423 287.022L6.16138 278.662C5.42111 275.947 8.37392 273.74 10.785 275.194Z" fill="white"/>
<path d="M98.3563 342.22C98.3108 342.22 98.2653 342.22 98.2198 342.216L93.497 341.869C93.1537 341.844 92.8973 341.546 92.9221 341.203C92.947 340.86 93.2364 340.596 93.588 340.629L98.3108 340.976C98.621 341.001 98.7699 340.77 98.8071 340.699C98.8443 340.629 98.9477 340.377 98.7492 340.137L94.0512 334.443C85.3168 323.855 78.9397 311.222 75.6105 297.911L73.7288 290.377C73.0258 288.555 71.2475 287.418 69.2789 287.534C38.262 289.427 19.1183 280.943 10.4667 275.719C9.39554 275.07 8.31615 275.368 7.66272 275.86C7.01343 276.347 6.43859 277.298 6.7653 278.492L9.04815 286.852C16.6121 314.561 39.4489 333 73.3608 338.778C73.6999 338.835 73.9274 339.154 73.8695 339.493C73.8116 339.831 73.489 340.055 73.154 340.001C56.5454 337.17 42.5382 331.401 31.521 322.855C19.7924 313.751 11.8273 301.75 7.85296 287.183L5.57011 278.823C5.16069 277.323 5.67764 275.81 6.91832 274.872C8.16727 273.93 9.77188 273.851 11.1118 274.657C19.6394 279.806 38.5267 288.166 69.2045 286.294C71.7272 286.146 74.0183 287.617 74.9034 289.972C74.9116 289.993 74.9199 290.018 74.924 290.038L76.8181 297.605C80.1018 310.738 86.392 323.202 95.0106 333.649L99.7086 339.344C100.164 339.893 100.242 340.633 99.9154 341.265C99.597 341.869 99.0139 342.22 98.3563 342.22Z" fill="black"/>
<path d="M290.562 288.505C290.562 288.505 263.04 283.162 249.752 288.505C235.456 281.542 198.281 288.505 198.281 288.505L248.462 257.061C248.462 257.061 275.178 252.631 285.314 257.061C302.663 253.664 340.748 257.061 340.748 257.061L290.562 288.505Z" fill="white"/>
<path d="M198.276 289.125C198.024 289.125 197.793 288.972 197.697 288.732C197.59 288.455 197.693 288.141 197.946 287.98L248.127 256.54C248.197 256.494 248.276 256.466 248.354 256.453C249.446 256.271 275.066 252.093 285.376 256.42C302.7 253.106 340.417 256.412 340.797 256.449C341.062 256.474 341.281 256.664 341.347 256.92C341.409 257.18 341.298 257.449 341.074 257.59L290.893 289.034C290.761 289.117 290.599 289.15 290.446 289.117C290.174 289.063 262.953 283.868 249.984 289.084C249.822 289.15 249.641 289.141 249.479 289.067C235.53 282.269 198.76 289.051 198.392 289.121C198.351 289.121 198.314 289.125 198.276 289.125ZM266.303 285.492C277.411 285.492 288.556 287.497 290.438 287.852L338.833 257.528C330.992 256.908 300.314 254.755 285.426 257.672C285.302 257.697 285.174 257.68 285.058 257.631C275.55 253.474 250.645 257.342 248.681 257.656L201.275 287.36C210.518 285.856 237.61 282.133 249.777 287.831C254.293 286.075 260.294 285.492 266.303 285.492Z" fill="black"/>
<path d="M254.777 284.901C254.603 284.901 254.426 284.827 254.306 284.682C254.082 284.422 254.115 284.029 254.376 283.81L281.845 260.437C282.105 260.214 282.498 260.247 282.717 260.507C282.94 260.767 282.907 261.16 282.647 261.379L255.178 284.753C255.062 284.856 254.918 284.901 254.777 284.901Z" fill="black"/>
<path d="M267.733 264.895C267.733 264.895 268.213 264.118 268.131 263.048C267.886 259.734 267.117 252.684 269.582 249.688C273.705 244.671 278.631 246.782 278.631 246.782C278.631 246.782 281.282 242.051 284.338 244.038C286.683 245.567 288.899 248.762 288.287 253.523C287.452 260.011 286.067 266.181 278.883 269.544C277.489 270.197 276.356 271.292 275.695 272.673C274.082 276.041 246.261 323.92 246.261 323.92C241.464 331.78 236.096 334.21 225.12 336.632C218.627 338.066 211.936 335.235 208.317 329.665L190.373 295.749L207.796 275.049L228.673 308.357C236.613 304.456 267.39 265.924 267.733 264.895Z" fill="white"/>
<path d="M221.775 337.624C216.245 337.624 210.91 334.805 207.796 330.007C207.788 329.991 207.776 329.974 207.767 329.958L189.823 296.042C189.703 295.819 189.736 295.546 189.897 295.352L207.321 274.652C207.449 274.499 207.643 274.417 207.838 274.433C208.036 274.445 208.214 274.553 208.322 274.722L228.888 307.535C237.056 302.625 265.992 266.804 267.163 264.651C267.175 264.622 267.188 264.598 267.204 264.569C267.208 264.565 267.576 263.932 267.514 263.089L267.456 262.321C267.159 258.56 266.662 252.266 269.107 249.295C272.68 244.943 276.919 245.638 278.366 246.043C278.916 245.212 280.256 243.46 282.001 243.03C282.932 242.803 283.833 242.968 284.681 243.522C285.876 244.299 289.714 247.328 288.908 253.605C288.081 260.031 286.646 266.602 279.148 270.11C277.874 270.71 276.844 271.714 276.253 272.945C274.648 276.297 247.932 322.28 246.799 324.234C241.816 332.396 236.125 334.843 225.257 337.244C224.099 337.5 222.933 337.624 221.775 337.624ZM208.855 329.359C212.345 334.714 218.826 337.401 224.992 336.037C235.712 333.669 240.964 331.421 245.736 323.606C246.009 323.139 273.556 275.722 275.14 272.416C275.856 270.929 277.092 269.71 278.627 268.991C285.558 265.746 286.865 259.787 287.679 253.448C288.395 247.886 285.049 245.241 284.007 244.563C283.449 244.199 282.89 244.092 282.299 244.237C280.847 244.592 279.553 246.419 279.177 247.088C279.024 247.365 278.685 247.481 278.391 247.357C278.209 247.278 273.825 245.509 270.066 250.084C267.94 252.671 268.432 258.886 268.697 262.226L268.759 263.002C268.854 264.259 268.296 265.184 268.271 265.222H268.267C267.427 266.676 259.053 277.127 251.53 285.955C243.598 295.265 233.243 306.812 228.954 308.923C228.669 309.064 228.321 308.965 228.156 308.696L207.73 276.107L191.126 295.836L208.855 329.359Z" fill="black"/>
<path d="M251.514 272.044L246.216 262.544L250.968 260.291C251.229 260.167 251.518 260.105 251.812 260.114L252.341 260.126C253.007 260.143 253.627 259.804 253.958 259.246C254.14 258.944 254.409 258.696 254.732 258.543L290.033 241.786C290.322 241.65 290.633 241.546 290.951 241.488L300.711 239.703L294.127 246.456C293.767 246.823 293.362 247.142 292.915 247.406L259.471 267.3C259.186 267.47 258.859 267.561 258.524 267.561H258.441C257.8 267.561 257.205 267.891 256.878 268.428L256.712 268.701C256.564 268.949 256.349 269.16 256.096 269.309L251.514 272.044Z" fill="white"/>
<path d="M251.514 272.664C251.46 272.664 251.407 272.656 251.353 272.644C251.192 272.602 251.055 272.495 250.972 272.346L245.675 262.845C245.592 262.697 245.575 262.519 245.625 262.354C245.679 262.188 245.795 262.056 245.952 261.982L250.704 259.73C251.051 259.564 251.431 259.477 251.828 259.494L252.358 259.506C252.796 259.498 253.206 259.296 253.425 258.928C253.669 258.519 254.029 258.188 254.467 257.981L289.768 241.224C290.108 241.063 290.467 240.947 290.84 240.877L300.6 239.092C300.868 239.042 301.133 239.17 301.257 239.41C301.385 239.649 301.344 239.943 301.154 240.133L294.57 246.886C294.173 247.291 293.726 247.646 293.234 247.939L259.789 267.833C259.409 268.061 258.971 268.181 258.528 268.181C258.528 268.181 258.528 268.181 258.524 268.181H258.437C258.015 268.181 257.622 268.4 257.407 268.751L257.242 269.024C257.039 269.358 256.754 269.643 256.415 269.846L251.833 272.569C251.733 272.631 251.626 272.664 251.514 272.664ZM247.081 262.817L251.746 271.181L255.778 268.78C255.943 268.681 256.084 268.544 256.179 268.383L256.345 268.11C256.779 267.391 257.581 266.941 258.437 266.941C258.437 266.941 258.437 266.941 258.441 266.941H258.528C258.747 266.941 258.967 266.883 259.153 266.767L292.597 246.873C292.994 246.638 293.358 246.348 293.681 246.022L298.908 240.662L291.059 242.096C290.794 242.146 290.538 242.228 290.294 242.34L254.992 259.097C254.777 259.201 254.603 259.358 254.484 259.556C254.037 260.308 253.214 260.767 252.316 260.738L251.787 260.725C251.593 260.725 251.403 260.763 251.229 260.845L247.081 262.817Z" fill="black"/>
<path d="M292.742 245.993C292.535 245.993 292.328 245.89 292.212 245.7L289.954 242.022C289.776 241.728 289.867 241.348 290.157 241.17C290.451 240.993 290.831 241.084 291.009 241.373L293.267 245.051C293.445 245.344 293.354 245.725 293.064 245.902C292.965 245.964 292.853 245.993 292.742 245.993Z" fill="black"/>
<path d="M238.243 266.598L246.365 262.428L251.576 272.041L243.454 276.21C241.965 276.975 240.124 276.425 239.347 274.987L236.965 270.59C236.183 269.152 236.754 267.362 238.243 266.598Z" fill="#5479F7"/>
<path d="M242.035 277.173C240.724 277.173 239.455 276.483 238.801 275.28L236.419 270.883C235.968 270.049 235.873 269.09 236.15 268.185C236.436 267.255 237.081 266.499 237.957 266.044L246.08 261.874C246.378 261.722 246.75 261.833 246.907 262.131L252.118 271.743C252.196 271.892 252.213 272.061 252.163 272.222C252.114 272.379 252.002 272.516 251.853 272.59L243.731 276.76C243.193 277.041 242.61 277.173 242.035 277.173ZM246.109 263.255L238.528 267.148C237.949 267.445 237.527 267.945 237.337 268.549C237.155 269.135 237.217 269.751 237.511 270.292L239.893 274.689C240.513 275.834 241.986 276.268 243.172 275.656L250.732 271.776L246.109 263.255Z" fill="black"/>
<path d="M256.679 266.788C256.456 266.788 256.241 266.668 256.129 266.457L253.71 261.878C253.549 261.577 253.664 261.201 253.97 261.039C254.272 260.878 254.649 260.994 254.81 261.3L257.229 265.879C257.391 266.18 257.275 266.556 256.969 266.718C256.878 266.763 256.779 266.788 256.679 266.788Z" fill="black"/>
<path d="M257.676 260.498C257.448 260.498 257.229 260.37 257.117 260.151C256.964 259.845 257.093 259.473 257.399 259.32L267.767 254.217C268.073 254.068 268.445 254.192 268.598 254.498C268.751 254.803 268.623 255.175 268.317 255.328L257.949 260.432C257.862 260.477 257.767 260.498 257.676 260.498Z" fill="black"/>
<path d="M285.488 246.683C285.26 246.683 285.041 246.559 284.934 246.34C284.781 246.035 284.905 245.663 285.211 245.51L289.243 243.505C289.549 243.353 289.921 243.476 290.074 243.782C290.227 244.088 290.103 244.46 289.797 244.613L285.765 246.617C285.678 246.663 285.583 246.683 285.488 246.683Z" fill="black"/>
<path d="M241.642 274.569C241.415 274.569 241.195 274.445 241.088 274.231C240.935 273.925 241.055 273.553 241.361 273.4L247.597 270.251C247.903 270.098 248.276 270.218 248.429 270.524C248.582 270.829 248.462 271.201 248.156 271.354L241.919 274.503C241.828 274.549 241.733 274.569 241.642 274.569Z" fill="white"/>
<path d="M267.733 264.895C267.733 264.895 271.033 257.564 274.288 253.597C276.823 250.51 280.5 239.034 285.764 245.109C286.898 246.415 287.692 247.225 288.262 249.274C288.577 250.394 288.941 253.159 288.771 254.494C287.936 260.99 286.066 266.197 278.862 269.561C277.477 270.21 276.352 271.305 275.694 272.681C275.314 273.483 267.642 265.168 267.733 264.895Z" fill="white"/>
<path d="M273.688 276.995C273.585 276.995 273.482 276.971 273.382 276.917C273.085 276.747 272.977 276.371 273.147 276.074C273.163 276.045 274.727 273.268 275.136 272.412C275.851 270.921 277.08 269.71 278.602 268.999C285.405 265.825 287.299 261.064 288.155 254.415C288.312 253.196 287.969 250.535 287.667 249.44C287.171 247.667 286.517 246.915 285.525 245.778L285.297 245.518C284.379 244.456 283.494 243.96 282.683 244.038C280.814 244.22 279.094 247.229 277.576 249.882C276.592 251.601 275.661 253.225 274.702 254.068C269.995 258.184 268.358 264.97 268.341 265.04C268.337 265.056 268.333 265.077 268.325 265.094C268.234 265.366 267.915 265.9 266.542 267.834C266.344 268.115 265.959 268.181 265.678 267.982C265.397 267.784 265.33 267.395 265.529 267.119C266.497 265.755 267.038 264.949 267.142 264.713C267.303 264.048 269.028 257.382 273.883 253.134C274.685 252.432 275.566 250.894 276.497 249.266C278.163 246.353 280.053 243.047 282.563 242.803C283.8 242.683 285.037 243.323 286.236 244.704L286.463 244.964C287.485 246.138 288.295 247.063 288.866 249.109C289.205 250.32 289.573 253.151 289.391 254.576C288.506 261.449 286.422 266.722 279.131 270.123C277.87 270.71 276.852 271.714 276.261 272.945C275.835 273.834 274.301 276.561 274.234 276.677C274.114 276.884 273.904 276.995 273.688 276.995Z" fill="black"/>
<path d="M173.041 236.823C173.041 236.823 197.623 240.112 205.787 250.154C216.126 262.874 220.584 281.776 222.031 289.947C222.457 292.348 222.408 294.806 221.882 297.187L221.283 299.914C219.161 309.547 210.46 316.221 200.7 315.709H201.188C199.612 315.626 197.309 315.101 196.643 313.655L194.062 308.898L193.818 310.613C191.879 323.271 202.78 340.711 202.78 340.711L172.938 336.652C158 335.14 143.786 329.193 132.384 319.337C126.193 313.985 121.404 308.977 119.34 302.894C115.833 292.567 116.152 289.624 115.172 277.09C114.502 268.557 117.578 256.713 122.88 250.03C130.659 240.216 145.055 233.236 173.041 236.823Z" fill="#5479F7"/>
<path d="M195.729 313.99C195.497 313.99 195.274 313.857 195.167 313.634L188.281 299.034C188.136 298.724 188.268 298.356 188.579 298.208C188.889 298.063 189.257 298.195 189.406 298.505L196.291 313.105C196.436 313.415 196.304 313.783 195.994 313.932C195.907 313.969 195.816 313.99 195.729 313.99Z" fill="#CADDFF"/>
<path d="M176.912 187.509C184.038 183.327 185.001 170.744 179.716 168.008C174.948 165.537 169.067 168.227 161.689 171.748C158.182 173.422 153.083 173.343 147.678 174.401C122.744 179.29 123.91 209.647 148.381 229.302C166.007 243.456 176.366 194.142 176.366 194.142L176.912 187.509Z" fill="black"/>
<path d="M171.375 190.473C171.825 186.382 176.16 186.167 176.912 187.51C178.748 190.762 179.621 193.027 179.915 194.407C180.308 196.263 178.6 198.122 179.522 200.11C180.44 202.102 181.887 204.354 182.02 207.937C182.148 211.437 185.663 227.48 173.318 226.972C172.835 226.951 172.429 227.335 172.437 227.827C172.466 230.269 172.599 236.985 173.132 240.621C173.426 242.601 172.202 244.485 170.291 245.031C165.349 246.44 156.152 248.424 149.266 246.163C147.475 245.576 146.536 243.597 147.173 241.807C147.988 239.526 149.125 233.113 148.381 229.298C148.381 229.298 152.504 228.889 157.094 226.761C164.15 223.492 167.624 215.533 165.672 207.945C165.254 206.313 164.344 203.995 165.291 201.536C166.776 197.676 168.707 198.532 169.993 199.788C170.51 200.296 171.375 199.924 171.375 199.197V190.473Z" fill="white"/>
<path d="M156.528 247.807C153.952 247.807 151.387 247.514 149.076 246.754C148.062 246.423 147.244 245.704 146.772 244.737C146.288 243.749 146.226 242.633 146.594 241.6C147.376 239.41 148.501 233.129 147.777 229.418C147.744 229.248 147.785 229.07 147.889 228.93C147.992 228.789 148.149 228.699 148.323 228.682C148.364 228.678 152.405 228.252 156.838 226.198C163.513 223.107 166.979 215.495 165.076 208.098C165.023 207.883 164.956 207.656 164.89 207.416C164.439 205.817 163.827 203.631 164.716 201.312C165.44 199.436 166.338 198.403 167.458 198.159C168.418 197.948 169.415 198.349 170.432 199.345C170.506 199.42 170.585 199.407 170.639 199.386C170.684 199.366 170.759 199.316 170.759 199.196V190.473C170.759 190.452 170.759 190.427 170.763 190.406C171.007 188.204 172.334 186.646 174.315 186.241C175.688 185.96 176.979 186.357 177.458 187.204C179.534 190.886 180.275 193.084 180.527 194.275C180.734 195.246 180.469 196.159 180.217 197.043C179.935 198.023 179.671 198.944 180.088 199.849C180.242 200.176 180.407 200.511 180.576 200.854C181.445 202.61 182.528 204.792 182.644 207.912C182.661 208.329 182.731 208.974 182.81 209.722C183.248 213.722 184.059 221.169 180.382 225.099C178.72 226.876 176.338 227.715 173.298 227.587C173.211 227.57 173.153 227.624 173.128 227.649C173.099 227.678 173.062 227.732 173.062 227.81C173.095 230.447 173.228 236.964 173.753 240.522C174.088 242.799 172.678 244.989 170.469 245.617C167.132 246.58 161.805 247.807 156.528 247.807ZM149.1 229.831C149.651 233.835 148.563 239.778 147.765 242.018C147.508 242.737 147.55 243.51 147.889 244.196C148.215 244.861 148.774 245.349 149.469 245.576C156.21 247.787 165.308 245.811 170.13 244.435C171.743 243.977 172.773 242.373 172.524 240.712C171.987 237.079 171.855 230.496 171.821 227.835C171.817 227.43 171.974 227.05 172.264 226.769C172.553 226.488 172.946 226.343 173.347 226.355C176.011 226.471 178.074 225.76 179.476 224.26C182.764 220.748 181.991 213.669 181.577 209.862C181.49 209.061 181.42 208.424 181.404 207.962C181.3 205.11 180.324 203.143 179.464 201.407C179.286 201.052 179.117 200.709 178.964 200.37C178.352 199.048 178.711 197.804 179.026 196.704C179.249 195.932 179.456 195.204 179.315 194.535C179.125 193.626 178.484 191.547 176.379 187.815C176.226 187.543 175.51 187.266 174.567 187.46C173.885 187.601 172.272 188.175 172.003 190.514V199.205C172.003 199.787 171.656 200.312 171.123 200.535C170.581 200.763 169.989 200.647 169.568 200.238C169.088 199.767 168.376 199.238 167.727 199.378C167.066 199.523 166.424 200.349 165.879 201.767C165.134 203.701 165.664 205.581 166.089 207.09C166.16 207.337 166.226 207.573 166.284 207.8C168.331 215.776 164.584 223.987 157.368 227.331C153.749 228.996 150.461 229.624 149.1 229.831Z" fill="black"/>
<path d="M182.053 206.589C181.842 206.589 181.639 206.481 181.523 206.291C181.346 205.998 181.441 205.618 181.73 205.44C185.403 203.217 183.207 196.985 182.413 195.059L171.416 200.44C171.11 200.593 170.738 200.465 170.585 200.155C170.436 199.849 170.56 199.477 170.87 199.324L182.45 193.658C182.599 193.584 182.768 193.576 182.925 193.629C183.083 193.683 183.211 193.799 183.281 193.948C183.463 194.328 187.669 203.291 182.371 206.498C182.272 206.56 182.164 206.589 182.053 206.589Z" fill="black"/>
<path d="M182.371 211.226C182.214 211.226 182.053 211.164 181.933 211.044C181.689 210.804 181.689 210.408 181.933 210.168L183.513 208.585C183.918 208.176 183.972 207.54 183.637 207.069L182.549 205.54C182.351 205.259 182.417 204.874 182.698 204.676C182.975 204.478 183.364 204.544 183.562 204.825L184.65 206.354C185.337 207.317 185.225 208.627 184.39 209.461L182.81 211.044C182.69 211.164 182.533 211.226 182.371 211.226Z" fill="black"/>
<path d="M169.662 212.614C169.393 212.614 169.104 212.586 168.806 212.511C167.367 212.156 166.143 210.933 165.163 208.883C165.014 208.573 165.146 208.205 165.456 208.056C165.767 207.907 166.135 208.04 166.283 208.35C167.09 210.04 168.037 211.036 169.092 211.304C170.187 211.581 171.052 210.974 171.089 210.949C171.366 210.751 171.755 210.809 171.953 211.085C172.156 211.362 172.098 211.747 171.825 211.949C171.776 211.974 170.899 212.614 169.662 212.614Z" fill="black"/>
<path d="M113.393 274.156C121.793 279.764 139.158 287.996 171.755 285.988C173.984 285.852 176.039 287.182 176.829 289.294L178.769 297.138C182.057 310.428 188.243 322.809 196.87 333.38L202.921 340.79C203.094 341 202.929 341.318 202.66 341.302L180.51 339.657C146.23 335.078 119.601 317.718 111.057 286.091L108.662 277.992C108.133 276.037 111.718 273.041 113.393 274.156Z" fill="white"/>
<path d="M202.776 341.335C202.594 341.335 202.416 341.257 202.292 341.104L196.519 333.934C187.801 323.255 181.436 310.51 178.111 297.08L176.229 289.48C175.526 287.641 173.748 286.488 171.788 286.608C168.773 286.794 165.861 286.881 163.07 286.881C137.189 286.881 120.862 279.446 113.062 274.685C112.004 274.041 110.933 274.33 110.287 274.814C109.63 275.305 109.043 276.272 109.373 277.496L111.652 285.93C119.204 313.887 142.007 332.491 175.865 338.322C176.205 338.38 176.428 338.703 176.37 339.037C176.312 339.372 175.994 339.599 175.655 339.542C159.071 336.686 145.084 330.863 134.084 322.239C122.372 313.056 114.423 300.948 110.453 286.252L108.174 277.818C107.761 276.293 108.286 274.764 109.543 273.822C110.788 272.892 112.384 272.818 113.712 273.628C122.227 278.822 141.081 287.261 171.713 285.368C174.232 285.215 176.523 286.703 177.404 289.075C177.412 289.096 177.42 289.12 177.425 289.141L179.315 296.778C182.594 310.031 188.876 322.606 197.482 333.148L203.256 340.323C203.471 340.591 203.429 340.98 203.16 341.195C203.049 341.29 202.912 341.335 202.776 341.335Z" fill="black"/>
</svg>
