<svg width="344" height="344" viewBox="0 0 344 344" fill="none" xmlns="http://www.w3.org/2000/svg">
<path d="M3.98541 281.232C14.0928 305.791 37.7154 317.404 52.8144 324.83C112.326 354.092 202.738 350.658 267.824 297.278C283.055 284.785 358.129 219.343 340.656 130.725C325.21 52.3882 247.493 6.94267 182.043 0.905036C127.822 -4.09947 57.0038 15.6789 31.9752 63.4675C16.2351 93.5193 35.143 103.061 22.2689 171.157C11.1276 230.091 -8.38001 251.192 3.98541 281.232Z" fill="#CADDFF"/>
<path d="M187.85 58.8515C187.627 58.8515 187.416 58.7317 187.304 58.525L167.958 22.2662C167.796 21.9645 167.912 21.5884 168.214 21.4273C168.516 21.2661 168.892 21.3818 169.054 21.6835L188.4 57.9424C188.561 58.244 188.445 58.6201 188.143 58.7813C188.048 58.8267 187.949 58.8515 187.85 58.8515Z" fill="black"/>
<path d="M193.887 58.2109C193.879 58.2109 193.871 58.2109 193.863 58.2109C193.519 58.1985 193.255 57.9092 193.267 57.5662L194.429 26.4028C194.441 26.0598 194.731 25.8035 195.07 25.8077C195.413 25.8201 195.678 26.1093 195.666 26.4523L194.504 57.6158C194.495 57.9505 194.218 58.2109 193.887 58.2109Z" fill="black"/>
<path d="M176.51 56.7278C176.353 56.7278 176.191 56.6658 176.071 56.5459L157.37 37.8049C157.13 37.5611 157.13 37.1685 157.37 36.9288C157.614 36.6891 158.007 36.6891 158.247 36.9288L176.948 55.6698C177.192 55.9137 177.188 56.3063 176.948 56.5459C176.828 56.6699 176.671 56.7278 176.51 56.7278Z" fill="black"/>
<path d="M323.064 58.0619L323.068 57.9875C323.113 57.4048 322.675 56.8965 322.088 56.8965H322.046H190.754H190.712C190.129 56.8965 189.616 57.4048 189.575 57.9875L176.432 233.401C176.386 233.984 176.829 234.463 177.412 234.463H308.783C309.367 234.463 309.879 234 309.921 233.418L322.642 63.6656L323.064 58.0619Z" fill="#5479F7"/>
<path d="M306.012 234.711H174.641C174.057 234.711 173.619 234.236 173.66 233.653L186.803 57.7435C186.849 57.1608 187.358 56.6855 187.941 56.6855H319.312C319.895 56.6855 320.333 57.1608 320.292 57.7435L307.149 233.653C307.108 234.236 306.599 234.711 306.012 234.711Z" fill="white"/>
<path d="M306.012 235.331H174.641C174.186 235.331 173.764 235.149 173.462 234.822C173.156 234.496 173.007 234.062 173.045 233.607L186.188 57.6978C186.258 56.7845 187.027 56.0654 187.945 56.0654H319.317C319.771 56.0654 320.193 56.2473 320.495 56.5737C320.801 56.9002 320.95 57.3341 320.913 57.7887L307.77 233.698C307.7 234.612 306.93 235.331 306.012 235.331ZM187.945 57.3052C187.685 57.3052 187.445 57.5283 187.424 57.7887L174.281 233.698C174.273 233.806 174.306 233.909 174.372 233.979C174.418 234.029 174.505 234.091 174.641 234.091H306.012C306.273 234.091 306.513 233.868 306.533 233.607L319.676 57.6978C319.685 57.5903 319.652 57.487 319.585 57.4168C319.54 57.3672 319.453 57.3052 319.317 57.3052H187.945Z" fill="black"/>
<path d="M312.522 46.3045L312.526 46.226C312.572 45.6433 312.133 45.1309 311.546 45.1309H311.505H180.216H180.175C179.591 45.1309 179.079 45.6433 179.037 46.226L165.894 222.144C165.849 222.727 166.291 223.21 166.875 223.21H298.246C298.829 223.21 299.342 222.747 299.383 222.165L312.104 51.9248L312.522 46.3045Z" fill="#5479F7"/>
<path d="M295.47 223.463H164.099C163.516 223.463 163.078 222.988 163.119 222.405L176.262 46.4954C176.307 45.9127 176.816 45.4375 177.399 45.4375H308.77C309.354 45.4375 309.792 45.9127 309.751 46.4954L296.608 222.405C296.566 222.988 296.053 223.463 295.47 223.463Z" fill="white"/>
<path d="M295.429 224.083H164.136C163.669 224.083 163.239 223.897 162.929 223.566C162.619 223.231 162.465 222.789 162.499 222.322L169.893 123.364C169.918 123.021 170.22 122.769 170.559 122.794C170.902 122.819 171.159 123.116 171.13 123.459L163.735 222.417C163.727 222.537 163.76 222.649 163.834 222.727C163.909 222.806 164.012 222.851 164.132 222.851H295.425C295.71 222.851 295.967 222.611 295.987 222.326L304.912 102.892C304.937 102.549 305.239 102.293 305.578 102.322C305.921 102.346 306.177 102.644 306.153 102.987L297.228 222.421C297.162 223.347 296.368 224.083 295.429 224.083Z" fill="black"/>
<path d="M173.147 88.8163C173.131 88.8163 173.114 88.8163 173.102 88.8163C172.759 88.7915 172.502 88.4939 172.527 88.1509L175.641 46.4908C175.711 45.5527 176.501 44.8213 177.44 44.8213H308.733C309.2 44.8213 309.63 45.0073 309.94 45.3379C310.251 45.6726 310.404 46.1148 310.371 46.5818L309.448 58.9215C309.424 59.2645 309.122 59.5166 308.782 59.4918C308.439 59.467 308.183 59.1695 308.212 58.8265L309.134 46.4867C309.142 46.3669 309.109 46.2553 309.035 46.1768C308.96 46.0982 308.857 46.0528 308.737 46.0528H177.444C177.159 46.0528 176.903 46.2925 176.882 46.5776L173.768 88.2377C173.743 88.5683 173.47 88.8163 173.147 88.8163Z" fill="black"/>
<path d="M272.377 91.7958C269.884 91.7958 267.444 91.2297 265.202 90.1056C261.431 88.2129 258.676 84.9317 257.456 80.8611C254.859 72.2159 259.971 62.554 268.85 59.3224C273.304 57.6983 277.973 57.9173 281.997 59.934C285.768 61.8267 288.523 65.1079 289.743 69.1785C292.34 77.8237 287.224 87.4856 278.349 90.7172C276.377 91.4404 274.362 91.7958 272.377 91.7958ZM274.822 59.4877C272.981 59.4877 271.112 59.8183 269.276 60.4877C261.004 63.5003 256.236 72.4803 258.643 80.5057C259.764 84.2457 262.291 87.2624 265.756 88.9981C269.474 90.8619 273.796 91.0561 277.923 89.556C286.194 86.5434 290.963 77.5634 288.556 69.538C287.435 65.798 284.908 62.7813 281.443 61.0456C279.375 60.0084 277.121 59.4877 274.822 59.4877Z" fill="#99B9FF"/>
<path d="M272.704 87.5146C270.847 87.5146 269.027 87.0931 267.357 86.2542C264.54 84.845 262.489 82.3944 261.579 79.3611C259.648 72.9268 263.448 65.732 270.057 63.3269C273.374 62.1202 276.852 62.2814 279.85 63.7856C282.667 65.1948 284.718 67.6454 285.628 70.6787C287.559 77.113 283.758 84.3078 277.15 86.7129C275.677 87.2502 274.176 87.5146 272.704 87.5146ZM274.495 63.7691C273.163 63.7691 271.807 64.0088 270.475 64.4923C264.474 66.6784 261.017 73.1871 262.762 79.0057C263.572 81.7126 265.401 83.8904 267.907 85.1467C270.599 86.4939 273.725 86.6385 276.72 85.5475C282.72 83.3614 286.178 76.8527 284.432 71.0341C283.622 68.3273 281.794 66.1494 279.288 64.8931C277.795 64.1451 276.165 63.7691 274.495 63.7691Z" fill="#99B9FF"/>
<path d="M295.884 72.8516L254.532 87.9106L251.314 77.1908L292.666 62.1318L295.884 72.8516Z" fill="white"/>
<path d="M254.532 88.5307C254.437 88.5307 254.342 88.51 254.255 88.4646C254.102 88.386 253.986 88.2538 253.941 88.0885L250.723 77.3687C250.628 77.0546 250.798 76.7199 251.104 76.6083L292.455 61.5493C292.617 61.4915 292.795 61.4998 292.948 61.5783C293.101 61.6568 293.216 61.789 293.262 61.9543L296.479 72.6741C296.575 72.9882 296.405 73.3229 296.099 73.4345L254.747 88.4935C254.677 88.5183 254.607 88.5307 254.532 88.5307ZM252.076 77.5753L254.937 87.105L295.123 72.4716L292.261 62.942L252.076 77.5753Z" fill="#99B9FF"/>
<path d="M280.876 79.9682C280.711 79.9682 280.546 79.9392 280.388 79.8731C279.867 79.6624 279.561 79.1623 279.603 78.5962L280.107 71.8519C280.128 71.5998 279.983 71.5006 279.859 71.4593C279.685 71.4056 279.425 71.4386 279.259 71.7155L276.795 75.8439C276.472 76.3853 275.86 76.6415 275.264 76.4803C274.702 76.3274 274.338 75.8522 274.334 75.2653C274.33 75.2405 274.317 75.2323 274.284 75.2323C274.251 75.2364 274.218 75.2571 274.189 75.2943L271.6 78.7201C271.257 79.1747 270.686 79.3731 270.153 79.2284C269.644 79.0879 269.293 78.6747 269.235 78.1499L268.507 71.608C268.482 71.3849 268.333 71.3105 268.213 71.2857C268.039 71.2526 267.787 71.3105 267.647 71.5833L264.454 77.7035C264.297 78.0093 263.92 78.1251 263.619 77.968C263.317 77.811 263.197 77.4349 263.354 77.1332L266.547 71.013C266.915 70.3063 267.675 69.9261 268.441 70.0707C269.152 70.203 269.661 70.7526 269.739 71.4758L270.467 78.0176C270.471 78.0341 270.488 78.0424 270.517 78.0424C270.554 78.0383 270.583 78.0176 270.612 77.9804L273.201 74.5545C273.556 74.0834 274.164 73.8851 274.714 74.0669C275.235 74.2405 275.574 74.7074 275.579 75.2612C275.583 75.286 275.603 75.2984 275.637 75.2901C275.674 75.2819 275.707 75.2571 275.732 75.2157L278.196 71.0873C278.622 70.3724 279.462 70.0418 280.235 70.2856C280.959 70.5129 281.406 71.1824 281.348 71.951L280.843 78.6954C280.847 78.7243 280.868 78.7367 280.885 78.7367C280.918 78.7367 280.951 78.716 280.98 78.6788L289.201 68.7401C289.421 68.4756 289.809 68.4384 290.074 68.6574C290.339 68.8764 290.376 69.2649 290.157 69.5294L281.935 79.4681C281.662 79.7905 281.273 79.9682 280.876 79.9682Z" fill="black"/>
<path d="M236.948 66.0998H195.286C193.714 66.0998 192.535 64.827 192.655 63.2608L192.672 63.05C192.788 61.4796 194.157 60.2109 195.728 60.2109H237.39C238.962 60.2109 240.14 61.4838 240.02 63.05L240.004 63.2608C239.884 64.8311 238.519 66.0998 236.948 66.0998Z" fill="#CADDFF"/>
<path d="M236.361 81.3781H194.699C193.127 81.3781 191.949 80.1053 192.068 78.5391L192.085 78.3283C192.201 76.7579 193.57 75.4893 195.141 75.4893H236.803C238.375 75.4893 239.549 76.7621 239.433 78.3283L239.417 78.5391C239.301 80.1053 237.932 81.3781 236.361 81.3781Z" fill="#CADDFF"/>
<path d="M192.767 116.537C192.424 117.926 191.721 119.017 190.654 119.814C189.591 120.612 188.301 121.009 186.787 121.009C185.133 121.009 183.929 120.451 183.177 119.339C182.424 118.227 182.217 116.698 182.556 114.756L182.693 113.967C182.912 112.727 183.322 111.636 183.921 110.69C184.525 109.743 185.278 109.02 186.175 108.516C187.073 108.012 188.065 107.76 189.14 107.76C190.629 107.76 191.758 108.156 192.532 108.954C193.301 109.752 193.632 110.872 193.52 112.31H190.861C190.943 111.479 190.815 110.872 190.48 110.5C190.145 110.124 189.575 109.938 188.756 109.938C187.871 109.938 187.151 110.256 186.601 110.888C186.051 111.525 185.65 112.508 185.406 113.843L185.236 114.818C184.992 116.211 185.025 117.232 185.336 117.872C185.646 118.517 186.254 118.839 187.164 118.839C187.987 118.839 188.632 118.653 189.103 118.277C189.575 117.901 189.905 117.322 190.104 116.537H192.767Z" fill="#5479F7"/>
<path d="M202.507 115.244H197.404L196.8 118.699H202.792L202.42 120.835H193.769L196.027 107.938H204.662L204.285 110.091H198.309L197.772 113.165H202.875L202.507 115.244Z" fill="#5479F7"/>
<path d="M209.574 116.112H207.457L206.63 120.831H203.971L206.229 107.934H211.022C212.548 107.934 213.664 108.272 214.372 108.95C215.079 109.628 215.327 110.587 215.108 111.831C214.955 112.711 214.636 113.442 214.153 114.033C213.669 114.62 213.011 115.087 212.176 115.438L214.045 120.707L214.024 120.831H211.171L209.574 116.112ZM207.833 113.963H209.98C210.646 113.963 211.196 113.794 211.622 113.455C212.048 113.116 212.312 112.649 212.416 112.05C212.523 111.442 212.432 110.963 212.147 110.616C211.861 110.268 211.361 110.095 210.646 110.095H208.507L207.833 113.963Z" fill="#5479F7"/>
<path d="M226.87 110.091H222.916L221.034 120.835H218.375L220.257 110.091H216.357L216.733 107.938H227.246L226.87 110.091Z" fill="#5479F7"/>
<path d="M229.33 120.835H226.671L228.929 107.938H231.588L229.33 120.835Z" fill="#5479F7"/>
<path d="M240.48 115.566H235.376L234.454 120.835H231.795L234.053 107.938H242.456L242.08 110.091H236.336L235.753 113.421H240.856L240.48 115.566Z" fill="#5479F7"/>
<path d="M244.566 120.835H241.907L244.165 107.938H246.824L244.566 120.835Z" fill="#5479F7"/>
<path d="M257.915 116.537C257.572 117.926 256.869 119.017 255.802 119.814C254.739 120.612 253.449 121.009 251.935 121.009C250.281 121.009 249.077 120.451 248.325 119.339C247.572 118.227 247.365 116.698 247.704 114.756L247.841 113.967C248.06 112.727 248.469 111.636 249.069 110.69C249.673 109.743 250.426 109.02 251.323 108.516C252.22 108.012 253.213 107.76 254.288 107.76C255.777 107.76 256.906 108.156 257.679 108.954C258.449 109.752 258.78 110.872 258.668 112.31H256.009C256.091 111.479 255.963 110.872 255.628 110.5C255.293 110.124 254.722 109.938 253.904 109.938C253.019 109.938 252.299 110.256 251.749 110.888C251.199 111.525 250.798 112.508 250.554 113.843L250.384 114.818C250.14 116.211 250.173 117.232 250.483 117.872C250.794 118.517 251.402 118.839 252.311 118.839C253.134 118.839 253.78 118.653 254.251 118.277C254.723 117.901 255.053 117.322 255.252 116.537H257.915Z" fill="#5479F7"/>
<path d="M266.658 118.178H261.997L260.645 120.835H257.816L264.88 107.938H267.344L269.917 120.835H267.088L266.658 118.178ZM263.093 116.025H266.319L265.541 111.198L263.093 116.025Z" fill="#5479F7"/>
<path d="M281.592 110.091H277.638L275.756 120.835H273.097L274.979 110.091H271.079L271.455 107.938H281.968L281.592 110.091Z" fill="#5479F7"/>
<path d="M289.97 115.244H284.867L284.263 118.699H290.256L289.884 120.835H281.232L283.49 107.938H292.125L291.749 110.091H285.773L285.235 113.165H290.339L289.97 115.244Z" fill="#5479F7"/>
<path d="M312.31 317.66C311.297 323.425 305.784 328.111 300.015 328.111H245.487C242.274 325.404 238.862 322.904 235.607 320.247C229.908 315.594 223.92 311.254 217.795 307.114C205.355 298.712 192.246 291.203 178.995 283.93C172.027 280.103 164.789 276.64 157.647 273.078C150.459 269.495 143.255 265.945 136.047 262.396C129.459 259.151 122.875 255.912 116.299 252.647C101.353 202.164 85.1253 144.928 88.3469 144.928L333.385 138.019C339.154 138.019 343.021 142.709 342.012 148.47L312.31 317.66Z" fill="#5479F7"/>
<path d="M81.3494 138.614H328.298C333.749 138.614 337.392 143.028 336.437 148.474L306.743 317.661C305.788 323.107 300.594 327.521 295.143 327.521H48.1944C42.7437 327.521 39.1001 323.107 40.0554 317.661L69.749 148.474C70.7044 143.028 75.8987 138.614 81.3494 138.614Z" fill="#99B9FF"/>
<path d="M305.548 321.004C305.511 321.004 305.474 320.999 305.437 320.995C305.098 320.933 304.874 320.611 304.936 320.276L335.829 148.367C336.264 145.891 335.705 143.573 334.254 141.85C332.835 140.164 330.722 139.234 328.302 139.234H302.856C302.513 139.234 302.236 138.957 302.236 138.614C302.236 138.271 302.513 137.994 302.856 137.994H328.302C331.098 137.994 333.546 139.081 335.205 141.052C336.896 143.065 337.55 145.739 337.053 148.586L306.161 320.495C306.103 320.793 305.842 321.004 305.548 321.004Z" fill="black"/>
<path d="M62.8553 191.428C62.8222 191.428 62.7891 191.424 62.756 191.42C62.4169 191.366 62.1895 191.048 62.2432 190.709L69.1372 148.375C70.1422 142.647 75.6218 137.994 81.3496 137.994H187.37C187.713 137.994 187.99 138.271 187.99 138.614C187.99 138.957 187.713 139.234 187.37 139.234H81.3496C76.1967 139.234 71.267 143.428 70.3613 148.582L63.4673 190.907C63.4177 191.213 63.1572 191.428 62.8553 191.428Z" fill="black"/>
<path d="M9.22102 327.624H201.485H233.308H296.413C300.239 327.624 303.353 330.785 303.353 334.848C303.353 338.91 300.239 342.071 296.413 342.071H233.308H198.648H9.21688C5.38319 342.071 2.27734 338.918 2.27734 334.848C2.28148 330.777 5.38733 327.624 9.22102 327.624Z" fill="#99B9FF"/>
<path d="M87.4376 145.135H320.826C325.979 145.135 329.42 149.247 328.518 154.317L300.454 311.821C299.552 316.891 294.643 321.003 289.49 321.003H56.1022C50.9493 321.003 47.5085 316.891 48.4101 311.821L76.4742 154.317C77.3757 149.247 82.2847 145.135 87.4376 145.135Z" fill="white"/>
<path d="M327.298 161.156L328.518 154.329C329.419 149.259 325.978 145.159 320.826 145.159H87.4374C82.2844 145.159 77.3796 149.259 76.4739 154.329L75.2539 161.156H327.298Z" fill="#5479F7"/>
<path d="M297.16 153.971C297.694 151.71 296.293 149.444 294.03 148.91C291.767 148.376 289.5 149.777 288.966 152.038C288.431 154.299 289.832 156.565 292.095 157.099C294.358 157.633 296.626 156.232 297.16 153.971Z" fill="#CADDFF"/>
<path d="M304.643 157.38C306.968 157.38 308.853 155.496 308.853 153.173C308.853 150.849 306.968 148.966 304.643 148.966C302.318 148.966 300.433 150.849 300.433 153.173C300.433 155.496 302.318 157.38 304.643 157.38Z" fill="#CADDFF"/>
<path d="M317.68 157.038C319.829 156.148 320.849 153.687 319.959 151.541C319.069 149.394 316.606 148.375 314.458 149.264C312.31 150.153 311.29 152.614 312.18 154.761C313.069 156.907 315.532 157.927 317.68 157.038Z" fill="#CADDFF"/>
<path d="M273.398 313.549H61.8956C60.4895 313.549 59.4309 312.656 59.6914 311.693L84.9226 168.931C84.9764 168.728 98.26 169.612 98.5536 169.612L310.916 169.344C313.935 169.34 316.21 172.088 315.643 175.051L289.717 310.11C289.395 311.796 287.951 313.036 286.235 313.102C282.046 313.272 274.713 313.549 273.398 313.549Z" fill="#CADDFF"/>
<path d="M296.413 342.687H63.7317C63.3884 342.687 63.1113 342.41 63.1113 342.067C63.1113 341.724 63.3884 341.447 63.7317 341.447H296.413C299.957 341.447 302.732 338.546 302.732 334.844C302.732 331.141 299.957 328.24 296.413 328.24H68.1113C67.768 328.24 67.491 327.963 67.491 327.62C67.491 327.277 67.768 327 68.1113 327H296.413C300.652 327 303.973 330.447 303.973 334.844C303.977 339.241 300.656 342.687 296.413 342.687Z" fill="black"/>
<mask id="mask0_1334_9406" style="mask-type:luminance" maskUnits="userSpaceOnUse" x="101" y="181" width="44" height="44">
<path d="M119.484 224.356C107.772 224.356 99.9517 214.868 102.015 203.164C104.079 191.461 115.249 181.973 126.961 181.973C138.673 181.973 146.494 191.461 144.43 203.164C142.366 214.868 131.196 224.356 119.484 224.356Z" fill="white"/>
</mask>
<g mask="url(#mask0_1334_9406)">
<path d="M103.699 218.178C107.268 222.265 112.615 224.79 119.005 224.827C125.394 224.865 131.647 222.393 136.693 218.352C131.99 216.781 126.552 215.885 120.634 215.856C114.716 215.818 108.959 216.657 103.699 218.178Z" fill="#5479F7"/>
<path d="M119.133 225.443C119.087 225.443 119.046 225.443 119 225.443C112.665 225.41 107.065 222.972 103.231 218.583L102.59 217.851L103.525 217.583C108.934 216.025 114.579 215.231 120.311 215.231C120.419 215.231 120.526 215.231 120.638 215.231C126.486 215.26 131.953 216.112 136.891 217.761L137.97 218.12L137.081 218.831C131.755 223.1 125.386 225.443 119.133 225.443ZM104.84 218.5C108.405 222.158 113.392 224.174 119.004 224.203C124.679 224.24 130.431 222.244 135.373 218.579C130.857 217.207 125.903 216.496 120.626 216.471C115.249 216.438 109.943 217.124 104.84 218.5Z" fill="black"/>
<path d="M137.139 201.888C136.374 194.354 133.802 184.473 125.493 185.688C117.524 186.853 112.367 195.366 109.522 201.962C107.793 205.975 110.167 209.872 114.31 209.896L129.496 209.975C133.731 209.996 137.553 205.966 137.139 201.888Z" fill="black"/>
<path d="M131.982 193.135C131.982 193.118 131.982 193.081 131.982 193.081L118.198 192.978C118.198 192.978 118.19 192.998 118.182 193.011C117.88 193.697 117.652 194.424 117.516 195.172L116.784 199.209C116.292 201.912 117.14 204.297 118.823 205.689L116.908 216.227C116.527 218.322 117.917 220.033 120.014 220.046C122.111 220.058 124.116 218.364 124.501 216.269L126.387 205.883C128.69 204.54 130.514 202.09 131.023 199.284L131.85 194.73C131.949 194.18 131.995 193.647 131.982 193.135Z" fill="white"/>
<path d="M120.034 220.658C120.026 220.658 120.018 220.658 120.01 220.658C118.823 220.65 117.781 220.179 117.073 219.331C116.354 218.464 116.077 217.323 116.296 216.112L118.153 205.888C118.215 205.549 118.537 205.33 118.872 205.388C119.211 205.45 119.435 205.773 119.373 206.107L117.516 216.331C117.363 217.174 117.545 217.959 118.024 218.538C118.492 219.1 119.199 219.414 120.014 219.418C120.018 219.418 120.026 219.418 120.03 219.418C121.829 219.418 123.558 217.955 123.885 216.149L125.75 205.884C125.812 205.549 126.134 205.326 126.469 205.384C126.809 205.446 127.032 205.768 126.97 206.103L125.105 216.368C124.679 218.74 122.408 220.658 120.034 220.658Z" fill="black"/>
<path d="M123.587 202.635C123.583 202.635 123.575 202.635 123.571 202.635C122.64 202.631 121.747 202.239 121.114 201.561C120.882 201.309 120.895 200.916 121.147 200.685C121.399 200.453 121.788 200.466 122.024 200.718C122.429 201.152 122.979 201.396 123.575 201.396C124.162 201.391 124.729 201.16 125.138 200.726C125.374 200.478 125.767 200.466 126.015 200.701C126.263 200.937 126.275 201.329 126.04 201.577C125.394 202.263 124.522 202.635 123.587 202.635Z" fill="black"/>
<path d="M122.532 207.595C122.52 207.595 122.508 207.595 122.495 207.595C122.152 207.595 121.875 207.314 121.879 206.971C121.879 206.628 122.156 206.355 122.499 206.355C122.512 206.355 122.524 206.355 122.537 206.355C126.164 206.355 129.691 203.14 130.415 199.169L131.242 194.615C131.593 192.689 131.184 190.85 130.117 189.569C129.195 188.461 127.851 187.845 126.325 187.837C126.312 187.837 126.304 187.837 126.292 187.837C122.532 187.837 118.877 191.168 118.128 195.28L117.396 199.317C116.896 202.074 117.909 204.59 119.977 205.727C120.279 205.892 120.386 206.268 120.221 206.57C120.055 206.872 119.679 206.979 119.377 206.814C116.834 205.417 115.576 202.388 116.172 199.098L116.904 195.061C117.752 190.387 121.958 186.602 126.288 186.602C126.3 186.602 126.312 186.602 126.325 186.602C128.223 186.61 129.906 187.387 131.064 188.779C132.363 190.342 132.871 192.552 132.454 194.838L131.627 199.392C130.812 203.925 126.734 207.595 122.532 207.595Z" fill="black"/>
</g>
<path d="M119.389 225.067C115.688 225.067 112.168 224.129 109.199 222.29C104.886 219.616 102.061 215.285 101.242 210.095C99.4556 198.743 107.768 186.436 119.765 182.663C125.898 180.733 132.189 181.341 137.015 184.333C141.328 187.006 144.153 191.337 144.972 196.528C145.567 200.321 145.055 204.371 143.487 208.239C143.359 208.558 142.995 208.711 142.681 208.582C142.362 208.454 142.209 208.091 142.338 207.777C143.822 204.119 144.306 200.297 143.748 196.722C142.987 191.891 140.365 187.866 136.366 185.386C131.846 182.585 125.932 182.027 120.142 183.849C108.703 187.449 100.775 199.14 102.47 209.909C103.231 214.74 105.853 218.765 109.852 221.245C114.373 224.046 120.287 224.604 126.076 222.782C131.023 221.224 135.551 218.046 138.831 213.831C139.041 213.562 139.43 213.513 139.699 213.723C139.968 213.934 140.018 214.323 139.807 214.591C136.378 219.005 131.63 222.331 126.444 223.964C124.087 224.699 121.705 225.067 119.389 225.067Z" fill="black"/>
<path d="M276.765 304.592C280.53 301.147 281.239 295.797 278.348 292.643C275.458 289.488 270.062 289.724 266.298 293.169C262.533 296.613 261.824 301.963 264.715 305.117C267.605 308.272 273 308.036 276.765 304.592Z" fill="white"/>
<path d="M276.591 298.312L275.971 301.821H275.557L276.14 298.515L276.591 298.312Z" fill="black"/>
<path d="M271.302 300.44C271.281 300.449 271.265 300.453 271.252 300.457C271.24 300.453 271.224 300.449 271.207 300.44L267.568 298.721L267.564 298.754L267.266 300.453C267.253 300.527 267.245 300.593 267.303 300.626L270.74 302.573C270.777 302.593 270.827 302.602 270.876 302.589C270.922 302.598 270.971 302.593 271.021 302.573L275.144 300.626C275.214 300.593 275.231 300.527 275.243 300.453L275.541 298.754L275.545 298.721L271.302 300.44Z" fill="#5479F7"/>
<path d="M275.942 300.944L275.098 302.337C275.09 302.354 275.086 302.374 275.094 302.387L275.508 303.159C275.516 303.172 275.529 303.18 275.545 303.18C275.562 303.18 275.578 303.172 275.591 303.159L276.277 302.387C276.29 302.37 276.298 302.354 276.294 302.337L275.942 300.944Z" fill="#5479F7"/>
<path d="M277.778 296.985L272.394 294.46C272.344 294.436 272.286 294.436 272.229 294.46L265.918 296.985C265.897 296.994 265.856 297.014 265.851 297.035L265.781 297.44C265.777 297.461 265.814 297.481 265.835 297.49L271.24 300.015C271.29 300.039 271.356 300.039 271.414 300.015L277.687 297.49C277.708 297.481 277.716 297.461 277.721 297.44L277.791 297.035C277.795 297.014 277.795 296.994 277.778 296.985Z" fill="#5479F7"/>
<path d="M249.288 205.161L165.17 204.859C163.959 204.855 163.107 203.896 163.264 202.714C163.421 201.532 164.529 200.582 165.741 200.586L249.859 200.888C251.071 200.892 251.923 201.851 251.766 203.032C251.608 204.214 250.5 205.165 249.288 205.161Z" fill="#5479F7"/>
<path d="M158.991 202.701C158.834 203.883 157.726 204.834 156.514 204.83C155.302 204.826 154.45 203.867 154.608 202.685C154.765 201.503 155.873 200.553 157.085 200.557C158.297 200.561 159.148 201.52 158.991 202.701Z" fill="#5479F7"/>
<path d="M248.06 214.368L163.942 214.066C162.73 214.062 161.879 213.103 162.036 211.921C162.193 210.739 163.301 209.789 164.513 209.793L248.631 210.095C249.843 210.099 250.695 211.058 250.537 212.239C250.376 213.421 249.268 214.372 248.06 214.368Z" fill="#99B9FF"/>
<path d="M157.763 211.908C157.606 213.09 156.498 214.041 155.286 214.037C154.074 214.033 153.222 213.074 153.38 211.892C153.537 210.71 154.645 209.76 155.857 209.764C157.068 209.768 157.92 210.727 157.763 211.908Z" fill="#99B9FF"/>
<path d="M246.831 223.576L162.713 223.274C161.501 223.27 160.65 222.311 160.807 221.129C160.964 219.947 162.072 218.997 163.284 219.001L247.402 219.303C248.614 219.307 249.466 220.266 249.308 221.447C249.147 222.625 248.039 223.58 246.831 223.576Z" fill="#99B9FF"/>
<path d="M156.531 221.116C156.374 222.298 155.265 223.249 154.054 223.245C152.842 223.241 151.99 222.282 152.147 221.1C152.304 219.918 153.413 218.968 154.624 218.972C155.836 218.976 156.688 219.935 156.531 221.116Z" fill="#99B9FF"/>
<path d="M132.4 284.295L127.259 283.53L125.738 278.753C125.411 277.728 123.947 277.728 123.256 278.753L120.059 283.53L114.65 284.295C113.488 284.46 112.789 285.853 113.471 286.65L116.635 290.37L114.815 295.618C114.423 296.746 115.461 297.606 116.565 297.073L121.718 294.593L126.002 297.073C126.924 297.606 128.26 296.746 128.264 295.618L128.281 290.37L132.747 286.65C133.715 285.853 133.504 284.46 132.4 284.295Z" fill="#5479F7"/>
<path d="M156.75 284.295L151.609 283.53L150.087 278.753C149.76 277.728 148.296 277.728 147.606 278.753L144.409 283.53L139 284.295C137.837 284.46 137.139 285.853 137.821 286.65L140.985 290.37L139.165 295.618C138.772 296.746 139.81 297.606 140.914 297.073L146.067 294.593L150.352 297.073C151.274 297.606 152.61 296.746 152.614 295.618L152.631 290.37L157.097 286.65C158.065 285.853 157.854 284.46 156.75 284.295Z" fill="#5479F7"/>
<path d="M181.101 284.295L175.96 283.53L174.438 278.753C174.112 277.728 172.648 277.728 171.957 278.753L168.76 283.53L163.351 284.295C162.189 284.46 161.49 285.853 162.172 286.65L165.336 290.37L163.516 295.618C163.123 296.746 164.161 297.606 165.265 297.073L170.418 294.593L174.703 297.073C175.625 297.606 176.961 296.746 176.965 295.618L176.982 290.37L181.448 286.65C182.416 285.853 182.205 284.46 181.101 284.295Z" fill="#5479F7"/>
<path d="M205.451 284.295L200.311 283.53L198.789 278.753C198.462 277.728 196.998 277.728 196.307 278.753L193.111 283.53L187.701 284.295C186.539 284.46 185.84 285.853 186.523 286.65L189.686 290.37L187.867 295.618C187.474 296.746 188.512 297.606 189.616 297.073L194.769 294.593L199.054 297.073C199.976 297.606 201.312 296.746 201.316 295.618L201.332 290.37L205.799 286.65C206.766 285.853 206.555 284.46 205.451 284.295Z" fill="#5479F7"/>
<path d="M229.801 284.295L224.661 283.53L223.139 278.753C222.812 277.728 221.348 277.728 220.658 278.753L217.461 283.53L212.051 284.295C210.889 284.46 210.19 285.853 210.873 286.65L214.037 290.37L212.217 295.618C211.824 296.746 212.862 297.606 213.966 297.073L219.119 294.593L223.404 297.073C224.326 297.606 225.662 296.746 225.666 295.618L225.682 290.37L230.149 286.65C231.116 285.853 230.906 284.46 229.801 284.295Z" fill="#5479F7"/>
<path d="M109.021 259.846C108.678 261.235 107.975 262.326 106.908 263.123C105.845 263.921 104.555 264.318 103.041 264.318C101.387 264.318 100.183 263.76 99.4307 262.648C98.678 261.537 98.4712 260.008 98.8103 258.065L98.9468 257.276C99.166 256.036 99.5754 254.945 100.175 253.999C100.779 253.052 101.532 252.329 102.429 251.825C103.331 251.321 104.319 251.069 105.394 251.069C106.883 251.069 108.012 251.466 108.785 252.263C109.555 253.061 109.885 254.181 109.774 255.619H107.115C107.197 254.788 107.069 254.181 106.734 253.809C106.399 253.433 105.828 253.247 105.01 253.247C104.125 253.247 103.405 253.565 102.855 254.197C102.305 254.834 101.904 255.817 101.66 257.152L101.49 258.127C101.246 259.52 101.279 260.541 101.589 261.181C101.9 261.826 102.508 262.148 103.417 262.148C104.24 262.148 104.886 261.962 105.357 261.586C105.828 261.21 106.159 260.632 106.358 259.846H109.021Z" fill="#5479F7"/>
<path d="M121.693 257.987C121.469 259.256 121.052 260.371 120.436 261.326C119.819 262.281 119.046 263.02 118.12 263.541C117.193 264.062 116.188 264.322 115.105 264.322C114.034 264.322 113.128 264.066 112.375 263.554C111.627 263.041 111.106 262.305 110.812 261.351C110.518 260.396 110.477 259.301 110.688 258.061L110.8 257.425C111.023 256.156 111.445 255.036 112.073 254.073C112.702 253.106 113.475 252.367 114.406 251.85C115.332 251.334 116.333 251.073 117.408 251.073C118.484 251.073 119.393 251.329 120.142 251.85C120.886 252.367 121.403 253.106 121.693 254.073C121.982 255.04 122.015 256.152 121.796 257.417L121.693 257.987ZM119.1 257.404C119.335 256.053 119.273 255.024 118.914 254.321C118.554 253.619 117.921 253.268 117.024 253.268C116.13 253.268 115.382 253.615 114.778 254.309C114.17 255.003 113.748 256.02 113.508 257.359L113.397 257.987C113.165 259.305 113.231 260.326 113.587 261.053C113.943 261.781 114.58 262.144 115.489 262.144C116.383 262.144 117.127 261.793 117.731 261.095C118.331 260.396 118.752 259.375 118.992 258.037L119.1 257.404Z" fill="#5479F7"/>
<path d="M133.04 264.144H130.381L126.692 255.66L125.207 264.144H122.548L124.806 251.247H127.466L131.163 259.747L132.652 251.247H135.302L133.04 264.144Z" fill="#5479F7"/>
<path d="M145.861 262.512C145.282 263.087 144.529 263.529 143.599 263.847C142.668 264.161 141.672 264.322 140.609 264.322C139.492 264.322 138.553 264.078 137.797 263.591C137.04 263.103 136.514 262.396 136.217 261.471C135.923 260.545 135.878 259.454 136.084 258.202L136.237 257.326C136.461 256.036 136.874 254.925 137.474 253.983C138.074 253.04 138.826 252.321 139.732 251.821C140.638 251.321 141.639 251.073 142.739 251.073C144.269 251.073 145.402 251.437 146.138 252.168C146.874 252.896 147.197 253.958 147.114 255.355H144.525C144.538 254.615 144.368 254.078 144.025 253.735C143.682 253.392 143.152 253.222 142.445 253.222C141.539 253.222 140.795 253.561 140.199 254.239C139.608 254.916 139.19 255.929 138.95 257.268L138.806 258.09C138.57 259.442 138.648 260.462 139.041 261.157C139.434 261.847 140.129 262.194 141.122 262.194C142.122 262.194 142.871 261.983 143.367 261.557L143.756 259.334H141.337L141.68 257.375H146.758L145.861 262.512Z" fill="#5479F7"/>
<path d="M153.334 259.42H151.216L150.389 264.14H147.73L149.988 251.242H154.781C156.307 251.242 157.424 251.581 158.131 252.259C158.838 252.937 159.086 253.895 158.867 255.135C158.714 256.015 158.396 256.747 157.912 257.338C157.428 257.924 156.77 258.391 155.935 258.743L157.804 264.012L157.784 264.136H154.93L153.334 259.42ZM151.589 257.267H153.735C154.401 257.267 154.951 257.098 155.377 256.759C155.803 256.42 156.067 255.953 156.171 255.354C156.278 254.747 156.187 254.267 155.902 253.92C155.617 253.573 155.116 253.399 154.401 253.399H152.267L151.589 257.267Z" fill="#5479F7"/>
<path d="M167.127 261.487H162.466L161.113 264.144H158.285L165.348 251.247H167.813L170.385 264.144H167.557L167.127 261.487ZM163.558 259.334H166.783L166.006 254.507L163.558 259.334Z" fill="#5479F7"/>
<path d="M182.06 253.4H178.106L176.225 264.144H173.565L175.447 253.4H171.547L171.924 251.247H182.436L182.06 253.4Z" fill="#5479F7"/>
<path d="M193.718 251.247L192.229 259.739C191.981 261.148 191.344 262.268 190.319 263.086C189.293 263.909 188.011 264.318 186.481 264.318C184.975 264.318 183.846 263.921 183.102 263.123C182.353 262.326 182.093 261.231 182.32 259.838L183.826 251.247H186.485L184.996 259.76C184.847 260.603 184.942 261.218 185.281 261.607C185.62 261.995 186.146 262.185 186.861 262.185C188.354 262.185 189.251 261.4 189.553 259.83L191.055 251.247H193.718Z" fill="#5479F7"/>
<path d="M196.675 262.008H202.32L201.948 264.144H193.644L195.902 251.247H198.561L196.675 262.008Z" fill="#5479F7"/>
<path d="M211.414 261.487H206.753L205.401 264.144H202.572L209.636 251.247H212.101L214.673 264.144H211.844L211.414 261.487ZM207.849 259.334H211.075L210.298 254.507L207.849 259.334Z" fill="#5479F7"/>
<path d="M226.348 253.4H222.394L220.512 264.144H217.853L219.735 253.4H215.835L216.211 251.247H226.724L226.348 253.4Z" fill="#5479F7"/>
<path d="M228.809 264.144H226.15L228.408 251.247H231.067L228.809 264.144Z" fill="#5479F7"/>
<path d="M242.952 257.987C242.729 259.256 242.311 260.371 241.695 261.326C241.079 262.281 240.305 263.02 239.379 263.541C238.453 264.062 237.448 264.322 236.364 264.322C235.293 264.322 234.387 264.066 233.635 263.554C232.886 263.041 232.365 262.305 232.071 261.351C231.778 260.396 231.736 259.301 231.947 258.061L232.059 257.425C232.282 256.156 232.704 255.036 233.333 254.073C233.961 253.106 234.735 252.367 235.661 251.85C236.587 251.334 237.588 251.073 238.663 251.073C239.739 251.073 240.649 251.329 241.397 251.85C242.141 252.367 242.658 253.106 242.948 254.073C243.237 255.04 243.27 256.152 243.051 257.417L242.952 257.987ZM240.359 257.404C240.595 256.053 240.533 255.024 240.173 254.321C239.813 253.619 239.18 253.268 238.283 253.268C237.39 253.268 236.641 253.615 236.037 254.309C235.429 255.003 235.008 256.02 234.768 257.359L234.656 257.987C234.424 259.305 234.491 260.326 234.846 261.053C235.202 261.781 235.839 262.144 236.749 262.144C237.642 262.144 238.386 261.793 238.99 261.095C239.59 260.396 240.012 259.375 240.251 258.037L240.359 257.404Z" fill="#5479F7"/>
<path d="M254.3 264.144H251.641L247.952 255.66L246.467 264.144H243.808L246.066 251.247H248.725L252.422 259.747L253.911 251.247H256.562L254.3 264.144Z" fill="#5479F7"/>
<path d="M263.907 260.76C263.994 260.26 263.887 259.871 263.577 259.603C263.271 259.334 262.679 259.049 261.811 258.751C260.942 258.454 260.264 258.16 259.776 257.871C258.448 257.082 257.903 256.016 258.138 254.672C258.258 253.974 258.564 253.354 259.052 252.809C259.54 252.263 260.181 251.837 260.971 251.528C261.761 251.222 262.613 251.069 263.527 251.069C264.449 251.069 265.239 251.234 265.905 251.569C266.567 251.904 267.046 252.375 267.336 252.982C267.63 253.59 267.708 254.28 267.572 255.057H264.912C265.016 254.466 264.912 254.007 264.594 253.681C264.28 253.354 263.783 253.189 263.109 253.189C262.46 253.189 261.931 253.325 261.521 253.602C261.112 253.875 260.868 254.239 260.789 254.685C260.715 255.102 260.864 255.453 261.24 255.739C261.612 256.024 262.187 256.288 262.965 256.536C264.395 256.991 265.4 257.553 265.975 258.226C266.55 258.9 266.749 259.739 266.571 260.743C266.376 261.859 265.797 262.735 264.842 263.367C263.887 264.004 262.692 264.318 261.265 264.318C260.272 264.318 259.4 264.136 258.647 263.772C257.894 263.409 257.361 262.913 257.042 262.28C256.724 261.648 256.637 260.917 256.786 260.082H259.453C259.205 261.504 259.929 262.218 261.633 262.218C262.266 262.218 262.783 262.09 263.18 261.834C263.589 261.578 263.829 261.218 263.907 260.76Z" fill="#5479F7"/>
<path d="M269.606 261.582C270.037 261.582 270.363 261.71 270.583 261.962C270.802 262.214 270.876 262.541 270.806 262.937C270.74 263.326 270.549 263.648 270.243 263.904C269.937 264.156 269.565 264.284 269.135 264.284C268.709 264.284 268.386 264.156 268.167 263.904C267.948 263.652 267.874 263.33 267.94 262.937C268.01 262.549 268.196 262.222 268.506 261.966C268.812 261.71 269.18 261.582 269.606 261.582ZM270.913 260.185H268.788L270.049 251.25H272.779L270.913 260.185Z" fill="#5479F7"/>
<path d="M121.432 136.027C121.432 136.027 132.321 140.081 136.593 136.667C140.865 133.254 129.972 127.493 127.412 127.919C124.852 128.344 121.432 136.027 121.432 136.027Z" fill="black"/>
<path d="M66.7061 223.026L76.9541 240.953L82.5081 233.271L73.5381 215.773L66.7061 223.026Z" fill="white"/>
<path d="M76.9541 241.568C76.9417 241.568 76.9334 241.568 76.921 241.568C76.7101 241.556 76.5198 241.44 76.4164 241.259L66.1684 223.336C66.032 223.1 66.0692 222.803 66.2553 222.604L73.0873 215.348C73.2279 215.199 73.4264 215.133 73.6249 215.157C73.8234 215.186 73.9971 215.31 74.088 215.488L83.0582 232.985C83.1658 233.192 83.145 233.44 83.0086 233.63L77.4586 241.312C77.3387 241.473 77.1526 241.568 76.9541 241.568ZM67.4711 223.117L77.0161 239.808L81.7803 233.212L73.385 216.835L67.4711 223.117Z" fill="black"/>
<path d="M73.4055 238.216C76.1102 243.783 82.9504 257.288 89.5426 263.76C91.1513 265.338 93.8684 264.603 94.4432 262.429C96.5069 254.631 97.88 238.39 90.1919 225.587C90.1919 225.587 86.536 225.162 79.704 226.443L81.2217 232.844L80.3822 232.245C79.1208 231.344 77.4046 231.418 76.226 232.427L74.2574 234.113C73.0747 235.129 72.7231 236.811 73.4055 238.216Z" fill="black"/>
<path d="M90.6223 262.053C90.5478 262.053 90.4734 262.04 90.4031 262.011C90.0846 261.892 89.9192 261.532 90.0433 261.214C95.8621 245.849 88.0003 227.724 87.9217 227.542C87.7852 227.228 87.9258 226.864 88.2402 226.724C88.5545 226.583 88.9184 226.728 89.059 227.042C89.1417 227.228 97.2062 245.808 91.2054 261.652C91.1062 261.9 90.8704 262.053 90.6223 262.053Z" fill="white"/>
<path d="M77.3799 246.598C77.1773 246.598 76.9788 246.498 76.8588 246.317C76.6727 246.031 76.7555 245.647 77.0409 245.461L82.1648 242.139C82.4502 241.953 82.8348 242.035 83.0251 242.32C83.2112 242.606 83.1285 242.99 82.8431 243.176L77.7191 246.498C77.6157 246.569 77.4957 246.598 77.3799 246.598Z" fill="white"/>
<path d="M79.9441 251.147C79.758 251.147 79.5718 251.065 79.4518 250.903C79.2409 250.631 79.2947 250.242 79.5676 250.035L84.2657 246.432C84.5387 246.225 84.9274 246.275 85.1341 246.548C85.3409 246.82 85.2914 247.209 85.0184 247.415L80.3204 251.019C80.2087 251.106 80.0764 251.147 79.9441 251.147Z" fill="white"/>
<path d="M34.2462 223.455C34.2462 223.881 24.8501 244.366 24.8501 244.366L35.5281 245.221L42.7903 227.724L34.2462 223.455Z" fill="white"/>
<path d="M35.528 245.837C35.5114 245.837 35.4949 245.837 35.4784 245.837L24.8003 244.981C24.5976 244.965 24.4157 244.853 24.3164 244.675C24.213 244.502 24.2047 244.287 24.2874 244.105C27.902 236.228 33.3444 224.256 33.6381 223.339C33.6712 223.17 33.7704 223.021 33.9234 222.926C34.1054 222.814 34.3328 222.802 34.5272 222.897L43.0671 227.166C43.3566 227.31 43.489 227.657 43.3608 227.959L36.0987 245.456C36.0036 245.688 35.7761 245.837 35.528 245.837ZM25.7845 243.816L35.1268 244.564L41.992 228.017L34.5686 224.306C33.94 225.852 31.9631 230.339 25.7845 243.816Z" fill="black"/>
<path d="M34.6716 240.097C34.6716 240.097 32.5376 234.977 26.9835 237.535C26.9835 237.535 16.7933 252.246 13.0051 264.392C11.934 267.826 15.4617 270.921 18.7454 269.442C26.4252 265.979 38.4638 258.702 45.3496 245.217C45.3496 245.217 43.2157 239.671 39.7997 237.109L34.6716 240.097Z" fill="black"/>
<path d="M16.1315 266.359C15.689 266.359 15.4284 266.326 15.3622 266.318C15.0231 266.268 14.7874 265.954 14.8411 265.615C14.8908 265.276 15.2052 265.045 15.5443 265.09C15.6725 265.107 26.9667 266.384 42.285 245.283C42.4876 245.006 42.8723 244.944 43.1494 245.147C43.4265 245.349 43.4884 245.733 43.2858 246.014C29.5556 264.925 19.0099 266.359 16.1315 266.359Z" fill="white"/>
<path d="M24.85 254.8C24.7424 254.8 24.6349 254.772 24.5398 254.718L19.4157 251.73C19.118 251.556 19.0187 251.176 19.1924 250.883C19.3661 250.585 19.7466 250.486 20.0402 250.66L25.1642 253.647C25.4619 253.821 25.5612 254.201 25.3875 254.495C25.2717 254.689 25.065 254.8 24.85 254.8Z" fill="white"/>
<path d="M27.4133 250.957C27.314 250.957 27.2148 250.933 27.1197 250.883L21.5697 247.895C21.2678 247.734 21.1561 247.358 21.3174 247.056C21.4787 246.755 21.8592 246.643 22.157 246.804L27.7069 249.792C28.0088 249.953 28.1204 250.329 27.9591 250.631C27.8475 250.842 27.6325 250.957 27.4133 250.957Z" fill="white"/>
<path d="M88.9141 120.18C88.9141 120.18 61.0774 125.147 41.0198 146.165C35.9578 151.471 34.1671 159.108 36.3383 166.109C40.7923 180.473 50.4945 206.711 66.706 226.444L79.0921 215.774C79.0921 215.774 76.102 191.02 67.988 175.659C59.874 160.298 107.28 127.007 107.28 127.007L88.9141 120.18Z" fill="white"/>
<path d="M66.7059 227.059C66.6893 227.059 66.6686 227.059 66.6521 227.055C66.4866 227.043 66.3336 226.96 66.2261 226.832C49.8698 206.921 40.1098 180.353 35.7468 166.286C33.5094 159.071 35.358 151.194 40.5688 145.731C60.5396 124.808 88.5252 119.613 88.8065 119.564C88.914 119.543 89.0298 119.555 89.1332 119.593L107.499 126.42C107.714 126.498 107.867 126.692 107.896 126.92C107.925 127.147 107.826 127.374 107.64 127.506C107.169 127.837 60.7713 160.653 68.542 175.361C76.6189 190.647 79.6833 215.443 79.7123 215.691C79.7371 215.897 79.6585 216.1 79.5014 216.236L67.1153 226.906C66.9954 227.01 66.8506 227.059 66.7059 227.059ZM88.8602 120.82C86.5443 121.275 60.3577 126.796 41.4663 146.59C36.5615 151.727 34.8246 159.137 36.9296 165.922C41.2306 179.783 50.8003 205.863 66.7803 225.555L78.4302 215.521C78.0415 212.55 74.9026 190.081 67.4337 175.948C59.7167 161.331 99.0627 132.147 105.961 127.18L88.8602 120.82Z" fill="black"/>
<path d="M30.8296 227.294L45.3496 231.563C45.3496 231.563 71.8299 175.658 79.5138 167.55C87.2019 159.442 102.148 146.214 117.95 141.519C133.752 136.825 133.752 124.878 133.752 124.878L106.846 117.195C106.846 117.195 69.2617 133.411 56.8797 151.764C44.4977 170.108 30.8296 227.294 30.8296 227.294Z" fill="white"/>
<path d="M45.3496 232.183C45.2917 232.183 45.2339 232.175 45.176 232.158L30.6558 227.889C30.3374 227.794 30.1514 227.472 30.2258 227.15C30.3623 226.575 44.0594 169.645 56.3669 151.413C68.7117 133.122 106.226 116.786 106.602 116.621C106.734 116.563 106.879 116.555 107.02 116.592L133.926 124.274C134.191 124.349 134.377 124.592 134.377 124.869C134.377 124.993 134.19 137.337 118.132 142.106C100.51 147.342 84.4641 163.228 79.9687 167.972C72.4378 175.914 46.1768 231.266 45.9121 231.824C45.8046 232.047 45.5854 232.183 45.3496 232.183ZM31.5699 226.864L45.0146 230.815C47.7855 224.984 71.6892 174.898 79.063 167.12C83.6122 162.318 99.8568 146.243 117.772 140.92C131.213 136.928 132.892 127.518 133.103 125.328L106.891 117.844C103.91 119.158 69.0714 134.8 57.3925 152.103C45.8749 169.174 33.0463 220.835 31.5699 226.864Z" fill="black"/>
<path d="M105.767 34.3955C102.293 34.7426 95.6386 38.5817 96.4202 43.7061C97.0571 47.8882 103.215 47.3262 105.419 49.4172C112.537 56.1905 114.675 78.1301 125.13 83.9694C133.471 88.6267 148.334 87.0688 156.022 76.7788C163.334 66.9929 164.128 53.0704 155.423 47.0369C147.594 41.6109 143.401 55.3805 134.571 51.3885C120.274 44.9252 121.838 32.792 105.767 34.3955Z" fill="black"/>
<path d="M131.168 35.3743L114.696 36.143C114.394 36.1389 114.1 36.0314 113.864 35.833L101.842 24.4768L96.1724 22.3692L97.1814 19.6252C97.2435 19.4517 97.4048 19.3153 97.624 19.3194L119.832 19.5798C120.134 19.5839 120.428 19.6914 120.663 19.8897L137.71 34.2172C137.88 34.3577 137.913 34.5644 137.847 34.7379L136.838 37.4819L131.168 35.3743Z" fill="#99B9FF"/>
<path d="M136.838 38.1022C136.763 38.1022 136.693 38.0898 136.623 38.065L131.068 36.0029L114.725 36.7633C114.241 36.7592 113.806 36.598 113.467 36.3087L101.511 25.0145L95.9573 22.9523C95.6389 22.8325 95.4734 22.4771 95.5892 22.1589L96.5984 19.4149C96.7597 18.9768 97.1691 18.7124 97.6281 18.7041L119.84 18.9645C120.287 18.9686 120.721 19.1298 121.06 19.419L138.107 33.7465C138.463 34.0441 138.587 34.5193 138.43 34.9532L137.421 37.6972C137.363 37.8501 137.247 37.9783 137.098 38.0485C137.016 38.0816 136.929 38.1022 136.838 38.1022ZM131.168 34.7549C131.242 34.7549 131.317 34.7673 131.383 34.7921L136.47 36.6806L137.226 34.6185L120.262 20.3571C120.138 20.2538 119.985 20.1959 119.824 20.1959L97.7232 19.9356L96.9664 22.0019L102.057 23.8946C102.136 23.9235 102.206 23.969 102.268 24.0268L114.29 35.383C114.385 35.4615 114.543 35.5194 114.704 35.5235L131.139 34.7549C131.147 34.7549 131.159 34.7549 131.168 34.7549Z" fill="black"/>
<path d="M136.399 37.7888L114.19 37.5284C113.889 37.5243 113.595 37.4168 113.359 37.2185L96.3123 22.891C95.9773 22.61 96.18 22.0603 96.6142 22.0645L118.822 22.3248C119.124 22.329 119.418 22.4364 119.654 22.6348L136.701 36.9623C137.036 37.2433 136.833 37.7929 136.399 37.7888Z" fill="#5479F7"/>
<path d="M136.403 38.4084C136.399 38.4084 136.395 38.4084 136.391 38.4084L114.179 38.148C113.732 38.1439 113.298 37.9827 112.954 37.6935L95.9075 23.366C95.5518 23.0643 95.4236 22.589 95.589 22.151C95.7503 21.7171 96.1556 21.4526 96.6188 21.4443L118.827 21.7047C119.274 21.7088 119.708 21.87 120.051 22.1593L137.098 36.4868C137.454 36.7884 137.582 37.2637 137.416 37.7017C137.259 38.1315 136.862 38.4084 136.403 38.4084ZM97.0323 22.6882L113.753 36.743C113.877 36.8463 114.03 36.9042 114.191 36.9042L135.973 37.1604L119.253 23.1056C119.129 23.0023 118.976 22.9444 118.815 22.9444L97.0323 22.6882Z" fill="black"/>
<path d="M129.158 41.7886C128.819 41.7886 128.542 41.5159 128.537 41.1729L128.426 27.333C128.422 26.99 128.699 26.709 129.042 26.709H129.046C129.385 26.709 129.662 26.9817 129.667 27.3247L129.778 41.1646C129.782 41.5076 129.505 41.7886 129.162 41.7886C129.158 41.7886 129.158 41.7886 129.158 41.7886Z" fill="black"/>
<path d="M129.133 40.2969C129.546 40.2969 129.889 40.6192 129.918 41.0366L130.692 52.7317L127.507 52.7234L128.343 41.0325C128.376 40.6192 128.719 40.2969 129.133 40.2969Z" fill="#99B9FF"/>
<path d="M130.696 53.3552L127.507 53.347C127.333 53.347 127.172 53.2767 127.052 53.1486C126.936 53.0246 126.874 52.8552 126.887 52.6816L127.722 40.9907C127.776 40.2551 128.392 39.6807 129.128 39.6807H129.132C129.873 39.6848 130.489 40.2633 130.534 40.9989L131.308 52.694C131.32 52.8676 131.258 53.0329 131.142 53.161C131.031 53.285 130.865 53.3552 130.696 53.3552ZM128.177 52.1072L130.034 52.1113L129.302 41.0775C129.298 40.9865 129.211 40.9246 129.132 40.9163C129.046 40.9163 128.971 40.9865 128.963 41.0733L128.177 52.1072Z" fill="black"/>
<path d="M121.738 46.041L124.683 38.0074C126.796 32.2466 122.937 27.7793 117.152 25.7172C117.152 25.7172 106.937 22.4401 103.914 30.42L100.936 38.5694C103.5 37.0445 107.4 35.127 113.173 37.1271C120.361 39.6191 121.738 46.041 121.738 46.041Z" fill="#5479F7"/>
<path d="M121.738 46.661C121.722 46.661 121.71 46.661 121.693 46.661C121.416 46.6404 121.188 46.442 121.131 46.1734C121.077 45.9254 119.72 40.0531 112.967 37.7141C107.748 35.904 104.117 37.4 101.251 39.1026C101.027 39.2349 100.738 39.2142 100.539 39.0489C100.337 38.8836 100.262 38.6067 100.353 38.3588L103.331 30.2094C106.528 21.7749 117.231 25.0975 117.342 25.1305C121.089 26.4653 123.839 28.6804 125.101 31.3706C126.097 33.4948 126.151 35.8007 125.266 38.2224L122.322 46.256C122.231 46.4999 121.999 46.661 121.738 46.661ZM108.364 35.6396C109.873 35.6396 111.532 35.904 113.376 36.5404C118.525 38.3257 120.816 42.0037 121.759 44.1856L124.1 37.7926C124.869 35.6891 124.828 33.7055 123.976 31.8913C122.855 29.5027 120.357 27.515 116.941 26.3C116.565 26.1802 107.268 23.3081 104.493 30.635L102.086 37.2223C103.869 36.3297 105.916 35.6396 108.364 35.6396Z" fill="black"/>
<path d="M155.535 80.9161C148.273 66.4067 136.317 64.2743 136.317 64.2743L115.816 62.5676C109.406 62.1337 102.591 66.0927 100.06 71.9939L81.2222 115.915C81.2222 115.915 85.0642 126.155 102.148 127.866C119.232 129.573 130.978 128.506 136.527 135.333C140.187 139.834 140.072 109.811 137.967 86.0652L155.535 80.9161Z" fill="#5479F7"/>
<path d="M137.226 136.399C136.903 136.399 136.486 136.254 136.052 135.717C131.916 130.63 123.901 130.084 112.805 129.328C109.588 129.109 105.94 128.861 102.094 128.477C84.828 126.749 80.8124 116.563 80.647 116.129C80.5891 115.98 80.5932 115.815 80.6594 115.666L99.497 71.7454C102.09 65.7037 109.125 61.4885 115.866 61.9472L136.374 63.6539C136.395 63.6539 136.411 63.6581 136.432 63.6622C136.932 63.7531 148.781 66.0177 156.097 80.6387C156.179 80.804 156.184 80.9941 156.109 81.1635C156.035 81.3329 155.89 81.461 155.716 81.5106L138.64 86.511C139.571 97.206 140.104 109.166 140.067 118.613C140.001 135.362 138.289 136.056 137.648 136.316C137.532 136.362 137.391 136.399 137.226 136.399ZM81.9001 115.91C82.5824 117.369 87.1274 125.737 102.214 127.245C106.039 127.63 109.679 127.878 112.888 128.097C124.294 128.874 132.536 129.436 137.011 134.94C137.102 135.052 137.168 135.11 137.21 135.139C137.474 134.866 138.777 132.779 138.818 118.356C138.847 108.843 138.297 96.7886 137.35 86.1184C137.325 85.825 137.511 85.5522 137.793 85.4696L154.641 80.5353C147.735 67.3608 136.829 65.0094 136.233 64.8896L115.766 63.187C109.538 62.7654 103.025 66.6583 100.63 72.2372L81.9001 115.91Z" fill="black"/>
<path d="M100.87 119.323L110.266 115.055L117.528 118.042C117.528 118.042 156.477 113.112 139.062 85.2673C138.987 85.1474 152.747 82.3662 152.747 82.3662C152.747 82.3662 168.619 120.179 118.38 121.03C118.38 121.03 115.816 121.886 112.4 120.175C108.984 118.472 103.004 121.886 100.87 119.323Z" fill="white"/>
<path d="M116.668 121.865C115.518 121.865 113.93 121.634 112.123 120.733C110.7 120.022 108.657 120.328 106.676 120.621C104.257 120.981 101.751 121.353 100.39 119.72C100.266 119.572 100.221 119.373 100.262 119.187C100.303 118.997 100.432 118.84 100.609 118.762L110.005 114.493C110.163 114.423 110.34 114.418 110.498 114.485L117.602 117.406C119.451 117.138 136.779 114.361 141.639 104.124C144.066 99.0123 143.02 92.7763 138.529 85.5981C138.421 85.4246 138.405 85.2097 138.483 85.0237C138.657 84.6228 138.673 84.5774 152.614 81.7631C152.904 81.7053 153.193 81.8582 153.309 82.1309C153.566 82.7384 159.459 97.1114 152.015 108.509C146.51 116.935 135.224 121.357 118.467 121.654C118.235 121.716 117.594 121.865 116.668 121.865ZM109.869 119.055C110.874 119.055 111.829 119.2 112.677 119.625C115.795 121.183 118.161 120.452 118.186 120.444C118.244 120.423 118.306 120.415 118.368 120.415C134.736 120.138 145.708 115.902 150.981 107.827C157.341 98.0908 153.297 85.6395 152.354 83.0773C148.02 83.9534 142.089 85.1766 140.022 85.6518C144.381 92.921 145.303 99.314 142.763 104.657C137.358 116.034 118.409 118.555 117.602 118.658C117.495 118.671 117.387 118.658 117.288 118.617L110.278 115.733L102.086 119.456C103.153 119.894 104.786 119.65 106.498 119.398C107.623 119.225 108.777 119.055 109.869 119.055Z" fill="black"/>
<path d="M137.193 87.9611L156.27 82.5723L155.534 80.9151C155.534 80.9151 153.367 79.258 152.95 79.258C152.536 79.258 141.75 78.8447 141.75 78.8447L135.113 80.9151L137.193 87.9611Z" fill="#5479F7"/>
<path d="M122.652 61.2851C122.271 61.095 117.131 55.0367 114.124 51.4703C114.352 50.4785 114.319 50.1645 114.236 48.6643C114.236 48.6643 115.795 47.1064 115.166 45.0814C114.439 42.7259 112.205 44.6186 112.205 44.6186C112.205 44.6186 111.171 42.8085 107.276 45.9286C103.38 49.0487 99.2651 45.255 99.2651 45.255C99.2651 45.255 99.2693 47.5899 101.325 50.4331C102.458 51.9993 102.652 54.0697 102.706 56.0037L104.889 55.6897C106.093 57.1112 106.982 57.8096 108.632 58.4915C108.632 58.4915 109.935 58.2518 111.291 57.1319L113.682 62.5745L111.242 63.8555C111.242 63.8555 110.692 67.269 117.098 68.1245C123.504 68.9799 128.628 63.8555 128.628 63.8555C128.628 63.8555 125.212 62.5621 122.652 61.2851Z" fill="white"/>
<path d="M118.57 68.8272C118.061 68.8272 117.544 68.7942 117.019 68.7239C114.265 68.3561 112.354 67.4841 111.345 66.1245C110.468 64.9468 110.613 63.864 110.634 63.7442C110.667 63.55 110.787 63.3847 110.956 63.2938L112.884 62.2813L111.039 58.0785C109.832 58.8802 108.798 59.0744 108.748 59.0868C108.628 59.1075 108.508 59.0951 108.401 59.0496C106.792 58.3843 105.841 57.7066 104.646 56.3387L102.801 56.6032C102.627 56.628 102.45 56.5784 102.313 56.4627C102.177 56.347 102.098 56.1817 102.094 56.004C102.04 54.1237 101.85 52.1896 100.833 50.7804C98.682 47.8133 98.6572 45.3462 98.6572 45.2428C98.6572 44.9949 98.8019 44.7717 99.0294 44.6725C99.2568 44.5734 99.5174 44.6188 99.6994 44.7841C99.8524 44.9246 103.475 48.1728 106.899 45.4329C108.777 43.9287 110.332 43.284 111.519 43.5072C111.837 43.5692 112.085 43.6807 112.272 43.8088C112.772 43.4948 113.603 43.1063 114.41 43.3419C114.856 43.47 115.452 43.846 115.774 44.8874C116.362 46.7925 115.336 48.3216 114.881 48.8753C114.947 50.0448 114.968 50.4912 114.807 51.297C121.544 59.2893 122.768 60.558 122.983 60.7481C125.481 61.992 128.822 63.2483 128.855 63.2607C129.054 63.3351 129.199 63.5045 129.244 63.7111C129.29 63.9178 129.227 64.1327 129.074 64.2814C128.868 64.4839 124.447 68.8272 118.57 68.8272ZM111.858 64.2236C111.928 64.9509 112.561 66.8849 117.18 67.5007C121.837 68.1206 125.853 65.36 127.449 64.0583C126.242 63.583 124.124 62.7193 122.371 61.8432C122.164 61.7399 121.821 61.5664 113.649 51.8714C113.525 51.7227 113.475 51.5243 113.521 51.3342C113.715 50.4829 113.703 50.2184 113.632 48.9373L113.62 48.6976C113.612 48.5241 113.678 48.3505 113.802 48.2265C113.851 48.1769 115.084 46.8959 114.579 45.2635C114.451 44.8502 114.273 44.6064 114.054 44.5403C113.62 44.4122 112.892 44.8544 112.611 45.0899C112.47 45.2056 112.284 45.2594 112.102 45.2263C111.92 45.1932 111.763 45.0858 111.672 44.9246C111.668 44.9246 111.544 44.7717 111.221 44.7263C110.754 44.6643 109.679 44.7965 107.669 46.4082C104.989 48.553 102.04 47.7802 100.142 46.6562C100.386 47.5323 100.874 48.739 101.829 50.0614C102.913 51.5574 103.206 53.4253 103.301 55.2849L104.803 55.07C105.014 55.0369 105.229 55.1196 105.365 55.2849C106.49 56.6156 107.288 57.2355 108.686 57.8347C109.05 57.7355 109.964 57.4214 110.894 56.6486C111.043 56.5247 111.242 56.4792 111.432 56.5247C111.622 56.5701 111.779 56.7024 111.858 56.8801L114.248 62.3226C114.381 62.6202 114.257 62.9673 113.967 63.1202L111.858 64.2236Z" fill="black"/>
<path d="M111.292 57.7398C111.122 57.7398 110.953 57.6695 110.833 57.5332C110.605 57.277 110.622 56.8885 110.878 56.6571L111.581 56.0207C111.834 55.7934 112.226 55.8099 112.458 56.0661C112.686 56.3223 112.669 56.7108 112.413 56.9422L111.71 57.5786C111.59 57.6902 111.441 57.7398 111.292 57.7398Z" fill="black"/>
<path d="M64.899 122.125H101.942L74.4811 79.9237C73.625 78.6054 72.128 77.8037 70.5193 77.8037H40.4577C38.547 77.8037 37.389 79.8452 38.4063 81.4114L64.899 122.125Z" fill="black"/>
<path d="M57.5128 92.6022C58.7163 94.4536 61.3051 95.9496 63.2944 95.9496C65.2836 95.9496 65.9204 94.4495 64.717 92.6022C63.5135 90.7509 60.9247 89.2549 58.9354 89.2549C56.9462 89.2549 56.3094 90.7509 57.5128 92.6022Z" fill="white"/>
<path d="M63.2945 96.5697C61.0861 96.5697 58.3194 94.9745 56.9918 92.9372C56.2474 91.7925 56.082 90.656 56.541 89.813C56.9546 89.0485 57.8065 88.627 58.9355 88.627C61.144 88.627 63.9107 90.2221 65.2382 92.2594C65.9826 93.4042 66.1481 94.5406 65.689 95.3836C65.2754 96.1482 64.4276 96.5697 63.2945 96.5697ZM58.034 92.2636C59.1175 93.9249 61.5244 95.3299 63.2945 95.3299C63.9479 95.3299 64.4111 95.1398 64.6013 94.7927C64.8288 94.3712 64.6799 93.6769 64.2002 92.9372C63.1166 91.2759 60.7097 89.8708 58.9397 89.8708C58.2863 89.8708 57.823 90.0609 57.6328 90.4081C57.4012 90.8296 57.5543 91.5239 58.034 92.2636Z" fill="black"/>
<path d="M66.9376 125.299H125.059C126.254 125.299 127.226 124.328 127.226 123.134V121.853H64.7705V123.134C64.7705 124.328 65.7424 125.299 66.9376 125.299Z" fill="black"/>
<path d="M25.9493 273.719C25.6763 273.719 25.4282 273.541 25.3538 273.264C25.2628 272.933 25.4529 272.59 25.7838 272.5C34.6216 270.032 44.7248 254.011 44.8241 253.849C45.0061 253.56 45.3866 253.469 45.6802 253.651C45.9697 253.833 46.0606 254.213 45.8787 254.506C45.4569 255.184 35.4197 271.099 26.1188 273.694C26.0609 273.71 26.003 273.719 25.9493 273.719Z" fill="black"/>
<path d="M87.6858 269.921C87.5865 269.921 87.4831 269.896 87.388 269.842C81.9745 266.879 74.365 251.271 74.0425 250.605C73.8936 250.295 74.0218 249.928 74.3319 249.779C74.638 249.63 75.0102 249.758 75.159 250.068C75.2376 250.225 82.9133 265.982 87.9835 268.755C88.2854 268.921 88.393 269.297 88.2276 269.598C88.12 269.805 87.9091 269.921 87.6858 269.921Z" fill="black"/>
<path d="M75.2539 53.2889C75.2539 51.7639 76.4946 50.5283 78.0206 50.5283C79.5466 50.5283 80.7873 51.7639 80.7873 53.2889C80.7873 54.8138 79.5466 56.0494 78.0206 56.0494C76.4946 56.0494 75.2539 54.8138 75.2539 53.2889Z" fill="#99B9FF"/>
<path d="M64.8162 46.3994C62.6284 46.3994 60.8501 44.6224 60.8501 42.4404C60.8501 40.2584 62.6284 38.4814 64.8162 38.4814C67.0039 38.4814 68.7822 40.2584 68.7822 42.4404C68.7822 44.6224 66.9998 46.3994 64.8162 46.3994ZM64.8162 39.7253C63.3149 39.7253 62.0908 40.9444 62.0908 42.4445C62.0908 43.9447 63.3108 45.1638 64.8162 45.1638C66.3215 45.1638 67.5416 43.9447 67.5416 42.4445C67.5416 40.9444 66.3174 39.7253 64.8162 39.7253Z" fill="black"/>
<path d="M65.796 65.046C64.241 65.046 62.9756 63.7814 62.9756 62.2276C62.9756 60.6737 64.241 59.4092 65.796 59.4092C67.351 59.4092 68.6165 60.6737 68.6165 62.2276C68.6165 63.7814 67.351 65.046 65.796 65.046ZM65.796 60.6489C64.9234 60.6489 64.2163 61.3556 64.2163 62.2276C64.2163 63.0995 64.9234 63.8062 65.796 63.8062C66.6686 63.8062 67.3758 63.0995 67.3758 62.2276C67.3758 61.3556 66.6645 60.6489 65.796 60.6489Z" fill="black"/>
<path d="M79.2453 32.1261C79.0881 32.1261 78.9269 32.0641 78.807 31.9442L77.223 30.3656C76.979 30.1218 76.979 29.7292 77.223 29.4895C77.467 29.2457 77.8599 29.2457 78.0997 29.4895L79.6837 31.0681C79.9277 31.312 79.9277 31.7045 79.6837 31.9442C79.5638 32.0641 79.4066 32.1261 79.2453 32.1261Z" fill="black"/>
<path d="M84.7874 37.6554C84.6302 37.6554 84.4689 37.5934 84.349 37.4735L82.765 35.8949C82.521 35.6511 82.521 35.2585 82.765 35.0188C83.009 34.775 83.402 34.775 83.6418 35.0188L85.2258 36.5974C85.4698 36.8413 85.4698 37.2338 85.2258 37.4735C85.1059 37.5934 84.9445 37.6554 84.7874 37.6554Z" fill="black"/>
<path d="M77.6657 37.6558C77.5085 37.6558 77.3472 37.5938 77.2273 37.4739C76.9874 37.2301 76.9874 36.8375 77.2273 36.5978L78.8112 35.0192C79.0552 34.7795 79.4481 34.7754 79.6879 35.0192C79.9278 35.263 79.9278 35.6556 79.6879 35.8953L78.104 37.4739C77.9799 37.5938 77.8228 37.6558 77.6657 37.6558Z" fill="black"/>
<path d="M83.2033 32.1265C83.0461 32.1265 82.8848 32.0645 82.7649 31.9446C82.525 31.7008 82.525 31.3082 82.7649 31.0685L84.3488 29.4899C84.5928 29.2502 84.9858 29.2461 85.2256 29.4899C85.4655 29.7337 85.4655 30.1263 85.2256 30.366L83.6417 31.9446C83.5217 32.0645 83.3604 32.1265 83.2033 32.1265Z" fill="black"/>
<path d="M217.42 18.9068C217.349 18.9068 217.275 18.8944 217.205 18.8697C216.22 18.5101 215.203 18.1547 214.19 17.8117C213.863 17.7043 213.689 17.353 213.797 17.0265C213.904 16.7001 214.26 16.5265 214.583 16.6339C215.612 16.9769 216.638 17.3365 217.635 17.7043C217.957 17.8241 218.123 18.1795 218.003 18.4977C217.912 18.7498 217.672 18.9068 217.42 18.9068ZM209.649 16.3653C209.591 16.3653 209.533 16.3571 209.475 16.3405C207.92 15.8901 206.316 15.4603 204.707 15.0553C204.376 14.9727 204.173 14.6338 204.256 14.3032C204.339 13.9726 204.674 13.7701 205.009 13.8528C206.634 14.2577 208.251 14.6958 209.823 15.1504C210.153 15.2454 210.34 15.5884 210.244 15.919C210.166 16.1918 209.918 16.3653 209.649 16.3653ZM200.025 13.9643C199.984 13.9643 199.939 13.9602 199.897 13.9519C198.313 13.6172 196.68 13.2949 195.046 13.0056C194.707 12.9436 194.484 12.6213 194.546 12.2865C194.608 11.9477 194.934 11.7245 195.265 11.7865C196.915 12.0799 198.561 12.4022 200.158 12.7411C200.493 12.8114 200.708 13.142 200.633 13.4767C200.571 13.7618 200.311 13.9643 200.025 13.9643ZM190.257 12.2121C190.228 12.2121 190.195 12.2121 190.166 12.2039C188.557 11.9683 186.907 11.7493 185.261 11.5551C184.922 11.5137 184.678 11.2079 184.72 10.8649C184.761 10.5261 185.063 10.2822 185.41 10.3236C187.064 10.5178 188.727 10.741 190.348 10.9806C190.687 11.0302 190.923 11.3443 190.873 11.6832C190.824 11.989 190.559 12.2121 190.257 12.2121ZM180.398 11.0426C180.377 11.0426 180.361 11.0426 180.34 11.0385C178.711 10.8897 177.052 10.7616 175.406 10.6542C175.063 10.6335 174.807 10.336 174.827 9.9971C174.848 9.65409 175.133 9.39788 175.485 9.41854C177.143 9.52599 178.81 9.65823 180.452 9.807C180.795 9.83593 181.043 10.1376 181.014 10.4806C180.985 10.8029 180.716 11.0426 180.398 11.0426ZM145.696 10.9724C145.386 10.9724 145.117 10.7368 145.08 10.4227C145.043 10.0839 145.287 9.77394 145.626 9.73675C145.642 9.73675 147.474 9.53012 150.605 9.33589C150.948 9.31523 151.242 9.57558 151.263 9.91858C151.283 10.2616 151.023 10.555 150.679 10.5757C147.582 10.7657 145.779 10.9682 145.762 10.9682C145.742 10.9724 145.717 10.9724 145.696 10.9724ZM170.493 10.398C170.485 10.398 170.477 10.398 170.468 10.398C168.826 10.3318 167.164 10.2864 165.522 10.2616C165.179 10.2574 164.906 9.9723 164.91 9.63343C164.914 9.29456 165.191 9.02182 165.53 9.02182C165.535 9.02182 165.539 9.02182 165.539 9.02182C167.189 9.04661 168.864 9.0962 170.518 9.16232C170.861 9.17472 171.126 9.464 171.113 9.807C171.101 10.1335 170.824 10.398 170.493 10.398ZM155.601 10.3442C155.27 10.3442 154.993 10.0797 154.981 9.74501C154.968 9.40201 155.237 9.11687 155.58 9.10447C157.218 9.05074 158.893 9.01355 160.559 9.00115C160.923 8.99289 161.184 9.2739 161.184 9.6169C161.188 9.9599 160.911 10.2409 160.568 10.2409C158.909 10.2533 157.247 10.2905 155.622 10.3442C155.617 10.3442 155.609 10.3442 155.601 10.3442Z" fill="black"/>
</svg>
