<svg width="344" height="343" viewBox="0 0 344 343" fill="none" xmlns="http://www.w3.org/2000/svg">
<path d="M201.41 2.63653C122.135 -12.0298 61.7507 42.8048 57.276 47.0034C50.1794 53.661 0.589425 98.0568 0.349561 176.55C-0.092948 319.722 50.5391 325.305 85.2244 334.802C110.786 341.798 326.454 378.668 342.214 200.271C350.469 106.776 286.632 18.4022 201.41 2.63653Z" fill="#CADDFF"/>
<path d="M89.488 32.9443C89.2895 32.9443 89.0952 32.8493 88.9752 32.6757C88.7809 32.3947 88.8553 32.0062 89.1365 31.8161C104.124 21.5881 122.06 14.2239 142.444 9.93435C159.061 6.43409 177.303 4.95878 196.666 5.54973C197.009 5.56213 197.278 5.84727 197.266 6.18614C197.257 6.52914 196.964 6.80602 196.629 6.78536C166.666 5.87207 123.818 9.64921 89.8396 32.8369C89.7279 32.9071 89.608 32.9443 89.488 32.9443Z" fill="black"/>
<path d="M111.56 30.8659C111.332 30.8659 111.113 30.7378 111.001 30.5229C110.848 30.2171 110.976 29.8451 111.282 29.6922C129.735 20.5717 151.77 15.3606 176.774 14.1994C177.113 14.1787 177.406 14.4473 177.423 14.7903C177.44 15.1333 177.175 15.4226 176.832 15.4391C152.001 16.5921 130.132 21.7619 111.832 30.8039C111.746 30.8452 111.651 30.8659 111.56 30.8659Z" fill="black"/>
<path d="M210.942 29.192C210.809 29.192 210.673 29.1507 210.561 29.0598C210.292 28.849 210.243 28.4606 210.454 28.1878L212.385 25.7207C212.596 25.4521 212.985 25.4025 213.258 25.6133C213.526 25.824 213.576 26.2125 213.365 26.4852L211.434 28.9524C211.31 29.1094 211.128 29.192 210.942 29.192Z" fill="black"/>
<path d="M217.7 20.5553C217.567 20.5553 217.431 20.514 217.319 20.4231C217.05 20.2123 217.001 19.8239 217.212 19.5511L219.143 17.084C219.354 16.8154 219.743 16.7658 220.015 16.9765C220.288 17.1873 220.334 17.5758 220.123 17.8485L218.192 20.3156C218.068 20.4727 217.881 20.5553 217.7 20.5553Z" fill="black"/>
<path d="M220.859 27.9565C220.727 27.9565 220.594 27.9152 220.479 27.8284L218.001 25.9109C217.728 25.7002 217.683 25.3117 217.89 25.0431C218.101 24.7704 218.489 24.7249 218.758 24.9315L221.235 26.849C221.508 27.0598 221.554 27.4482 221.347 27.7168C221.227 27.8739 221.041 27.9565 220.859 27.9565Z" fill="black"/>
<path d="M212.191 21.2417C212.059 21.2417 211.926 21.2004 211.811 21.1136L209.333 19.1961C209.06 18.9853 209.015 18.5969 209.222 18.3283C209.433 18.0555 209.821 18.01 210.09 18.2167L212.567 20.1342C212.84 20.3449 212.886 20.7334 212.679 21.002C212.559 21.1632 212.377 21.2417 212.191 21.2417Z" fill="black"/>
<path d="M25.4483 98.8836C25.1753 98.8836 24.9271 98.7018 24.8486 98.429C24.7576 98.0984 24.952 97.7596 25.2828 97.6686L27.7518 96.995C28.0826 96.9041 28.4217 97.0984 28.5127 97.429C28.6037 97.7596 28.4093 98.0984 28.0785 98.1893L25.6096 98.8629C25.5599 98.8795 25.502 98.8836 25.4483 98.8836Z" fill="black"/>
<path d="M34.0874 96.5281C33.8145 96.5281 33.5663 96.3463 33.4877 96.0736C33.3967 95.743 33.5911 95.4041 33.922 95.3132L36.3909 94.6396C36.7218 94.5487 37.0609 94.7429 37.1519 95.0735C37.2428 95.4041 37.0485 95.743 36.7177 95.8339L34.2487 96.5075C34.199 96.5199 34.1412 96.5281 34.0874 96.5281Z" fill="black"/>
<path d="M32.5491 102.921C32.2761 102.921 32.028 102.743 31.9536 102.466L31.267 99.9988C31.1761 99.6682 31.3705 99.3294 31.6972 99.2343C32.0239 99.1434 32.3671 99.3376 32.4622 99.6641L33.1488 102.131C33.2397 102.462 33.0454 102.801 32.7186 102.896C32.6607 102.912 32.6028 102.921 32.5491 102.921Z" fill="black"/>
<path d="M30.1462 94.2838C29.8733 94.2838 29.6251 94.1061 29.5507 93.8292L28.8642 91.3621C28.7732 91.0315 28.9676 90.6926 29.2943 90.5976C29.621 90.5067 29.9642 90.7009 30.0594 91.0274L30.7459 93.4945C30.8369 93.8251 30.6425 94.164 30.3158 94.259C30.2538 94.2797 30.2 94.2838 30.1462 94.2838Z" fill="black"/>
<path d="M235.722 36.4775C233.047 36.4775 230.867 34.2956 230.867 31.6177C230.867 28.9398 233.047 26.7578 235.722 26.7578C238.398 26.7578 240.578 28.9398 240.578 31.6177C240.578 34.2956 238.398 36.4775 235.722 36.4775ZM235.722 27.9976C233.729 27.9976 232.108 29.6217 232.108 31.6177C232.108 33.6137 233.729 35.2378 235.722 35.2378C237.716 35.2378 239.337 33.6137 239.337 31.6177C239.337 29.6217 237.716 27.9976 235.722 27.9976Z" fill="black"/>
<path d="M23.4177 119.145C21.4491 119.145 19.8486 117.542 19.8486 115.574C19.8486 113.607 21.4491 112.004 23.4177 112.004C25.3862 112.004 26.9867 113.607 26.9867 115.574C26.9825 117.542 25.3821 119.145 23.4177 119.145ZM23.4177 113.244C22.1356 113.244 21.0893 114.289 21.0893 115.574C21.0893 116.86 22.1315 117.905 23.4177 117.905C24.7038 117.905 25.746 116.86 25.746 115.574C25.7419 114.289 24.6997 113.244 23.4177 113.244Z" fill="black"/>
<path d="M269.278 307.878C269.072 307.878 268.873 307.775 268.753 307.589C268.571 307.299 268.658 306.915 268.948 306.733C278.77 300.547 287.756 293.265 295.659 285.091C304.348 276.103 311.813 265.941 317.843 254.886C318.008 254.585 318.385 254.473 318.687 254.639C318.988 254.804 319.1 255.18 318.935 255.482C312.851 266.635 305.32 276.888 296.553 285.955C288.579 294.203 279.514 301.547 269.609 307.783C269.506 307.849 269.39 307.878 269.278 307.878Z" fill="black"/>
<path d="M324.517 246.828C323.583 246.828 322.698 246.468 322.028 245.811C321.345 245.146 320.965 244.253 320.952 243.299C320.928 241.332 322.507 239.708 324.476 239.683C325.431 239.674 326.329 240.03 327.011 240.695C327.693 241.361 328.074 242.253 328.086 243.208C328.111 245.175 326.531 246.799 324.563 246.824C324.546 246.828 324.53 246.828 324.517 246.828ZM324.517 240.927C324.509 240.927 324.497 240.927 324.488 240.927C323.206 240.943 322.177 242.001 322.193 243.286C322.201 243.91 322.45 244.493 322.896 244.927C323.343 245.361 323.942 245.584 324.55 245.588C325.832 245.572 326.862 244.514 326.846 243.228C326.837 242.604 326.589 242.022 326.143 241.588C325.704 241.158 325.125 240.927 324.517 240.927Z" fill="black"/>
<path d="M229.193 202.048L164.504 202.453C164.086 202.453 163.945 202.841 163.945 203.217V258.312C163.945 263.585 127.188 277.293 126.833 276.595L126.787 282.426C126.783 283.513 127.738 284.475 128.954 284.475H129.761C129.765 284.475 129.773 284.475 129.777 284.475H184.015C186.534 284.475 189.02 283.913 191.298 282.959L221.12 270.388C226.488 268.123 229.875 263.263 229.875 257.965V202.812C229.875 202.436 229.61 202.048 229.193 202.048Z" fill="white"/>
<path d="M157.395 199.242V254.354C157.395 259.788 153.9 264.735 148.417 267.082L128.301 275.678C126.986 276.24 127.437 278 128.892 278H184.165C186.65 278 189.107 277.508 191.352 276.562L213.643 267.169C219.172 264.838 222.7 259.871 222.7 254.411V199.242C222.7 199.015 222.493 198.833 222.241 198.833H157.858C157.598 198.833 157.395 199.019 157.395 199.242Z" fill="#99B9FF"/>
<path d="M36.8872 230.471L302.884 231.054L307.504 231.062L316.09 231.083C318.53 231.083 320.535 229.173 320.845 226.748L343.087 52.7555C343.628 48.5237 340.543 44.5234 336.292 44.5234L60.7 44.7755L36.8872 230.471Z" fill="black"/>
<path d="M325.953 44.4785C330.75 44.4785 334.65 49.3136 334.038 54.0908L311.636 226.752C311.325 229.182 309.262 230.996 306.826 230.996L304.725 231.075L33.1984 230.996C30.2745 230.996 28.0123 228.418 28.3887 225.504L51.242 49.3301C51.5521 46.9002 53.4172 44.4785 55.8573 44.4785H325.953Z" fill="#99B9FF"/>
<path d="M33.2027 231.616C31.6354 231.616 30.1382 230.938 29.1002 229.761C28.058 228.575 27.5742 226.996 27.7727 225.426L50.626 49.2514C50.9775 46.5239 53.31 44.4659 56.0519 44.4659L202.894 43.9287C202.894 43.9287 202.894 43.9287 202.899 43.9287C203.242 43.9287 203.519 44.2056 203.519 44.5445C203.519 44.8875 203.242 45.1643 202.903 45.1685L56.056 45.7057C53.9345 45.7057 52.1314 47.2967 51.8584 49.4126L29.0051 225.587C28.848 226.802 29.2243 228.025 30.0307 228.946C30.833 229.86 31.9869 230.38 33.1986 230.38L306.913 229.885C309.026 229.885 311.044 228.066 311.322 225.917L333.422 54.0162C333.695 51.9086 333.046 49.7886 331.644 48.1976C330.254 46.619 328.248 45.7098 326.148 45.7098H280.66C280.317 45.7098 280.04 45.433 280.04 45.09C280.04 44.747 280.317 44.4701 280.66 44.4701H326.148C328.604 44.4701 330.949 45.528 332.574 47.3794C334.212 49.239 334.969 51.7144 334.65 54.1774L312.55 226.079C312.19 228.864 309.663 231.128 306.913 231.128L33.2027 231.616Z" fill="black"/>
<path d="M38.4054 223.243C38.3765 223.243 38.3517 223.243 38.3227 223.239C37.9836 223.194 37.7437 222.884 37.7892 222.545L60.1711 54.3093C60.2166 53.9704 60.5268 53.7349 60.8659 53.7762C61.205 53.8216 61.4448 54.1316 61.3993 54.4705L39.0175 222.706C38.9803 223.016 38.7115 223.243 38.4054 223.243Z" fill="#CADDFF"/>
<path d="M257.542 107.011H201.459L208.738 50.7754H264.821L257.542 107.011Z" fill="white"/>
<mask id="mask0_1334_9013" style="mask-type:luminance" maskUnits="userSpaceOnUse" x="201" y="50" width="64" height="58">
<path d="M257.542 107.011H201.459L208.738 50.7754H264.821L257.542 107.011Z" fill="white"/>
</mask>
<g mask="url(#mask0_1334_9013)">
<path d="M239.945 56.8211C240.442 56.9699 240.913 57.1765 241.352 57.4451C246.194 60.404 242.017 67.2641 243.94 71.7065C245.591 75.5167 244.06 78.5252 240.818 81.542C238.941 83.29 237.204 84.7406 236.381 87.187C235.909 88.5962 235.653 90.0509 235.103 91.4435C232.39 98.3159 224.147 100.448 218.126 98.9565C215.434 98.287 213.023 96.8819 211.17 94.9438C209.032 92.7039 206.447 88.8607 209.57 85.6621C210.579 84.629 211.89 83.9512 213.196 83.3975C215.471 82.4346 219.292 81.4428 220.334 78.8145C221.116 76.835 219.871 74.7563 221.215 72.8306C222.266 71.3263 224.255 70.8676 225.363 69.3964C226.323 68.1278 226.356 66.4995 226.521 65.0036C227.435 56.6972 234.974 55.3293 239.945 56.8211Z" fill="black"/>
<path d="M255.048 107.846C254.962 107.523 254.709 106.143 254.445 104.684C251.653 89.4227 249.978 83.5256 248.258 82.9347C247.981 82.8355 247.666 82.9512 247.518 83.2115L241.62 93.4106C241.587 93.4685 241.562 93.5305 241.55 93.5966C241.471 93.9768 239.664 102.965 243.535 107.928C245.069 109.895 247.278 110.953 250.061 111.065L250.139 111.077C250.665 111.168 251.149 111.214 251.595 111.214C252.65 111.214 253.493 110.962 254.101 110.461C254.751 109.928 255.094 109.151 255.123 108.156C255.123 108.044 255.098 107.941 255.048 107.846Z" fill="white"/>
<path d="M251.596 111.829C251.116 111.829 250.591 111.78 250.032 111.685L249.995 111.68C247.03 111.548 244.689 110.412 243.047 108.304C239.003 103.122 240.864 93.8568 240.942 93.4683C240.967 93.3402 241.017 93.2162 241.083 93.1005L246.98 82.9014C247.278 82.3849 247.907 82.1534 248.465 82.3518C250.252 82.9676 251.765 86.5753 255.053 104.577L255.065 104.655C255.301 105.936 255.541 107.259 255.632 107.639C255.706 107.808 255.744 107.99 255.735 108.176C255.702 109.362 255.285 110.292 254.491 110.945C253.771 111.532 252.795 111.829 251.596 111.829ZM248.056 83.5213L242.158 93.7204C242.084 94.0882 240.33 102.808 244.023 107.544C245.442 109.362 247.481 110.337 250.086 110.445C250.111 110.445 250.136 110.449 250.165 110.453L250.243 110.465C251.811 110.734 252.993 110.569 253.709 109.982C254.222 109.565 254.478 108.961 254.503 108.139C254.482 108.098 254.466 108.056 254.453 108.011C254.366 107.693 254.168 106.614 253.85 104.878L253.837 104.8C251.972 94.6213 249.834 84.1371 248.056 83.5213Z" fill="black"/>
<path d="M212.526 97.386C212.526 97.386 212.295 85.1702 215.198 83.3891C215.351 83.294 217.063 83.9263 218.25 85.6661C219.371 87.3109 219.069 91.588 219.069 91.588L217.655 98.6382L212.526 97.386Z" fill="#99B9FF"/>
<path d="M218.126 98.8904L216.89 85.1621C214.413 86.1622 206.53 107.722 206.443 107.594C206.319 107.416 207.179 113.714 207.771 117.061C213.482 114.437 218.126 98.8904 218.126 98.8904Z" fill="white"/>
<path d="M207.295 117.958L207.154 117.168C206.894 115.68 206.546 113.445 206.236 111.193C205.785 107.936 205.703 107.353 205.976 107.134C206.116 106.8 206.427 106.002 206.778 105.105C212.22 91.1704 215.082 85.2278 216.658 84.5914L217.435 84.2773L218.759 98.9602L218.726 99.076C218.531 99.7206 213.933 114.92 208.031 117.631L207.295 117.958ZM207.051 107.717C207.101 108.477 207.704 112.928 208.23 116.085C213.064 112.85 217.084 100.155 217.498 98.8239L216.389 86.4965C215.194 88.2074 212.775 93.154 207.936 105.548C207.481 106.709 207.229 107.353 207.051 107.717ZM207.03 107.763C206.972 107.878 206.923 107.961 206.877 108.023C206.956 107.944 207.005 107.849 207.03 107.763Z" fill="black"/>
<path d="M245.975 111.259C245.959 110.222 245.975 109.177 246.062 108.127L247.046 96.3203L248.738 82.9887C237.241 81.6208 215.202 83.3896 215.202 83.3896C216.865 83.7863 216.604 91.3282 217.071 96.5228C217.071 96.5228 214.371 108.995 213.552 114.243C212.733 119.487 219.077 117.45 230.636 118.644C236.318 119.227 246.099 118.714 245.975 111.259Z" fill="#5479F7"/>
<path d="M231.703 73.9297L229.569 82.1286L225.455 82.7403C225.455 82.7403 226.364 87.6621 231.658 88.0258C236.956 88.3894 239.966 84.6454 240.521 82.6659L236.79 82.1286L237.175 74.1694L231.703 73.9297Z" fill="white"/>
<path d="M232.369 88.6707C232.121 88.6707 231.873 88.6625 231.612 88.6459C225.901 88.2533 224.851 82.91 224.838 82.8563C224.809 82.691 224.846 82.5215 224.942 82.3851C225.041 82.2488 225.19 82.1579 225.355 82.1331L229.065 81.5834L231.095 73.7812C231.17 73.4961 231.426 73.3018 231.724 73.3184L237.199 73.5581C237.365 73.5663 237.518 73.6366 237.63 73.7605C237.741 73.8804 237.799 74.0416 237.791 74.2069L237.435 81.6041L240.607 82.0587C240.785 82.0835 240.942 82.1827 241.037 82.3356C241.137 82.4843 241.161 82.6703 241.116 82.8397C240.587 84.7324 237.667 88.6707 232.369 88.6707ZM226.24 83.253C226.666 84.4927 228.006 87.1541 231.703 87.4103C236.132 87.7161 238.775 84.9762 239.664 83.1703L236.707 82.7447C236.389 82.6992 236.161 82.4223 236.178 82.1L236.534 74.7648L232.183 74.5747L230.177 82.2901C230.115 82.5298 229.913 82.7116 229.669 82.7488L226.24 83.253Z" fill="black"/>
<path d="M240.789 67.7276C240.582 67.6739 240.342 67.7482 240.107 67.9177C240.111 67.8722 240.111 67.8226 240.111 67.7772L240.752 62.8223C234.648 66.8845 233.949 64.2852 230.276 65.4506C230.276 65.4506 229.941 67.7524 229.908 67.9136C229.718 67.7441 229.499 67.6697 229.28 67.7235C228.717 67.8598 228.362 68.7649 228.477 69.7443C228.593 70.6906 229.412 71.7444 229.974 71.6907C230.504 74.1867 231.939 76.3398 233.92 76.3398C235.901 76.3398 237.894 74.1867 239.069 71.6907C239.615 71.7444 240.711 70.6906 241.07 69.7443C241.438 68.769 241.314 67.864 240.789 67.7276Z" fill="white"/>
<path d="M233.92 76.9633C231.906 76.9633 230.181 75.1119 229.458 72.2109C228.672 71.8762 227.981 70.7893 227.861 69.8223C227.704 68.4999 228.25 67.3386 229.131 67.1238C229.222 67.1031 229.317 67.0907 229.408 67.0907C229.487 66.57 229.586 65.8716 229.66 65.3633C229.693 65.1277 229.859 64.9335 230.086 64.8633C231.525 64.4087 232.543 64.4831 233.527 64.5574C235.148 64.6773 236.683 64.793 240.409 62.3135C240.611 62.1771 240.872 62.173 241.079 62.3011C241.285 62.4292 241.397 62.6648 241.368 62.9086L240.826 67.1072C240.868 67.1155 240.909 67.1238 240.946 67.132C241.269 67.2147 241.538 67.4378 241.703 67.7602C241.989 68.3098 241.968 69.1363 241.649 69.9752C241.327 70.8265 240.367 71.9754 239.487 72.2605C238.362 74.4921 236.29 76.9633 233.92 76.9633ZM230.012 71.0745C230.297 71.0745 230.516 71.277 230.578 71.5662C231.017 73.6366 232.216 75.7236 233.916 75.7236C235.45 75.7236 237.295 74.0003 238.502 71.4299C238.614 71.1902 238.866 71.0455 239.127 71.0786C239.367 71.0373 240.202 70.2769 240.487 69.5289C240.715 68.9338 240.673 68.4916 240.611 68.3429C240.578 68.3553 240.533 68.38 240.471 68.4255C240.276 68.566 240.02 68.5784 239.813 68.4668C239.602 68.3511 239.478 68.128 239.491 67.8924L239.495 67.7684C239.495 67.7478 239.495 67.7271 239.499 67.7064L239.97 64.0615C236.666 66.0369 235.028 65.9129 233.44 65.7972C232.63 65.7352 231.856 65.6815 230.835 65.9419C230.727 66.6774 230.545 67.9048 230.521 68.0412C230.479 68.2602 230.322 68.4379 230.111 68.5082C229.9 68.5784 229.669 68.5329 229.503 68.3883C229.449 68.3429 229.42 68.3387 229.42 68.3346C229.305 68.3635 228.999 68.8718 229.098 69.6777C229.181 70.3761 229.751 71.0331 229.958 71.0827C229.975 71.0786 229.995 71.0745 230.012 71.0745Z" fill="black"/>
</g>
<path d="M258.088 107.631H200.752L200.843 106.933L208.192 50.1602H265.528L258.088 107.631ZM202.163 106.392H256.997L264.114 51.3958H209.28L202.163 106.392Z" fill="black"/>
<path d="M250.21 165.801H194.127L201.406 109.569H257.488L250.21 165.801Z" fill="white"/>
<mask id="mask1_1334_9013" style="mask-type:luminance" maskUnits="userSpaceOnUse" x="194" y="109" width="64" height="57">
<path d="M250.21 165.801H194.127L201.406 109.569H257.488L250.21 165.801Z" fill="white"/>
</mask>
<g mask="url(#mask1_1334_9013)">
<path d="M253.134 149.271C249.747 143.832 248.051 141.109 245.694 139.597C240.107 136.005 233.523 136.848 227.936 137.563C222.427 138.27 216.182 139.068 209.855 143.589C209.032 144.18 195.632 154.056 196.17 168.574C196.356 173.562 198.151 178.116 201.153 181.753C203.701 178.616 206.6 176.732 208.291 175.81C208.287 175.798 208.283 175.781 208.279 175.769C206.79 170.049 208.833 163.474 213.552 158.743C212.841 164.636 212.129 170.524 211.418 176.417C212.311 177.566 213.808 179.054 216.1 179.608C221.314 180.868 225.388 176.008 232.001 175.537C234.474 175.364 237.956 175.756 242.038 178.48C241.943 173.062 241.844 167.644 241.748 162.226C241.831 162.983 242.373 167.152 246.078 169.227C246.815 169.64 249.751 171.281 253.001 169.888C256.69 168.309 257.981 164.024 258.134 163.499C259.329 159.338 257.278 155.928 253.134 149.271Z" fill="#CADDFF"/>
<path d="M201.153 182.376C200.967 182.376 200.794 182.294 200.674 182.149C197.506 178.314 195.736 173.628 195.545 168.598C194.991 153.626 208.895 143.51 209.487 143.084C215.942 138.472 222.27 137.662 227.849 136.947C233.37 136.241 240.243 135.36 246.02 139.076C248.493 140.667 250.218 143.431 253.651 148.944C257.753 155.531 260.015 159.16 258.725 163.672C258.485 164.52 257.083 168.822 253.241 170.462C251.632 171.152 249.027 171.59 245.772 169.772C244.184 168.884 243.134 167.636 242.439 166.396L242.654 178.475C242.658 178.707 242.534 178.922 242.331 179.029C242.129 179.141 241.881 179.128 241.69 179C238.518 176.888 235.272 175.93 232.038 176.161C229.139 176.368 226.757 177.442 224.453 178.483C221.645 179.752 218.998 180.951 215.946 180.215C214.015 179.748 212.324 178.599 210.922 176.802C210.822 176.673 210.777 176.508 210.793 176.347L212.692 160.602C209.036 165.028 207.572 170.632 208.87 175.615L208.883 175.657C208.953 175.934 208.829 176.219 208.581 176.355C207.071 177.178 204.16 179.025 201.625 182.145C201.517 182.29 201.344 182.372 201.153 182.376ZM235.462 137.547C232.931 137.547 230.404 137.869 228.014 138.175C222.576 138.869 216.418 139.658 210.214 144.092C209.644 144.502 196.257 154.238 196.79 168.549C196.956 173.049 198.469 177.26 201.17 180.773C203.494 178.099 206.021 176.397 207.58 175.5C206.232 169.66 208.329 163.106 213.118 158.304C213.304 158.118 213.589 158.069 213.829 158.184C214.069 158.3 214.205 158.552 214.172 158.817L212.071 176.231C213.262 177.69 214.668 178.62 216.252 179.004C218.887 179.641 221.236 178.579 223.953 177.351C226.244 176.314 228.841 175.14 231.959 174.921C235.136 174.698 238.307 175.512 241.401 177.347L241.132 162.238C241.128 161.908 241.38 161.631 241.711 161.61C242.05 161.59 242.331 161.829 242.369 162.16C242.489 163.23 243.13 166.867 246.388 168.685C249.205 170.26 251.409 169.9 252.766 169.322C256.091 167.9 257.331 164.082 257.546 163.329C258.638 159.507 256.823 156.358 252.612 149.597C249.279 144.241 247.604 141.555 245.363 140.117C242.261 138.129 238.858 137.547 235.462 137.547Z" fill="black"/>
<path d="M254.126 164.429C249.37 161.375 237.7 157.399 237.7 157.399C236.227 156.341 235.148 154.849 234.586 153.093L234.222 151.948C234.222 151.948 232.431 151.738 233.333 155.556C232.935 155.473 233.146 155.407 232.849 155.506C231.331 156.015 231.798 157.362 231.798 157.362C231.798 157.362 230.921 158.73 231.542 159.453C231.542 159.453 230.781 162.321 233.56 162.453C233.56 162.453 245.578 170.152 248.833 170.731C252.087 171.313 257.199 166.404 254.126 164.429Z" fill="white"/>
<path d="M249.391 171.405C249.163 171.405 248.94 171.388 248.721 171.347C245.532 170.781 234.755 163.962 233.357 163.065C232.46 162.987 231.782 162.644 231.339 162.044C230.723 161.201 230.797 160.102 230.88 159.586C230.442 158.763 230.884 157.73 231.136 157.263C231.087 156.961 231.07 156.482 231.31 156.003C231.475 155.668 231.827 155.217 232.576 154.945C232.323 153.486 232.472 152.469 233.018 151.858C233.547 151.263 234.217 151.325 234.292 151.333C234.532 151.362 234.739 151.527 234.809 151.763L235.173 152.907C235.686 154.519 236.67 155.891 238.018 156.87C239.991 157.49 250.272 161.222 254.457 163.908C255.619 164.656 255.983 165.859 255.454 167.21C254.651 169.264 251.835 171.405 249.391 171.405ZM233.002 156.114C232.7 156.226 232.514 156.37 232.423 156.556C232.286 156.833 232.381 157.164 232.381 157.164C232.443 157.342 232.418 157.54 232.319 157.701C232.063 158.102 231.806 158.817 232.009 159.057C232.141 159.214 232.191 159.42 232.137 159.619C232.063 159.912 231.951 160.792 232.34 161.317C232.58 161.639 232.985 161.813 233.585 161.842C233.692 161.846 233.8 161.879 233.891 161.941C237.203 164.065 246.368 169.673 248.936 170.132C250.842 170.462 253.622 168.487 254.296 166.764C254.606 165.97 254.44 165.379 253.787 164.958C249.151 161.982 237.613 158.036 237.497 157.995C237.439 157.974 237.385 157.945 237.336 157.912C235.748 156.771 234.594 155.176 233.994 153.292L233.849 152.837C233.705 153.131 233.56 153.829 233.936 155.424C233.986 155.631 233.924 155.85 233.775 155.999C233.626 156.151 233.411 156.213 233.204 156.172C233.126 156.147 233.059 156.131 233.002 156.114Z" fill="black"/>
<path d="M226.665 125.315C226.665 125.315 225.879 122.438 225.511 121.918C225.143 121.397 224.887 120.856 226.405 119.979C227.926 119.103 231.909 116.76 234.06 116.905C236.21 117.049 237.459 118.583 236.603 119.587C235.751 120.591 235.366 121.008 235.863 121.108C236.363 121.207 236.533 121.827 234.92 122.633C233.315 123.434 227.558 127.001 226.665 125.315Z" fill="black"/>
<path d="M233.406 136.733L233.514 131.728C236.376 130.551 235.665 128.65 235.545 127.158C235.416 125.554 234.755 122.046 234.755 122.046C232.373 123.199 228.233 122.579 228.233 122.579C228.233 122.579 228.655 123.583 228.22 124.042C227.786 124.501 227.641 125.563 227.641 125.563C227.641 125.563 227.021 124.806 226.115 125.306C225.607 125.587 225.88 126.926 226.115 127.687C226.351 128.443 227.12 128.633 227.12 128.633C227.12 128.633 227.286 129.348 227.435 130.013L224.486 137.824L221.463 138.841L230.545 140.638L235.917 137.27L233.406 136.733Z" fill="white"/>
<path d="M230.545 141.258C230.504 141.258 230.466 141.253 230.425 141.245L221.343 139.447C221.066 139.394 220.864 139.158 220.843 138.877C220.826 138.596 220.996 138.34 221.265 138.249L224.007 137.327L226.786 129.967C226.711 129.641 226.637 129.319 226.587 129.087C226.19 128.889 225.719 128.505 225.52 127.868C225.165 126.723 224.929 125.252 225.814 124.765C226.343 124.471 226.835 124.471 227.232 124.591C227.348 124.248 227.518 123.88 227.766 123.616C227.828 123.533 227.787 123.136 227.654 122.814C227.567 122.607 227.6 122.372 227.737 122.194C227.873 122.016 228.097 121.926 228.316 121.963C228.353 121.967 232.294 122.537 234.478 121.483C234.652 121.401 234.854 121.401 235.028 121.487C235.202 121.574 235.322 121.735 235.359 121.926C235.388 122.07 236.029 125.484 236.157 127.099C236.174 127.29 236.198 127.488 236.223 127.69C236.389 128.984 236.637 130.91 234.118 132.125L234.031 136.224L236.041 136.654C236.289 136.708 236.48 136.906 236.521 137.154C236.566 137.402 236.455 137.654 236.24 137.786L230.868 141.154C230.772 141.229 230.661 141.258 230.545 141.258ZM223.87 138.687L230.421 139.985L234.292 137.559L233.274 137.34C232.985 137.278 232.778 137.018 232.787 136.72L232.894 131.716C232.898 131.468 233.051 131.249 233.279 131.158C235.317 130.319 235.177 129.232 234.999 127.86C234.97 127.637 234.941 127.418 234.925 127.211C234.838 126.099 234.478 124.017 234.279 122.905C232.497 123.479 230.256 123.405 229.031 123.298C229.056 123.694 228.99 124.136 228.667 124.475C228.465 124.69 228.299 125.306 228.254 125.653C228.221 125.897 228.047 126.099 227.807 126.166C227.572 126.232 227.315 126.153 227.158 125.963C227.075 125.868 226.835 125.661 226.471 125.827C226.409 126.033 226.451 126.686 226.707 127.509C226.831 127.914 227.266 128.038 227.27 128.038C227.497 128.095 227.675 128.273 227.725 128.5C227.725 128.5 227.89 129.219 228.039 129.885C228.064 130.005 228.055 130.124 228.014 130.24L225.065 138.047C224.999 138.22 224.859 138.357 224.685 138.414L223.87 138.687Z" fill="black"/>
<path d="M231.244 132.773C230.499 132.773 229.842 132.62 229.267 132.315C227.985 131.629 227.65 130.418 227.633 130.368C227.547 130.038 227.741 129.699 228.072 129.612C228.403 129.521 228.738 129.719 228.829 130.046C228.841 130.087 229.064 130.815 229.871 131.236C230.702 131.67 231.86 131.637 233.312 131.145C233.634 131.034 233.99 131.207 234.097 131.534C234.205 131.86 234.035 132.211 233.709 132.319C232.811 132.62 231.984 132.773 231.244 132.773Z" fill="black"/>
</g>
<path d="M250.756 166.42H193.42L193.511 165.722L200.86 108.949H258.196L258.105 109.648L250.756 166.42ZM194.834 165.181H249.668L256.786 110.185H201.952L194.834 165.181Z" fill="black"/>
<path d="M310.271 165.525H254.188L261.467 109.289H317.554L310.271 165.525Z" fill="white"/>
<mask id="mask2_1334_9013" style="mask-type:luminance" maskUnits="userSpaceOnUse" x="254" y="109" width="64" height="57">
<path d="M310.271 165.525H254.188L261.467 109.289H317.554L310.271 165.525Z" fill="white"/>
</mask>
<g mask="url(#mask2_1334_9013)">
<path d="M276.74 120.762C279.515 117.976 283.299 117.29 286.028 117.968C289.477 118.827 290.966 121.836 292.013 123.96C293.865 127.712 292.65 129.13 294.184 131.295C296.897 135.13 302.004 132.527 305.503 135.279C310.838 139.482 310.151 154.322 301.785 160.219C296.206 164.153 289.341 162.186 287.472 161.653C281.802 160.029 275.024 155.223 274.655 148.437C274.349 142.825 278.535 138.019 275.888 133.391C275.214 132.213 274.589 131.903 274.151 130.419C273.431 127.998 273.626 123.89 276.74 120.762Z" fill="black"/>
<path d="M284.42 121.551C283.204 120.522 284.354 117.339 285.367 115.608C285.747 114.959 287.447 112.062 289.3 112.116C291.202 112.17 292.72 115.327 291.785 117.889C290.619 121.096 285.842 122.757 284.42 121.551Z" fill="black"/>
<path d="M291.773 143.201L291.768 143.218C289.258 142.312 285.54 141.23 282.008 141.164C275.255 140.61 269.523 141.998 269.523 141.998C267.765 142.573 266.132 143.589 264.792 144.937L262.447 147.296C260.189 150.607 257.443 152.879 255.611 152.466C254.118 152.127 253.56 149.92 252.447 145.507C251.872 143.23 252.067 144.292 251.877 142.879C249.925 143.3 247.737 143.957 246.062 144.829C245.297 147.152 244.904 151.251 246.132 156.376C246.641 158.5 247.241 161.004 249.126 162.335C251.963 164.339 257.683 163.893 263.518 160.673C262.848 162.686 262.178 164.69 261.504 166.678C258.117 175.732 258.969 178.666 260.33 179.695C262.567 181.39 265.867 177.704 272.641 178.381C276.442 178.761 277.29 180.109 283.166 180.77C286.926 181.191 288.832 181.381 289.92 180.311C291.694 178.571 292.112 162.207 292.186 158.181C298.53 164.446 294.01 170.777 292.385 172.658C292.083 173.005 292.021 173.476 292.228 173.827L294.92 178.348C295.18 178.79 295.78 178.89 296.264 178.567C297.897 177.485 301.272 175.199 304.394 170.096C306.115 167.285 307.145 164.112 307.248 163.393C309.407 148.685 291.773 143.201 291.773 143.201Z" fill="white"/>
<path d="M287.228 181.725C286.132 181.725 284.78 181.572 283.097 181.386C279.813 181.018 278.072 180.439 276.529 179.927C275.297 179.518 274.23 179.163 272.58 178.997C269.176 178.658 266.711 179.448 264.73 180.088C262.803 180.708 261.286 181.196 259.954 180.192C257.766 178.534 258.085 174.046 260.922 166.463C261.43 164.967 261.939 163.451 262.448 161.926C257.059 164.517 251.691 164.909 248.767 162.843C246.691 161.376 246.046 158.686 245.529 156.525C244.483 152.152 244.462 147.71 245.475 144.639C245.525 144.486 245.637 144.358 245.777 144.284C247.828 143.218 250.401 142.569 251.749 142.28C251.918 142.242 252.096 142.28 252.237 142.379C252.378 142.478 252.473 142.631 252.493 142.804C252.526 143.052 252.547 143.226 252.564 143.354C252.605 143.672 252.605 143.672 252.688 143.986C252.754 144.222 252.857 144.615 253.047 145.367C254.065 149.396 254.623 151.619 255.748 151.875C257.195 152.202 259.735 150.185 261.935 146.962C261.956 146.929 261.98 146.9 262.005 146.875L264.35 144.515C265.756 143.098 267.481 142.028 269.329 141.424C269.346 141.42 269.362 141.416 269.375 141.412C269.615 141.354 275.28 140.003 282.059 140.561C285.574 140.623 289.3 141.693 291.843 142.602C291.881 142.606 291.918 142.614 291.955 142.627C292.137 142.685 310.069 148.441 307.861 163.5C307.745 164.298 306.694 167.538 304.92 170.439C301.67 175.749 298.121 178.1 296.604 179.101C296.215 179.357 295.743 179.452 295.313 179.353C294.916 179.262 294.59 179.026 294.383 178.683L291.918 174.542C291.554 177.679 291.049 180.084 290.351 180.77C289.614 181.481 288.626 181.725 287.228 181.725ZM270.979 177.679C271.529 177.679 272.104 177.704 272.704 177.766C274.491 177.943 275.673 178.336 276.922 178.749C278.403 179.241 280.082 179.799 283.237 180.15C286.848 180.555 288.626 180.712 289.486 179.865C290.504 178.865 291.343 170.145 291.566 158.165C291.571 157.917 291.724 157.698 291.951 157.603C292.183 157.508 292.443 157.562 292.621 157.735C299.366 164.397 294.503 171.15 292.853 173.059C292.728 173.199 292.691 173.389 292.757 173.505L295.45 178.026C295.479 178.076 295.528 178.109 295.59 178.121C295.69 178.142 295.81 178.117 295.917 178.047C297.365 177.088 300.752 174.848 303.862 169.769C305.536 167.034 306.541 163.913 306.632 163.298C308.593 149.912 293.262 144.354 291.711 143.829C291.657 143.825 291.608 143.813 291.554 143.796C289.093 142.912 285.442 141.842 281.993 141.78C275.582 141.255 270.082 142.503 269.689 142.594C268.035 143.139 266.492 144.098 265.227 145.371L262.923 147.693C260.889 150.66 257.874 153.615 255.471 153.07C253.606 152.644 253.019 150.309 251.844 145.656C251.658 144.916 251.555 144.532 251.488 144.3C251.397 143.966 251.381 143.904 251.348 143.631C249.499 144.069 247.832 144.639 246.571 145.259C246.17 146.606 245.347 150.462 246.728 156.227C247.225 158.289 247.783 160.628 249.474 161.822C252.224 163.765 257.87 163.066 263.209 160.128C263.432 160.004 263.709 160.033 263.903 160.194C264.098 160.355 264.176 160.624 264.094 160.868C263.424 162.88 262.754 164.889 262.075 166.877C258.85 175.493 259.54 178.332 260.69 179.2C261.468 179.791 262.477 179.506 264.338 178.906C266.004 178.373 268.175 177.679 270.979 177.679ZM292.774 159.748C292.687 163.438 292.518 167.996 292.178 171.935C293.99 169.72 296.876 164.839 292.774 159.748Z" fill="black"/>
<path d="M287.232 181.72C286.186 181.72 284.875 181.58 283.097 181.381C279.817 181.013 278.072 180.435 276.529 179.922C275.297 179.513 274.23 179.158 272.58 178.993C269.176 178.654 266.711 179.443 264.73 180.084C262.803 180.703 261.286 181.191 259.954 180.187C257.766 178.53 258.081 174.042 260.922 166.459C261.43 164.963 261.939 163.446 262.448 161.921C257.059 164.512 251.691 164.905 248.767 162.838C246.691 161.371 246.046 158.681 245.529 156.52C244.483 152.152 244.462 147.709 245.475 144.635C245.525 144.482 245.637 144.354 245.777 144.279C247.828 143.213 250.401 142.564 251.749 142.275C251.918 142.238 252.096 142.275 252.237 142.374C252.378 142.473 252.473 142.626 252.493 142.8C252.526 143.048 252.547 143.221 252.564 143.349C252.605 143.668 252.605 143.668 252.688 143.982C252.754 144.217 252.857 144.61 253.047 145.358C254.065 149.391 254.623 151.61 255.748 151.867C257.191 152.197 259.735 150.176 261.935 146.953C261.956 146.92 261.98 146.891 262.005 146.866L264.35 144.507C265.756 143.089 267.481 142.019 269.329 141.415C269.346 141.411 269.362 141.407 269.375 141.403C269.615 141.345 275.28 139.994 282.059 140.552C285.574 140.614 289.3 141.688 291.848 142.593C291.885 142.597 291.922 142.606 291.959 142.618C292.141 142.676 310.073 148.432 307.865 163.491C307.749 164.289 306.699 167.529 304.924 170.43C301.674 175.74 298.125 178.092 296.608 179.092C296.219 179.348 295.748 179.439 295.317 179.344C294.92 179.253 294.594 179.013 294.387 178.67L291.922 174.529C291.864 175.058 291.802 175.567 291.732 176.05C291.686 176.389 291.372 176.625 291.033 176.579C290.694 176.534 290.458 176.22 290.504 175.881C291.285 170.256 291.513 160.904 291.566 158.173C291.571 157.925 291.724 157.706 291.951 157.611C292.183 157.516 292.443 157.57 292.621 157.743C299.366 164.405 294.503 171.157 292.853 173.067C292.728 173.211 292.691 173.397 292.757 173.513L295.45 178.034C295.479 178.083 295.528 178.116 295.59 178.129C295.694 178.15 295.81 178.125 295.917 178.054C297.365 177.096 300.752 174.856 303.862 169.777C305.536 167.041 306.541 163.921 306.632 163.305C308.597 149.92 293.221 144.35 291.703 143.837C291.653 143.833 291.604 143.821 291.554 143.804C289.093 142.92 285.442 141.849 281.993 141.787C275.582 141.263 270.082 142.511 269.689 142.601C268.035 143.147 266.492 144.106 265.227 145.379L262.923 147.701C260.889 150.668 257.874 153.623 255.471 153.077C253.606 152.652 253.019 150.317 251.844 145.664C251.658 144.924 251.555 144.54 251.488 144.308C251.397 143.973 251.381 143.907 251.348 143.639C249.499 144.077 247.832 144.647 246.571 145.267C246.17 146.614 245.347 150.47 246.728 156.235C247.22 158.297 247.783 160.636 249.474 161.83C252.224 163.772 257.87 163.074 263.209 160.132C263.432 160.008 263.709 160.037 263.903 160.198C264.098 160.359 264.176 160.628 264.094 160.871C263.424 162.884 262.754 164.892 262.075 166.88C258.85 175.496 259.54 178.335 260.69 179.203C261.468 179.794 262.477 179.509 264.338 178.91C266.319 178.274 269.032 177.402 272.692 177.769C274.478 177.947 275.661 178.34 276.91 178.753C278.39 179.245 280.069 179.803 283.221 180.154C285.578 180.418 287.071 180.571 288.13 180.431C288.469 180.389 288.783 180.625 288.824 180.964C288.87 181.303 288.63 181.617 288.291 181.658C287.981 181.704 287.625 181.72 287.232 181.72ZM292.774 159.747C292.704 162.595 292.534 167.579 292.17 171.947C293.982 169.736 296.885 164.847 292.774 159.747Z" fill="black"/>
<path d="M280.317 133.35L278.377 140.809L274.635 141.367C274.635 141.367 275.462 145.842 280.28 146.173C285.098 146.503 287.836 143.098 288.34 141.296L284.949 140.809L285.3 133.569L280.317 133.35Z" fill="white"/>
<path d="M280.9 146.813C280.681 146.813 280.458 146.805 280.234 146.788C274.999 146.429 274.031 141.523 274.023 141.474C273.994 141.308 274.031 141.139 274.126 141.003C274.225 140.866 274.374 140.775 274.54 140.751L277.877 140.255L279.713 133.196C279.784 132.923 280.032 132.733 280.313 132.733C280.321 132.733 280.329 132.733 280.342 132.733L285.321 132.952C285.487 132.961 285.64 133.031 285.751 133.155C285.863 133.275 285.921 133.436 285.913 133.601L285.59 140.275L288.423 140.684C288.601 140.709 288.758 140.808 288.853 140.961C288.952 141.11 288.977 141.296 288.932 141.465C288.307 143.697 285.35 146.813 280.9 146.813ZM275.421 141.875C275.826 143.015 277.05 145.329 280.317 145.553C284.267 145.821 286.636 143.424 287.468 141.796L284.858 141.42C284.54 141.375 284.312 141.098 284.329 140.775L284.647 134.159L280.793 133.99L278.977 140.961C278.915 141.201 278.713 141.383 278.469 141.42L275.421 141.875Z" fill="black"/>
<path d="M288.58 127.707C288.39 127.658 288.175 127.728 287.96 127.881C287.964 127.84 287.964 127.794 287.964 127.753L288.489 124.438C283.527 126.116 284.077 125.443 279.015 125.637C279.015 125.637 278.709 127.732 278.68 127.877C278.506 127.724 278.307 127.658 278.105 127.703C277.596 127.827 277.269 128.65 277.377 129.542C277.48 130.402 278.229 131.36 278.738 131.311C279.217 133.584 280.524 135.538 282.327 135.538C284.126 135.538 285.942 133.58 287.009 131.311C287.505 131.36 288.502 130.402 288.828 129.542C289.172 128.654 289.056 127.831 288.58 127.707Z" fill="white"/>
<path d="M282.331 136.163C280.478 136.163 278.89 134.473 278.225 131.824C277.501 131.497 276.872 130.501 276.765 129.617C276.616 128.385 277.133 127.307 277.964 127.104C278.034 127.088 278.109 127.075 278.179 127.071C278.249 126.604 278.336 125.993 278.402 125.546C278.444 125.249 278.692 125.03 278.994 125.017C280.433 124.964 281.421 124.976 282.211 124.989C284.167 125.017 284.825 125.026 288.291 123.852C288.497 123.782 288.725 123.827 288.89 123.964C289.056 124.104 289.138 124.319 289.101 124.534L288.696 127.096C288.708 127.1 288.721 127.1 288.733 127.104C289.043 127.183 289.3 127.398 289.457 127.704C289.722 128.216 289.705 128.985 289.411 129.762C289.118 130.534 288.258 131.596 287.43 131.869C286.401 133.915 284.507 136.163 282.331 136.163ZM278.746 130.696C279.035 130.696 279.292 130.898 279.354 131.187C279.747 133.047 280.822 134.923 282.335 134.923C283.713 134.923 285.367 133.365 286.459 131.051C286.566 130.824 286.798 130.679 287.046 130.696C287.306 130.629 288.009 129.972 288.258 129.324C288.44 128.848 288.427 128.497 288.39 128.344C288.373 128.357 288.353 128.369 288.328 128.385C288.133 128.526 287.877 128.538 287.666 128.427C287.455 128.311 287.331 128.088 287.348 127.848L287.352 127.741C287.352 127.716 287.356 127.687 287.36 127.662L287.728 125.352C284.871 126.27 284.068 126.257 282.203 126.232C281.525 126.224 280.698 126.212 279.565 126.245C279.465 126.918 279.325 127.89 279.3 128.001C279.259 128.22 279.101 128.398 278.89 128.468C278.68 128.538 278.448 128.493 278.282 128.348C278.249 128.319 278.233 128.311 278.233 128.311C278.158 128.361 277.931 128.819 278.01 129.472C278.08 130.059 278.543 130.617 278.737 130.696C278.729 130.696 278.737 130.696 278.746 130.696Z" fill="black"/>
<path d="M280.47 126.539L282.012 123.249L281.686 126.328L280.47 126.539Z" fill="white"/>
</g>
<path d="M310.817 166.144H253.481L260.921 108.669H318.257L318.166 109.367L310.817 166.144ZM254.895 164.904H309.729L316.846 109.909H262.013L254.895 164.904Z" fill="black"/>
<path d="M317.955 107.14H261.868L269.151 50.9082H325.233L317.955 107.14Z" fill="white"/>
<mask id="mask3_1334_9013" style="mask-type:luminance" maskUnits="userSpaceOnUse" x="261" y="50" width="65" height="58">
<path d="M317.955 107.14H261.868L269.151 50.9082H325.233L317.955 107.14Z" fill="white"/>
</mask>
<g mask="url(#mask3_1334_9013)">
<path d="M319.399 66.3758C320.577 64.8013 320.16 60.52 320.16 60.52L319.345 62.6937L319.097 58.9909C319.093 58.8835 319.014 58.8008 318.902 58.7926C318.762 58.7802 318.625 58.8959 318.609 59.0405L318.257 62.1565L318.084 58.3545C318.075 58.1892 317.939 58.0735 317.769 58.0942C317.604 58.1148 317.463 58.2554 317.447 58.4207L317.099 62.3218L316.81 59.9704C316.789 59.8051 316.632 59.7059 316.462 59.7555C316.314 59.7968 316.202 59.9373 316.206 60.0902C316.218 60.7679 316.252 62.5739 316.301 63.0491C316.363 63.6359 316.404 65.3137 315.511 64.0244C314.618 62.735 313.1 62.6441 313.63 63.078C314.159 63.5078 315.094 65.3716 315.445 65.8716C315.573 66.0535 315.966 66.2477 316.421 66.4212C316.409 67.7106 316.218 69.7107 315.263 71.9795C314.126 74.6822 311.074 78.8313 309.63 80.1289C310.776 82.0216 312.852 86.2409 317.223 86.2905C319.907 80.8686 321.83 71.3762 319.399 66.3758Z" fill="white"/>
<path d="M317.227 86.9105C317.227 86.9105 317.223 86.9105 317.219 86.9105C312.864 86.865 310.618 83.0259 309.407 80.9679C309.299 80.7819 309.196 80.6084 309.101 80.4513C308.948 80.1951 308.997 79.8686 309.217 79.6703C310.573 78.4512 313.567 74.4137 314.696 71.7399C315.358 70.1654 315.73 68.5166 315.796 66.8305C315.358 66.6321 315.093 66.442 314.944 66.2271C314.816 66.0453 314.647 65.7478 314.436 65.3758C314.113 64.8179 313.518 63.7765 313.249 63.5575C312.872 63.2517 312.889 62.9211 312.934 62.7558C313.005 62.4872 313.224 62.293 313.522 62.2392C314.014 62.1525 314.973 62.4707 315.709 63.2682C315.705 63.2186 315.701 63.1649 315.697 63.1153C315.647 62.669 315.614 61.2309 315.598 60.1027C315.589 59.6771 315.887 59.2803 316.305 59.1646C316.458 59.1233 316.619 59.1192 316.768 59.1522L316.838 58.3712C316.88 57.9083 317.244 57.5364 317.707 57.4827C317.955 57.4538 318.211 57.5281 318.398 57.6893C318.551 57.8174 318.654 57.9992 318.691 58.1976C318.778 58.1769 318.865 58.1687 318.96 58.177C319.382 58.2141 319.7 58.5447 319.721 58.9663L319.791 60.0283C319.919 59.9333 320.081 59.8878 320.242 59.9085C320.527 59.9457 320.751 60.1771 320.78 60.4622C320.821 60.8962 321.144 64.5659 320.106 66.4255C322.318 71.5044 320.66 80.7447 317.785 86.5633C317.678 86.7741 317.463 86.9105 317.227 86.9105ZM310.42 80.2364C310.441 80.2695 310.461 80.3067 310.482 80.3397C311.599 82.249 313.443 85.3938 316.847 85.6542C319.556 79.9306 320.991 71.0705 318.844 66.6487C318.741 66.442 318.766 66.1941 318.906 66.0081C319.332 65.4378 319.518 64.351 319.589 63.2724C319.489 63.3137 319.378 63.3302 319.262 63.3137C318.972 63.2724 318.753 63.0327 318.733 62.7434L318.72 62.5822C318.6 62.7103 318.418 62.793 318.245 62.7806C318.017 62.7723 317.819 62.6442 317.719 62.4541C317.661 62.7351 317.413 62.9459 317.124 62.95C317.049 62.95 316.987 62.9418 316.925 62.9211C316.925 62.9459 316.929 62.9666 316.929 62.9872C317.124 64.7807 316.524 65.0039 316.326 65.0783C316.077 65.1692 315.854 65.1279 315.664 65.0287C315.788 65.2436 315.896 65.4254 315.966 65.5246C315.958 65.5205 316.082 65.6279 316.656 65.8511C316.896 65.942 317.058 66.1775 317.053 66.4379C317.033 68.4298 316.628 70.3803 315.846 72.2317C314.787 74.7236 312.087 78.5421 310.42 80.2364Z" fill="black"/>
<path d="M312.463 75.6279C311.33 78.7397 309.787 80.1407 308.716 80.8391C303.981 83.9302 298.162 80.0332 287.476 79.7067C286.339 79.6737 283.853 79.6489 280.656 80.1531C279.122 80.3969 277.414 80.7895 275.408 81.4383C272.459 82.3929 269.776 84.2153 267.766 86.6742C264.986 90.0794 261.604 95.7534 260.975 103.7C260.776 106.196 260.987 109.573 262.757 110.928C265.876 107.568 272.753 113.858 273.101 114.267C275.388 116.953 280.342 113.358 290.855 113.197C295.846 113.122 299.035 113.866 300.189 112.139C301.024 110.895 300.094 109.42 299.556 107.258C298.89 104.585 298.725 100.456 301.276 94.3359C301.826 94.4475 308.667 95.7203 314.341 90.6332C318.542 86.8643 319.295 82.1284 319.436 81.0746C316.818 81.3763 312.777 76.1941 312.463 75.6279Z" fill="#99B9FF"/>
<path d="M275.582 115.883C274.358 115.883 273.386 115.565 272.629 114.673C272.261 114.259 268.175 110.602 265.156 110.569C264.341 110.577 263.712 110.817 263.216 111.354C263.001 111.59 262.637 111.619 262.385 111.424C260.222 109.771 260.189 105.846 260.363 103.655C261.008 95.5183 264.486 89.7163 267.29 86.2821C269.37 83.7365 272.112 81.8562 275.222 80.8478C277.099 80.2404 278.849 79.8106 280.565 79.5378C282.906 79.1659 285.234 79.013 287.5 79.0833C291.851 79.2155 295.474 79.947 298.385 80.5338C302.674 81.3975 305.767 82.0256 308.385 80.3147C309.882 79.3395 311.061 77.6906 311.888 75.4094C311.971 75.1821 312.182 75.021 312.421 75.0044C312.661 74.9879 312.893 75.1078 313.013 75.3226C313.476 76.1533 317.301 80.6908 319.373 80.4553C319.564 80.4346 319.754 80.5007 319.886 80.6371C320.019 80.7735 320.085 80.9636 320.06 81.1537C319.82 82.9265 318.823 87.4475 314.762 91.0883C309.589 95.7291 303.542 95.2952 301.669 95.0266C299.824 99.6302 299.316 103.693 300.168 107.106C300.304 107.664 300.47 108.168 300.631 108.66C301.094 110.086 301.495 111.321 300.718 112.482C299.68 114.032 297.604 113.966 294.456 113.867C293.398 113.834 292.194 113.792 290.875 113.817C286.243 113.887 282.773 114.619 279.986 115.206C278.233 115.578 276.785 115.883 275.582 115.883ZM265.114 109.329C265.148 109.329 265.185 109.329 265.218 109.329C268.795 109.404 273.187 113.416 273.572 113.871C274.556 115.028 276.26 114.726 279.717 113.999C282.41 113.433 286.094 112.656 290.846 112.582C292.194 112.561 293.41 112.598 294.485 112.635C297.215 112.722 299.018 112.78 299.676 111.801C300.097 111.168 299.887 110.424 299.44 109.052C299.283 108.565 299.105 108.015 298.952 107.416C298.009 103.631 298.6 99.1508 300.701 94.105C300.817 93.8323 301.111 93.6794 301.4 93.7372C301.686 93.7951 308.431 95.1092 313.927 90.1791C317.244 87.2037 318.348 83.596 318.716 81.6702C316.462 81.2735 313.861 78.4344 312.628 76.893C311.735 78.9014 310.54 80.4015 309.059 81.3685C306.015 83.3563 302.537 82.6538 298.133 81.7653C295.118 81.1578 291.702 80.4676 287.459 80.3395C285.275 80.2734 283.022 80.4222 280.759 80.7817C279.105 81.0421 277.422 81.4553 275.606 82.0463C272.765 82.9678 270.156 84.7572 268.253 87.0838C265.561 90.3816 262.219 95.9523 261.603 103.771C261.376 106.676 261.81 108.978 262.774 110.102C263.415 109.581 264.205 109.329 265.114 109.329Z" fill="black"/>
<path d="M270.73 112.024C270.387 112.024 270.11 111.743 270.11 111.4C270.131 107.115 271.02 102.019 272.839 95.8288C272.935 95.5024 273.282 95.3123 273.609 95.4073C273.935 95.5024 274.126 95.8495 274.031 96.176C272.248 102.255 271.371 107.239 271.355 111.404C271.351 111.751 271.073 112.024 270.73 112.024Z" fill="black"/>
<path d="M290.218 73.4634C290.987 73.8808 291.599 73.9387 292.05 73.9139C293.679 73.8188 294.883 72.5171 295.123 72.2526C296.368 70.9013 297.17 68.6862 296.434 67.3845C295.9 66.4464 295.032 66.8018 294.416 65.7521C293.717 64.5619 294.718 63.5908 294.064 62.5494C293.311 61.351 291.302 61.4419 290.938 61.4584C289.697 61.5163 289.469 62.1279 288.307 62.0948C287.12 62.0618 287.042 61.4625 285.95 61.4584C285.082 61.4543 283.771 61.8221 283.072 62.8304C282.195 64.095 282.708 65.7604 283.44 66.6365C284.317 67.6903 285.106 67.1241 286.413 67.9837C288.684 69.4797 287.749 72.1327 290.218 73.4634Z" fill="black"/>
<path d="M284.908 79.0836L286.111 74.9262C285.966 74.9097 284.767 74.6948 284.635 74.6246C283.572 74.0584 284.258 71.1987 284.258 71.1987L283.725 70.4424L286.156 66.2148C287.943 67.8885 288.869 66.2438 290.743 67.0661C292.616 67.8885 291.256 70.0994 291.256 70.0994C291.256 70.0994 292.968 69.3845 292.418 70.9549C292.004 72.1409 291.132 72.2153 290.569 72.1657L290.702 79.2943C290.702 79.2943 293.973 80.2613 294.61 80.439C293.758 80.3977 287.513 82.9764 281.169 80.158L284.908 79.0836Z" fill="white"/>
<path d="M287.641 82.0962C285.581 82.0962 283.257 81.7656 280.921 80.7242C280.681 80.6168 280.536 80.373 280.553 80.1167C280.569 79.8564 280.751 79.6374 280.999 79.563L284.403 78.5836L285.321 75.4222C284.928 75.3478 284.49 75.2527 284.341 75.1742C283.092 74.5089 283.41 72.236 283.592 71.3351L283.216 70.802C283.075 70.6036 283.063 70.3433 283.183 70.1367L285.615 65.9091C285.71 65.7438 285.875 65.6322 286.061 65.6033C286.247 65.5785 286.438 65.6363 286.578 65.7644C287.368 66.5042 287.856 66.4257 288.596 66.3058C289.225 66.2025 290.011 66.0744 290.987 66.5042C291.628 66.7852 292.062 67.2439 292.248 67.8348C292.409 68.3555 292.356 68.8928 292.236 69.3432C292.442 69.3763 292.645 69.4631 292.815 69.6201C293.174 69.959 293.236 70.4797 292.997 71.1657C292.674 72.0831 292.045 72.6369 291.198 72.7691L291.309 78.8315C292.223 79.1001 294.287 79.7076 294.771 79.844C295.077 79.9266 295.267 80.2283 295.217 80.5383C295.168 80.8482 294.887 81.0755 294.576 81.059C294.477 81.0631 294.064 81.1623 293.7 81.2532C292.455 81.5549 290.263 82.0962 287.641 82.0962ZM283.162 80.2283C286.644 81.2573 289.965 80.8027 292.095 80.3482C291.293 80.1126 290.59 79.9019 290.528 79.8853C290.267 79.8068 290.089 79.5712 290.085 79.3026L289.953 72.174C289.949 72.0004 290.023 71.831 290.151 71.7112C290.28 71.5913 290.453 71.5293 290.627 71.5459C291.094 71.5831 291.566 71.5169 291.834 70.7483C291.859 70.6739 291.88 70.6119 291.888 70.5623C291.764 70.5789 291.607 70.6243 291.495 70.6698C291.247 70.7731 290.962 70.707 290.784 70.5003C290.61 70.2978 290.586 70.0003 290.726 69.773C290.879 69.5209 291.239 68.744 291.065 68.1944C291.016 68.0373 290.904 67.81 290.49 67.6282C289.849 67.3472 289.366 67.4257 288.799 67.5208C288.121 67.6324 287.302 67.7646 286.334 67.1406L284.457 70.4053L284.763 70.8392C284.866 70.9838 284.899 71.1657 284.858 71.3392C284.572 72.5377 284.593 73.8312 284.899 74.0584C285.135 74.1246 286.032 74.2899 286.177 74.3064C286.359 74.3271 286.52 74.4304 286.62 74.5791C286.719 74.732 286.752 74.918 286.698 75.0916L285.495 79.2489C285.437 79.4555 285.275 79.6126 285.069 79.6704L283.162 80.2283Z" fill="black"/>
<path d="M286.57 75.5789C286.396 75.5789 286.214 75.5665 286.028 75.5417C285.689 75.4963 285.453 75.1822 285.499 74.8433C285.544 74.5045 285.863 74.2689 286.198 74.3144C287.715 74.521 288.572 73.3556 288.58 73.3432C288.778 73.0663 289.167 73.0002 289.444 73.1986C289.721 73.3969 289.787 73.7854 289.589 74.0623C289.539 74.1284 288.476 75.5789 286.57 75.5789Z" fill="black"/>
</g>
<path d="M318.501 107.759H261.165L268.605 50.2842H325.941L325.85 50.9826L318.501 107.759ZM262.575 106.52H317.409L324.526 51.5239H269.693L262.575 106.52Z" fill="black"/>
<path d="M302.62 223.958H246.533L253.815 167.723H309.898L302.62 223.958Z" fill="white"/>
<mask id="mask4_1334_9013" style="mask-type:luminance" maskUnits="userSpaceOnUse" x="246" y="167" width="64" height="57">
<path d="M302.62 223.958H246.533L253.815 167.723H309.898L302.62 223.958Z" fill="white"/>
</mask>
<g mask="url(#mask4_1334_9013)">
<path d="M301.97 220.169L249.175 220.078L256.284 168.128L308.45 167.863L301.97 220.169Z" fill="white"/>
<path d="M269.531 176.132C268.997 176.297 268.48 176.525 267.992 176.814C262.591 180.033 266.164 187.269 263.642 192.022C261.479 196.096 262.728 199.274 265.767 202.436C267.525 204.266 269.175 205.783 269.75 208.374C270.081 209.866 270.18 211.411 270.594 212.883C272.637 220.152 280.999 222.301 287.454 220.627C290.345 219.879 293.025 218.346 295.18 216.259C297.669 213.845 300.812 209.721 297.921 206.366C296.987 205.279 295.697 204.58 294.394 204.01C292.128 203.018 288.253 202.022 287.471 199.237C286.88 197.142 288.422 194.914 287.239 192.885C286.317 191.298 284.291 190.84 283.302 189.294C282.446 187.959 282.732 186.224 282.599 184.637C282.124 178.938 274.895 174.475 269.531 176.132Z" fill="black"/>
<path d="M249.175 224.053C249.911 219.243 250.742 214.478 251.429 212.308C252.409 209.201 264.977 203.799 264.977 203.799C264.977 203.799 265.651 201.994 267.206 201.568C268.761 201.142 273.93 200.845 273.93 200.845C273.93 200.845 279.952 201.142 281.536 201.568C283.12 201.994 283.91 203.799 283.91 203.799C283.91 203.799 296.825 209.201 298.008 212.308C298.819 214.445 299.91 219.197 300.915 224.053H249.175Z" fill="#5479F7"/>
<path d="M300.911 224.672H249.171C248.989 224.672 248.819 224.594 248.699 224.458C248.579 224.321 248.53 224.139 248.559 223.962C249.473 217.998 250.238 214.015 250.833 212.126C251.826 208.985 262.438 204.233 264.502 203.332C264.775 202.753 265.564 201.377 267.041 200.972C268.641 200.534 273.678 200.241 273.893 200.229C273.914 200.229 273.939 200.229 273.96 200.229C274.208 200.241 280.068 200.534 281.697 200.972C283.194 201.373 284.067 202.762 284.365 203.32C286.437 204.196 297.396 208.961 298.587 212.089C299.298 213.953 300.283 217.936 301.519 223.929C301.557 224.11 301.511 224.301 301.391 224.445C301.275 224.586 301.102 224.672 300.911 224.672ZM249.899 223.433H300.155C299.005 217.92 298.087 214.254 297.429 212.531C296.635 210.448 288.571 206.423 283.674 204.373C283.525 204.311 283.409 204.196 283.347 204.051C283.343 204.039 282.648 202.51 281.379 202.171C280.142 201.84 275.622 201.555 273.935 201.472C273.492 201.497 268.782 201.786 267.372 202.171C266.148 202.506 265.564 204.01 265.556 204.022C265.498 204.179 265.374 204.307 265.221 204.373C260.465 206.419 252.674 210.436 252.02 212.498C251.466 214.25 250.751 217.924 249.899 223.433Z" fill="black"/>
<path d="M282.794 224.052H269.576C269.092 215.316 267.926 205.695 269.167 204.137C270.809 202.079 280.544 203.24 280.544 203.24C280.544 203.24 282.206 204.079 282.235 206.761C282.252 207.981 282.318 215.415 282.794 224.052Z" fill="#CADDFF"/>
<path d="M282.794 224.672H269.576C269.245 224.672 268.977 224.416 268.956 224.085C268.832 221.883 268.666 219.626 268.509 217.44C267.93 209.559 267.653 205.038 268.683 203.749C270.453 201.534 278.935 202.423 280.618 202.625C280.689 202.633 280.759 202.654 280.825 202.687C280.908 202.728 282.823 203.728 282.86 206.753V206.939C282.942 214.225 283.207 220.25 283.414 224.019C283.422 224.189 283.364 224.354 283.244 224.478C283.124 224.602 282.963 224.672 282.794 224.672ZM270.163 223.432H282.14C281.938 219.626 281.698 213.857 281.619 206.956V206.77C281.594 204.84 280.618 204.034 280.341 203.844C276.441 203.394 270.627 203.307 269.655 204.526C268.877 205.497 269.341 211.795 269.75 217.353C269.891 219.345 270.044 221.403 270.163 223.432Z" fill="black"/>
<path d="M277.112 194.46C277.385 196.072 277.654 197.679 277.927 199.291C278.092 200.27 278.249 201.25 278.423 202.229C278.46 202.44 278.456 202.915 278.646 203.043C279.304 203.485 280.499 203.151 279.825 204.229C279.374 204.952 278.506 205.453 277.716 205.721C276.682 206.081 275.557 206.13 274.448 206.097C273.646 206.077 268.299 205.357 269.564 203.531C269.734 203.283 270.065 203.217 270.35 203.122C271.33 202.787 270.991 199.2 271.041 198.212C271.053 197.993 271.144 194.72 271.215 194.716L277.112 194.46Z" fill="white"/>
<path d="M274.974 206.725C274.783 206.725 274.602 206.721 274.432 206.717C274.386 206.717 269.763 206.386 268.898 204.684C268.659 204.208 268.712 203.671 269.052 203.179C269.316 202.799 269.721 202.671 270.015 202.576L270.118 202.543C270.487 202.159 270.437 199.886 270.42 199.134C270.412 198.729 270.404 198.411 270.416 198.179C270.416 198.142 270.42 198.006 270.429 197.807C270.445 197.348 270.47 196.567 270.499 195.902C270.561 194.464 270.578 194.121 271.181 194.096C271.347 194.088 272.203 194.051 277.079 193.836C277.372 193.819 277.666 194.042 277.716 194.352L278.687 200.13C278.799 200.791 278.907 201.456 279.022 202.117C279.035 202.179 279.043 202.254 279.051 202.341C279.06 202.403 279.068 202.502 279.08 202.576C279.2 202.626 279.362 202.663 279.51 202.696C279.874 202.779 280.366 202.89 280.565 203.361C280.751 203.808 280.528 204.254 280.342 204.551C279.713 205.564 278.547 206.085 277.91 206.304C276.922 206.651 275.867 206.725 274.974 206.725ZM271.773 195.315C271.744 195.799 271.711 196.65 271.673 197.853C271.665 198.059 271.661 198.204 271.661 198.245C271.653 198.431 271.657 198.745 271.665 199.113C271.715 201.485 271.665 203.332 270.553 203.713L270.396 203.762C270.288 203.795 270.114 203.853 270.073 203.89C269.97 204.043 269.994 204.097 270.007 204.126C270.367 204.832 273.357 205.448 274.465 205.481C275.35 205.506 276.496 205.49 277.509 205.138C278.307 204.861 278.969 204.407 279.283 203.919C279.271 203.915 279.254 203.915 279.242 203.911C278.96 203.849 278.605 203.766 278.29 203.556C277.902 203.295 277.852 202.799 277.819 202.469C277.815 202.419 277.811 202.37 277.802 202.336C277.687 201.671 277.575 201.006 277.463 200.336L276.582 195.105C275.462 195.15 272.889 195.266 271.773 195.315ZM271.247 195.336C271.243 195.336 271.243 195.336 271.243 195.336H271.247Z" fill="black"/>
<path d="M268.013 187.826C268.241 187.768 268.489 187.851 268.724 188.029C268.729 187.979 268.729 187.93 268.733 187.88L268.563 182.582C274.684 186.925 275.705 184.148 279.527 185.392C279.527 185.392 279.646 187.855 279.663 188.025C279.886 187.847 280.126 187.764 280.358 187.822C280.945 187.967 281.235 188.934 281.007 189.983C280.788 190.996 279.795 192.124 279.2 192.066C278.373 194.736 276.607 197.038 274.485 197.038C272.364 197.038 270.449 194.736 269.448 192.066C268.857 192.124 267.794 190.996 267.504 189.983C267.207 188.938 267.434 187.971 268.013 187.826Z" fill="white"/>
<path d="M274.481 197.658C271.938 197.658 269.973 195.017 268.993 192.62C268.075 192.315 267.165 191.075 266.905 190.157C266.661 189.298 266.71 188.442 267.037 187.876C267.231 187.537 267.517 187.314 267.856 187.227C267.93 187.207 268.009 187.199 268.083 187.194L267.934 182.611C267.926 182.376 268.054 182.157 268.261 182.045C268.468 181.934 268.72 181.95 268.915 182.087C272.649 184.736 274.308 184.616 276.061 184.483C277.12 184.405 278.216 184.326 279.709 184.81C279.953 184.888 280.122 185.112 280.134 185.368C280.159 185.905 280.197 186.637 280.226 187.19C280.317 187.194 280.407 187.203 280.498 187.227C281.437 187.463 281.913 188.707 281.603 190.12C281.379 191.141 280.527 192.294 279.667 192.608C278.621 195.687 276.607 197.658 274.481 197.658ZM269.469 191.447C269.721 191.447 269.932 191.604 270.023 191.852C270.875 194.125 272.583 196.418 274.477 196.418C276.355 196.418 277.901 194.141 278.6 191.885C278.687 191.604 278.964 191.418 279.254 191.451C279.465 191.414 280.217 190.67 280.395 189.856C280.581 189.013 280.321 188.459 280.205 188.43C280.197 188.434 280.139 188.442 280.048 188.513C279.87 188.657 279.63 188.69 279.419 188.604C279.208 188.517 279.063 188.318 279.043 188.095C279.026 187.955 278.964 186.657 278.923 185.872C277.864 185.595 277.029 185.657 276.156 185.719C274.423 185.847 272.637 185.975 269.217 183.785L269.349 187.868C269.349 187.889 269.349 187.913 269.349 187.934L269.345 188.037C269.332 188.269 269.196 188.488 268.985 188.587C268.774 188.682 268.53 188.67 268.344 188.529C268.249 188.455 268.183 188.438 268.162 188.434C268.063 188.5 267.868 189.017 268.096 189.823C268.319 190.616 269.121 191.414 269.407 191.455C269.427 191.447 269.448 191.447 269.469 191.447Z" fill="black"/>
</g>
<path d="M303.166 224.578H245.83L245.921 223.879L253.27 167.106H310.606L303.166 224.578ZM247.24 223.338H302.074L309.191 168.342H254.358L247.24 223.338Z" fill="black"/>
<path d="M242.41 223.958H186.327L193.606 167.723H249.689L242.41 223.958Z" fill="white"/>
<mask id="mask5_1334_9013" style="mask-type:luminance" maskUnits="userSpaceOnUse" x="186" y="167" width="64" height="57">
<path d="M242.41 223.958H186.327L193.606 167.723H249.689L242.41 223.958Z" fill="white"/>
</mask>
<g mask="url(#mask5_1334_9013)">
<path d="M241.045 224.128C239.933 220.938 237.327 215 235.251 209.751C233.233 204.652 227.7 200.098 221.897 199.358C217.576 198.808 212.89 198.697 208.386 199.052C200.876 199.643 194.425 203.59 191.939 210.185C190.235 214.714 188.635 220.202 187.841 224.108L241.045 224.128Z" fill="black"/>
<path d="M217.782 197.135C219.581 197.316 221.182 196.002 221.364 194.205L221.86 189.266C222.03 187.568 220.801 186.047 219.106 185.857L218.502 185.791C217.501 185.679 216.504 186.055 215.83 186.807L214.569 188.208C214.383 188.415 214.077 188.477 213.825 188.353C213.485 188.184 212.997 188.022 212.617 188.225C211.968 188.572 211.215 191.175 213.601 191.862L212.162 196.969C211.798 198.267 210.905 199.346 209.701 199.949C208.833 200.383 207.981 200.879 207.944 201.18C207.741 202.817 212.58 203.412 213.957 203.445C216.513 203.503 220.094 202.482 220.363 201.023C220.487 200.358 217.34 200.04 217.472 199.374C217.749 197.986 217.782 197.135 217.782 197.135Z" fill="white"/>
<path d="M214.168 204.069C214.089 204.069 214.011 204.069 213.936 204.065C213.887 204.065 209.069 203.854 207.7 202.267C207.402 201.92 207.27 201.519 207.319 201.102C207.373 200.651 207.737 200.23 209.416 199.391C210.462 198.87 211.24 197.924 211.558 196.8L212.844 192.233C211.988 191.812 211.455 191.072 211.356 190.134C211.248 189.117 211.682 188.01 212.315 187.675C212.803 187.415 213.415 187.456 214.093 187.795L215.359 186.39C216.165 185.497 217.365 185.047 218.56 185.175L219.164 185.241C221.19 185.464 222.671 187.299 222.468 189.328L221.972 194.266C221.868 195.299 221.368 196.233 220.561 196.891C219.92 197.415 219.151 197.717 218.341 197.762C218.303 198.122 218.233 198.626 218.113 199.246C218.349 199.362 218.8 199.511 219.093 199.606C220.09 199.932 221.12 200.267 220.958 201.131C220.611 203.06 216.806 204.069 214.168 204.069ZM208.564 201.341C208.576 201.37 208.597 201.412 208.639 201.457C209.346 202.279 212.53 202.792 213.965 202.825C216.463 202.891 219.114 201.957 219.652 201.126C219.408 201.011 218.99 200.878 218.713 200.788C217.712 200.461 216.678 200.122 216.856 199.254C217.121 197.936 217.158 197.118 217.158 197.11L217.187 196.452L217.84 196.519C218.543 196.589 219.234 196.382 219.784 195.932C220.334 195.481 220.673 194.849 220.743 194.142L221.24 189.204C221.376 187.849 220.388 186.621 219.035 186.472L218.432 186.406C217.629 186.315 216.831 186.621 216.289 187.22L215.028 188.621C214.652 189.035 214.044 189.154 213.547 188.902C213.229 188.741 212.997 188.716 212.906 188.766C212.795 188.857 212.489 189.489 212.617 190.142C212.724 190.696 213.113 191.072 213.771 191.258L214.362 191.427L212.758 197.13C212.344 198.593 211.331 199.816 209.974 200.494C209.036 200.969 208.688 201.23 208.564 201.341Z" fill="black"/>
<path d="M218.047 197.767C218.022 197.767 218.001 197.767 217.977 197.763C217.522 197.709 215.214 197.362 214.639 195.622C214.532 195.296 214.71 194.948 215.036 194.841C215.363 194.734 215.715 194.911 215.818 195.234C216.099 196.085 217.447 196.457 218.117 196.531C218.456 196.568 218.7 196.878 218.663 197.217C218.626 197.535 218.357 197.767 218.047 197.767Z" fill="black"/>
<path d="M212.137 188.295L211.496 184.402C211.467 182.687 212.625 181.183 214.288 180.769L219.102 179.575C219.59 179.455 220.057 179.831 220.049 180.336C220.036 180.84 220.508 181.216 220.996 181.096L223.187 180.546C223.833 180.385 224.362 181.071 224.039 181.658L223.924 181.865C223.684 182.303 223.915 182.848 224.399 182.972L226.115 183.447C226.703 183.6 226.885 184.34 226.438 184.749L221.992 188.493C221.992 188.493 221.281 185.253 218.08 185.737C216.459 185.981 215.317 187.22 214.825 188.113C214.635 188.456 214.267 189.072 213.676 188.526C213.68 188.526 214.068 187.204 212.137 188.295Z" fill="black"/>
</g>
<path d="M242.956 224.578H185.62L193.06 167.103H250.396L250.305 167.801L242.956 224.578ZM187.03 223.338H241.864L248.982 168.342H194.148L187.03 223.338Z" fill="black"/>
<path d="M77.1354 65.1377H185.848C187.303 65.1377 188.333 66.3279 188.143 67.799L178.896 138.891C178.706 140.358 177.37 141.552 175.91 141.552H67.1975C65.7418 141.552 64.712 140.362 64.9064 138.891L74.1536 67.799C74.3438 66.332 75.6796 65.1377 77.1354 65.1377Z" fill="white"/>
<path d="M80.8447 69.8486H181.476C182.824 69.8486 183.788 70.8942 183.627 72.1794L175.781 134.51C175.62 135.8 174.396 136.841 173.044 136.841H72.4123C71.0641 136.841 70.1005 135.796 70.2618 134.51L78.107 72.1794C78.2683 70.89 79.4924 69.8486 80.8447 69.8486Z" fill="#CADDFF"/>
<path d="M187.767 71.3071C187.738 71.3071 187.713 71.3071 187.684 71.3029C187.345 71.2575 187.105 70.9475 187.15 70.6045L187.411 68.6581C187.51 67.8977 187.274 67.1249 186.766 66.5464C186.261 65.972 185.529 65.6414 184.764 65.6414C184.764 65.6414 184.764 65.6414 184.76 65.6414L142.259 65.6372C141.915 65.6372 141.638 65.3603 141.638 65.0173C141.638 64.6743 141.915 64.3975 142.259 64.3975L184.756 64.4016H184.76C185.881 64.4016 186.952 64.8851 187.692 65.7281C188.437 66.5753 188.78 67.7035 188.635 68.8193L188.375 70.7657C188.341 71.0798 188.073 71.3071 187.767 71.3071Z" fill="black"/>
<path d="M95.3689 142.321C95.0256 142.321 94.7485 142.044 94.7485 141.701C94.7485 141.358 95.0256 141.081 95.3689 141.081L175.91 140.933C177.063 140.933 178.13 139.982 178.279 138.813L182.092 109.538C182.138 109.199 182.448 108.959 182.787 109.005C183.126 109.05 183.366 109.36 183.321 109.699L179.508 138.974C179.28 140.738 177.663 142.172 175.905 142.172L95.3689 142.321Z" fill="black"/>
<path d="M71.176 90.0523C71.1471 90.0523 71.1181 90.0523 71.0892 90.0482C70.7501 90.0027 70.5143 89.6886 70.5598 89.3498L73.5374 67.7159C73.7649 65.9555 75.3819 64.5215 77.1354 64.5215L102.594 64.5504C102.937 64.5504 103.214 64.8273 103.214 65.1703C103.214 65.5133 102.937 65.7902 102.594 65.7902L77.1354 65.7612C75.9816 65.7612 74.9188 66.7117 74.7657 67.8812L71.7881 89.5233C71.7467 89.8291 71.482 90.0523 71.176 90.0523Z" fill="black"/>
<path d="M112.217 83.6796C105.824 83.6796 101.75 81.0513 101.494 80.886C101.209 80.6959 101.13 80.3116 101.32 80.0264C101.51 79.7413 101.895 79.6628 102.18 79.8529C102.267 79.9107 111.13 85.5847 123.123 79.8115C123.433 79.6628 123.801 79.795 123.95 80.1008C124.099 80.4107 123.971 80.7785 123.661 80.9273C119.376 82.9894 115.493 83.6796 112.217 83.6796Z" fill="black"/>
<path d="M134.819 77.1993C128.413 76.4761 114.86 75.1909 105.328 75.9844C102.396 76.2282 99.6167 77.3729 97.3711 79.2739C90.6011 84.9974 75.928 99.3456 75.7378 116.318L90.7665 114.136L85.8866 136.778C85.8866 136.778 133.181 136.815 140.964 136.815L141.444 116.739H164.306C164.306 116.739 156.746 92.1095 142.077 80.2161C139.997 78.53 137.474 77.4969 134.819 77.1993Z" fill="#5479F7"/>
<path d="M141.072 136.873C141.068 136.873 141.063 136.873 141.059 136.873C140.716 136.865 140.443 136.584 140.451 136.241L140.819 116.723C140.828 116.38 141.092 116.103 141.452 116.116C141.795 116.124 142.068 116.405 142.06 116.748L141.692 136.266C141.684 136.605 141.407 136.873 141.072 136.873Z" fill="black"/>
<path d="M85.9317 136.948C85.8862 136.948 85.8448 136.944 85.7993 136.935C85.4643 136.861 85.2534 136.53 85.3237 136.2L89.9639 114.88L75.8201 116.934C75.6423 116.959 75.4603 116.905 75.3239 116.785C75.1874 116.665 75.1088 116.492 75.1129 116.31C75.3073 98.9615 90.4601 84.2993 96.9654 78.7989C99.3186 76.8111 102.193 75.621 105.274 75.3647C114.703 74.5796 127.875 75.7904 134.889 76.5838C137.693 76.8979 140.311 77.9889 142.465 79.7328C157.114 91.6056 164.508 115.285 164.582 115.521C164.682 115.847 164.5 116.194 164.173 116.293C163.846 116.393 163.499 116.211 163.4 115.884C163.329 115.649 156.038 92.3247 141.688 80.6957C139.719 79.1005 137.321 78.1046 134.752 77.8153C127.784 77.0301 114.703 75.8235 105.381 76.6004C102.561 76.8359 99.9265 77.9228 97.7719 79.7452C91.4899 85.0555 76.974 99.0772 76.3743 115.599L90.6752 113.52C90.8778 113.492 91.0805 113.562 91.2169 113.711C91.3575 113.859 91.4113 114.066 91.3699 114.264L86.5355 136.46C86.4734 136.749 86.217 136.948 85.9317 136.948Z" fill="black"/>
<path d="M164.301 116.735C164.301 116.735 166.092 124.926 157.957 127.385C149.827 129.844 142.102 115.025 142.102 115.025L147.763 111.739L164.301 116.735Z" fill="#5479F7"/>
<path d="M156.088 128.281C148.408 128.281 141.849 115.884 141.551 115.309C141.398 115.016 141.502 114.652 141.791 114.487L147.453 111.202C147.751 111.028 148.131 111.131 148.301 111.425C148.474 111.722 148.371 112.098 148.077 112.272L142.941 115.252C144.384 117.805 151.072 128.823 157.784 126.785C164.876 124.641 164.636 120.169 163.47 116.078C163.375 115.747 163.565 115.404 163.896 115.314C164.223 115.219 164.57 115.409 164.661 115.739C165.401 118.322 167.362 125.186 158.143 127.976C157.449 128.186 156.762 128.281 156.088 128.281Z" fill="black"/>
<path d="M114.434 133.179H152.114C153.069 133.179 153.9 132.526 154.132 131.601L161.737 100.9C162.064 99.59 161.071 98.3213 159.719 98.3213H122.04C121.084 98.3213 120.253 98.9742 120.022 99.8999L112.416 130.601C112.094 131.911 113.086 133.179 114.434 133.179Z" fill="white"/>
<path d="M139.293 123.909C138.462 124.137 137.606 124.257 136.742 124.257C131.924 124.257 128.801 120.446 129.769 115.743C130.737 111.045 135.427 107.23 140.245 107.23C145.063 107.23 148.185 111.041 147.217 115.743C146.423 119.607 143.119 122.868 139.293 123.909Z" fill="#99B9FF"/>
<path d="M135.989 113.152L134.703 119.401C134.587 119.971 135.117 120.347 135.696 120.108L142.548 117.256C143.198 116.987 143.392 116.177 142.883 115.868L137.317 112.471C136.841 112.181 136.109 112.557 135.989 113.152Z" fill="white"/>
<path d="M158.768 114.608L157.594 117.864L147.982 113.281C147.982 113.281 142.697 117.864 155.509 123.732C160.844 126.183 158.768 114.608 158.768 114.608Z" fill="white"/>
<path d="M156.849 124.699C156.361 124.699 155.828 124.567 155.249 124.302C149.715 121.769 146.713 119.103 146.324 116.38C146.014 114.202 147.511 112.876 147.577 112.818C147.763 112.657 148.028 112.62 148.251 112.727L157.242 117.012L158.185 114.401C158.28 114.136 158.545 113.975 158.822 113.992C159.103 114.016 159.33 114.223 159.38 114.5C159.525 115.297 160.708 122.335 158.276 124.22C157.858 124.538 157.383 124.699 156.849 124.699ZM148.127 114.041C147.829 114.43 147.399 115.19 147.552 116.219C147.788 117.781 149.401 120.256 155.761 123.17C156.911 123.699 157.362 123.348 157.511 123.236C158.524 122.451 158.66 119.723 158.47 117.248L158.172 118.074C158.115 118.24 157.986 118.372 157.825 118.438C157.664 118.504 157.482 118.5 157.321 118.426L148.127 114.041Z" fill="black"/>
<path d="M102.234 98.0273C102.234 98.0273 84.2652 108.123 80.5597 111.297C76.8542 114.467 72.8344 116.872 78.0577 123.806C83.2809 130.74 105.559 102.97 105.559 102.97C105.559 102.97 109.84 103.681 111.333 97.8455C111.333 97.8455 118.558 98.1058 118.818 95.8329L108.628 94.0063C107.309 93.7708 105.961 94.2047 105.026 95.1634L102.234 98.0273Z" fill="white"/>
<path d="M80.3694 125.534C80.3487 125.534 80.3281 125.534 80.3074 125.534C79.1535 125.517 78.2314 125.058 77.5655 124.174C72.3878 117.306 75.903 114.376 79.3025 111.541C79.5878 111.305 79.8731 111.066 80.1585 110.822C83.7813 107.722 100.398 98.3498 101.854 97.5274L104.583 94.7297C105.663 93.6222 107.218 93.1263 108.74 93.3949L118.93 95.2215C119.252 95.2793 119.476 95.5769 119.438 95.9033C119.157 98.3539 113.781 98.5068 111.804 98.4738C110.369 103.28 106.978 103.619 105.845 103.606C103.752 106.181 87.8011 125.534 80.3694 125.534ZM107.912 94.5644C107.003 94.5644 106.118 94.928 105.468 95.5975L102.677 98.4614C102.635 98.5027 102.59 98.5399 102.536 98.5688C102.358 98.668 84.5795 108.673 80.9608 111.768C80.6713 112.016 80.3819 112.256 80.0924 112.495C76.7343 115.293 74.0833 117.504 78.5497 123.43C78.9798 124 79.5588 124.281 80.3198 124.294C87.4702 124.401 104.893 102.801 105.071 102.582C105.212 102.408 105.435 102.321 105.659 102.358C105.807 102.383 109.401 102.871 110.729 97.6927C110.799 97.4117 111.068 97.2009 111.353 97.2257C113.971 97.3208 116.783 96.9654 117.805 96.2835L108.516 94.6222C108.318 94.5809 108.115 94.5644 107.912 94.5644Z" fill="black"/>
<path d="M127.585 65.4548C127.912 66.0169 127.238 67.112 127.234 67.1079C127.222 67.1037 127.557 63.9051 129.339 63.0993C130.373 62.6323 130.906 63.4092 132.445 63.1985C134.078 62.9753 135.877 61.7603 136.551 59.9916C137.366 57.851 136.192 55.8136 135.451 54.5284C134.715 53.2473 133.776 51.8257 132.151 51.21C130.03 50.4083 129.145 51.6398 126.717 50.8835C124.744 50.2678 124.889 49.3173 123.131 48.8172C121.667 48.3999 117.449 48.6395 116.502 50.8835C115.902 52.3092 117.197 53.1771 116.552 55.2847C116.167 56.5534 115.555 56.7063 115.113 57.6857C114.012 60.1156 115.39 64.3762 118.016 65.8061C121.581 67.7484 126.816 64.1242 127.585 65.4548Z" fill="black"/>
<path d="M126.06 67.1741L126.887 73.9846C127.044 75.2822 127.979 76.3484 129.24 76.679L132.739 77.5923L121.953 85.816L109.832 76.6129L114.178 75.6417C115.427 75.3607 116.386 74.3606 116.614 73.1002L118.421 63.0664L126.06 67.1741Z" fill="white"/>
<path d="M121.957 86.4358C121.825 86.4358 121.692 86.3945 121.581 86.3077L109.459 77.1045C109.269 76.9599 109.178 76.7161 109.228 76.4805C109.277 76.245 109.463 76.059 109.699 76.0094L114.046 75.0383C115.055 74.8151 115.824 74.0093 116.006 72.9927L117.813 62.9589C117.846 62.7646 117.974 62.5952 118.152 62.5084C118.33 62.4216 118.541 62.4258 118.715 62.5208L126.349 66.6327C126.527 66.7277 126.647 66.9054 126.672 67.1038L127.499 73.9142C127.627 74.9639 128.371 75.8193 129.393 76.0838L132.892 76.9971C133.123 77.0549 133.297 77.2409 133.342 77.4765C133.388 77.712 133.301 77.9476 133.111 78.0922L122.325 86.316C122.222 86.3903 122.089 86.4358 121.957 86.4358ZM111.275 76.9227L121.957 85.0349L131.357 77.8691L129.091 77.2781C127.573 76.8814 126.469 75.6168 126.279 74.0589L125.489 67.5666L118.888 64.0127L117.234 73.2034C116.961 74.7118 115.82 75.9061 114.323 76.2408L111.275 76.9227Z" fill="black"/>
<path d="M119.294 64.4469C119.294 64.4469 116.61 63.4344 117.619 61.2111C118.628 58.9878 120.27 60.6284 120.27 60.6284C120.27 60.6284 121.796 55.1569 125.001 57.3141C128.206 59.4713 131.246 60.2565 131.246 60.2565C131.246 60.2565 130.117 65.7652 128.09 69.4307C126.866 71.6416 125.319 73.1789 123.491 72.4392C118.487 70.406 119.294 64.4469 119.294 64.4469Z" fill="white"/>
<path d="M124.405 73.2489C123.983 73.2489 123.595 73.1539 123.252 73.0134C118.719 71.1702 118.57 66.3393 118.64 64.8227C118.136 64.5499 117.321 64.0003 116.957 63.1201C116.676 62.4423 116.709 61.7109 117.052 60.9546C117.449 60.0826 117.995 59.5785 118.682 59.4545C119.157 59.3677 119.596 59.4876 119.943 59.657C120.352 58.6073 121.221 56.8841 122.664 56.351C123.524 56.0328 124.426 56.1857 125.344 56.8014C128.417 58.8677 131.366 59.6529 131.394 59.657C131.713 59.7396 131.911 60.0579 131.845 60.3802C131.8 60.6075 130.675 66.0252 128.624 69.728C127.114 72.4679 125.617 73.2489 124.405 73.2489ZM119.91 64.5293C119.881 64.7524 119.236 70.0421 123.723 71.8645C124.972 72.3728 126.258 71.4554 127.544 69.1329C129.132 66.2608 130.17 62.1613 130.514 60.6901C129.463 60.3513 127.118 59.4876 124.653 57.8304C124.079 57.4461 123.57 57.3386 123.099 57.5163C121.899 57.9544 121.08 60.0372 120.865 60.8017C120.807 61.0125 120.638 61.1778 120.427 61.2356C120.212 61.2935 119.989 61.2315 119.831 61.0745C119.707 60.9546 119.265 60.6157 118.905 60.6819C118.582 60.7439 118.334 61.1447 118.185 61.4753C117.987 61.9134 117.962 62.2936 118.107 62.649C118.38 63.3143 119.219 63.7565 119.517 63.8722C119.782 63.9714 119.947 64.2441 119.91 64.5293Z" fill="black"/>
<path d="M183.966 106.578C193.068 106.578 200.447 99.1922 200.447 90.0811C200.447 80.97 193.068 73.584 183.966 73.584C174.864 73.584 167.486 80.97 167.486 90.0811C167.486 99.1922 174.864 106.578 183.966 106.578Z" fill="#5479F7"/>
<path d="M188.288 92.0399C187.366 91.9738 186.522 92.3623 185.947 93.0028L180.55 90.4406C180.562 90.3663 180.583 90.3001 180.587 90.2216C180.596 90.0811 180.583 89.9489 180.575 89.8125L186.452 87.5851C186.935 88.2256 187.667 88.6678 188.523 88.7298C190.107 88.8455 191.485 87.6429 191.6 86.0478C191.716 84.4526 190.521 83.0599 188.937 82.9442C187.353 82.8285 185.976 84.0311 185.86 85.6262C185.852 85.7667 185.864 85.899 185.873 86.0354L179.996 88.2628C179.512 87.6223 178.78 87.1801 177.924 87.1181C176.34 87.0024 174.963 88.2049 174.847 89.8001C174.731 91.3953 175.926 92.7879 177.51 92.9036C178.433 92.9698 179.276 92.5813 179.851 91.9408L185.248 94.5029C185.236 94.5773 185.215 94.6434 185.211 94.7219C185.095 96.3171 186.29 97.7098 187.874 97.8255C189.458 97.9412 190.835 96.7386 190.951 95.1435C191.063 93.5483 189.868 92.1556 188.288 92.0399Z" fill="white"/>
<path d="M166.828 164.198H79.1001L79.8404 157.755H167.573L166.828 164.198Z" fill="#CADDFF"/>
<path d="M142.449 176.88H77.6318L78.3763 170.438H143.193L142.449 176.88Z" fill="#CADDFF"/>
<path d="M73.186 167.325H63.7114L64.799 157.924H74.2696L73.186 167.325Z" fill="#CADDFF"/>
<path d="M162.866 195.527H75.1377L75.878 189.084H163.61L162.866 195.527Z" fill="#CADDFF"/>
<path d="M138.487 208.209H73.6738L74.4141 201.767H139.231L138.487 208.209Z" fill="#CADDFF"/>
<path d="M68.8062 198.184H59.3315L60.4192 188.782H69.8897L68.8062 198.184Z" fill="#CADDFF"/>
<path d="M219.855 308.428C225.967 284.562 246.6 268.317 268.406 287.778C276.115 302.696 253.378 316.135 227.497 317.656C222.501 317.949 218.61 313.279 219.855 308.428Z" fill="#99B9FF"/>
<path d="M251.757 279.495C249.305 278.235 245.673 276.747 239.272 277.723C232.212 278.801 230.637 284.016 219.57 286.351C200.542 290.368 209.913 301.518 209.913 301.518L224.714 294.811C225.674 294.377 226.732 294.207 227.779 294.323C231.009 294.678 238.734 295.257 245.764 293.666C251.029 292.476 257.965 296.848 261.699 293.554C263.87 291.637 256.988 282.177 251.757 279.495Z" fill="white"/>
<path d="M209.917 302.133C209.739 302.133 209.561 302.055 209.441 301.91C209.292 301.737 205.864 297.579 207.365 293.219C208.585 289.69 212.646 287.169 219.445 285.735C225.314 284.496 228.457 282.438 231.228 280.619C233.581 279.074 235.806 277.615 239.18 277.103C245.491 276.14 249.222 277.491 252.042 278.937C256.459 281.206 262.24 288.285 262.704 291.992C262.844 293.108 262.46 293.703 262.112 294.009C259.743 296.1 256.273 295.414 252.919 294.748C250.512 294.273 248.022 293.781 245.905 294.257C238.721 295.881 230.789 295.265 227.712 294.926C226.778 294.823 225.831 294.976 224.97 295.364L210.169 302.071C210.091 302.117 210.004 302.133 209.917 302.133ZM243.196 278.024C242.042 278.024 240.773 278.119 239.371 278.334C236.261 278.809 234.247 280.132 231.91 281.665C229.048 283.541 225.802 285.673 219.706 286.959C213.37 288.298 209.615 290.537 208.544 293.624C207.498 296.641 209.375 299.708 210.115 300.749L224.462 294.248C225.525 293.765 226.695 293.579 227.853 293.707C230.868 294.042 238.634 294.641 245.636 293.062C248.01 292.525 250.632 293.046 253.167 293.546C256.364 294.178 259.387 294.777 261.297 293.091C261.517 292.897 261.517 292.476 261.479 292.157C261.103 289.149 255.772 282.256 251.484 280.049C249.457 279.008 246.935 278.024 243.196 278.024Z" fill="black"/>
<path d="M221.219 283.901C219.267 281.665 216.166 280.764 213.296 281.578C199.425 285.5 154.281 297.418 147.221 288.525C143.193 283.446 134.041 268.486 123.958 254.808C117.432 245.956 110.514 237.641 104.335 232.901C85.9358 218.772 34.2119 219.421 34.2119 219.421C34.2119 219.421 72.1602 319.019 111.527 332.487C118.301 334.805 124.215 336.289 129.492 337.132C149.368 340.306 160.182 334.375 173.664 329.532C193.8 322.304 225.235 303.216 225.657 295.827C225.955 290.612 223.527 286.545 221.219 283.901Z" fill="#5479F7"/>
<path d="M80.3239 334.285C88.2146 336.454 114.215 341.657 146.82 342.508C119.62 327.706 112.288 300.27 112.288 300.27C135.232 297.517 112.139 254.126 103.169 238.071C98.1979 229.174 84.629 221.814 75.4398 217.198C55.4359 207.147 21.007 200.287 7.76487 214.367C1.9709 220.524 0.86667 226.054 0.858398 235.724C0.858398 237.488 1.04452 239.249 1.39605 240.98C16.003 312.329 52.5451 326.644 80.3239 334.285Z" fill="#5479F7"/>
<path d="M129.959 262.75C129.765 262.75 129.571 262.659 129.451 262.486C121.241 250.75 112.47 241.385 103.38 234.649C98.3096 230.897 91.8126 227.665 85.0881 225.558C84.7614 225.454 84.5794 225.107 84.6828 224.781C84.7862 224.454 85.1336 224.272 85.4603 224.376C92.3171 226.525 98.9423 229.822 104.12 233.657C113.318 240.472 122.184 249.931 130.468 261.779C130.662 262.06 130.596 262.445 130.315 262.643C130.203 262.717 130.079 262.75 129.959 262.75Z" fill="#CADDFF"/>
<path d="M138.243 340.521C138.21 340.521 138.173 340.517 138.14 340.513C131.866 339.455 126.552 338.004 120.365 335.673C103.115 329.169 78.008 296.931 66.2588 272.069C66.1141 271.76 66.2464 271.392 66.5566 271.243C66.8667 271.094 67.2348 271.231 67.3837 271.541C79.0295 296.187 103.835 328.111 120.807 334.512C126.911 336.814 132.16 338.244 138.351 339.289C138.69 339.347 138.917 339.665 138.859 340.004C138.801 340.306 138.537 340.521 138.243 340.521Z" fill="#CADDFF"/>
<path d="M31.1471 221.55L28.7856 176.588L59.2484 194.23L61.0888 219.037C61.3576 224.579 56.887 228.063 56.887 228.063C51.3867 232.832 43.0907 232.753 36.7425 229.141L35.2744 228.307C32.8179 226.906 31.2587 224.356 31.1471 221.55Z" fill="white"/>
<path d="M46.4696 232.402C43.1198 232.402 39.6417 231.501 36.4366 229.678L34.9685 228.844C32.3094 227.331 30.6468 224.616 30.5269 221.579L28.1655 176.621C28.1531 176.393 28.2688 176.179 28.4632 176.059C28.6576 175.939 28.9016 175.939 29.096 176.05L59.5588 193.692C59.7366 193.796 59.8524 193.977 59.8648 194.184L61.7051 218.992C61.9905 224.806 57.462 228.401 57.2676 228.55C54.3272 231.104 50.4935 232.402 46.4696 232.402ZM29.464 177.695L31.7675 221.517C31.7675 221.521 31.7675 221.521 31.7675 221.525C31.8709 224.133 33.2978 226.463 35.5847 227.765L37.0528 228.6C43.5457 232.294 51.5357 231.881 56.4819 227.591C56.548 227.538 60.7209 224.207 60.4686 219.066L58.653 194.597L29.464 177.695Z" fill="black"/>
<path d="M72.8259 136.208C65.2619 134.659 73.7275 143.775 46.7014 131.555C35.9406 126.691 39.7412 140.403 36.9497 139.147C26.6272 134.514 23.7985 133.353 18.3436 133.94C14.7333 134.328 6.37934 140.014 6.85494 144.8C8.41819 160.413 15.8044 157.425 18.5132 171.24C20.4156 180.943 22.6405 184.137 26.2054 186.034C29.8116 187.952 33.3558 183.344 37.4542 185.15C42.756 187.485 40.2953 196.725 45.105 201.411C48.1364 204.366 55.8618 206.664 69.3934 202.465C71.5853 201.783 72.9748 199.651 72.6853 197.395C72.3131 194.502 71.8251 190.849 71.06 187.398C67.4207 170.946 62.2885 166.595 64.9228 162.859C68.9592 157.131 80.3527 162.421 83.0657 157.627C85.8862 152.652 83.1815 138.328 72.8259 136.208Z" fill="black"/>
<path d="M42.2974 159.152L43.873 163.413C44.6298 165.463 45.2502 167.558 45.7134 169.69C46.5777 173.657 48.3395 180.439 49.2824 184.257C52.3138 196.519 68.6452 185.923 68.6452 185.923L70.1175 182.885L72.177 182.389C72.5534 182.299 72.9132 182.141 73.1985 181.885C73.9843 181.187 74.158 180.108 73.7279 179.24C71.6808 175.091 67.7271 166.38 66.2342 158.276C65.8785 156.342 64.3318 154.821 62.3715 154.445C57.9919 153.606 50.0516 153.292 42.2974 159.152Z" fill="white"/>
<path d="M56.5278 190.795C55.3822 190.795 54.2698 190.626 53.2441 190.221C50.9489 189.312 49.4104 187.357 48.6826 184.407C48.4262 183.361 48.1036 182.092 47.7603 180.72C46.8588 177.154 45.7421 172.711 45.1094 169.823C44.6586 167.761 44.0466 165.674 43.2898 163.628L41.7141 159.367C41.619 159.111 41.7058 158.822 41.9209 158.657C49.9687 152.574 58.2647 153.028 62.4913 153.834C64.6997 154.256 66.4491 155.995 66.8503 158.161C68.3101 166.099 72.1397 174.604 74.2902 178.964C74.8609 180.121 74.5921 181.481 73.6161 182.348C73.277 182.65 72.8427 182.869 72.3258 182.993L70.5516 183.419L69.2075 186.192C69.1579 186.295 69.0834 186.382 68.9883 186.44C68.6616 186.655 62.1977 190.795 56.5278 190.795ZM43.0375 159.376L44.4519 163.202C45.2293 165.302 45.858 167.442 46.317 169.562C46.9415 172.435 48.0581 176.865 48.9597 180.423C49.3071 181.795 49.6255 183.068 49.886 184.113C50.5146 186.65 51.7967 188.32 53.699 189.072C58.8148 191.097 66.9867 186.229 68.1695 185.497L69.5632 182.621C69.6459 182.456 69.7948 182.332 69.9767 182.291L72.0363 181.795C72.3506 181.72 72.607 181.596 72.7931 181.431C73.3431 180.939 73.5003 180.175 73.1777 179.522C70.9982 175.1 67.119 166.48 65.6302 158.396C65.3242 156.731 63.9678 155.388 62.2598 155.061C58.2978 154.297 50.5891 153.871 43.0375 159.376Z" fill="black"/>
<path d="M43.3391 173.579C43.3391 173.579 39.5095 163.181 35.101 165.888C30.6883 168.591 35.1961 179.935 43.3391 173.579Z" fill="white"/>
<path d="M63.1817 178.095C62.8013 178.095 62.4001 178.046 61.9824 177.947C61.2711 177.777 60.6052 177.079 60.1462 176.025C59.2322 173.922 59.0875 170.227 61.4158 166.165C61.7756 165.533 62.458 165.049 63.2893 164.838C64.3314 164.566 65.4646 164.756 66.4736 165.371C67.826 166.19 68.3678 167.896 68.1403 170.578C67.8425 174.013 66.9368 176.302 65.4439 177.381C64.7822 177.86 64.0254 178.095 63.1817 178.095ZM64.2363 165.958C64.0212 165.958 63.8062 165.983 63.5994 166.037C63.099 166.165 62.6854 166.442 62.4952 166.781C60.3943 170.446 60.4936 173.703 61.2876 175.533C61.6143 176.285 62.0155 176.682 62.2719 176.74C63.2561 176.976 64.0543 176.852 64.716 176.372C65.9029 175.513 66.6391 173.529 66.9038 170.467C67.1809 167.243 66.1635 166.628 65.8326 166.425C65.3157 166.119 64.7698 165.958 64.2363 165.958Z" fill="black"/>
<path d="M64.0749 165.904C64.0708 165.904 64.0667 165.904 64.0625 165.904L39.7824 165.396C39.4392 165.388 39.1662 165.107 39.1745 164.764C39.1828 164.425 39.4599 164.156 39.7948 164.156C39.799 164.156 39.8031 164.156 39.8073 164.156L64.0873 164.665C64.4306 164.673 64.7035 164.954 64.6952 165.297C64.687 165.636 64.4099 165.904 64.0749 165.904Z" fill="black"/>
<path d="M73.3515 177.137C73.0827 177.137 72.8346 176.963 72.756 176.691C72.6609 176.364 72.847 176.017 73.1778 175.922C73.8271 175.591 76.2257 171.128 74.7411 167.5C74.5095 166.934 74.1497 166.574 73.6369 166.396C72.2721 165.925 70.1257 166.863 69.4144 167.264C69.1167 167.434 68.7362 167.33 68.5708 167.029C68.4012 166.731 68.5046 166.355 68.8024 166.186C68.9264 166.115 71.8627 164.471 74.0422 165.223C74.8982 165.52 75.5227 166.128 75.8908 167.033C77.2721 170.409 75.7956 173.959 75.3076 174.967C74.9644 175.674 74.282 176.897 73.5252 177.116C73.4673 177.129 73.4094 177.137 73.3515 177.137Z" fill="black"/>
</svg>
